<svg xmlns="http://www.w3.org/2000/svg" width="32" height="32">
    <path fill="#222" d="M16 4c6.618 0 12 5.383 12 12s-5.382 12-12 12c-6.616 0-12-5.383-12-12s5.384-12 12-12m0-4c-8.835 0-16 7.164-16 16s7.165 16 16 16c8.837 0 16-7.164 16-16s-7.163-16-16-16z"/>
    <g fill="#BB3825">
        <path d="M18.125 13.879c.797.798 1.009 1.93.719 2.944l5.156-8.823-8.703 5.138c.984-.242 2.062-.029 2.828.741zM13.884 18.121c-.774-.771-.984-1.85-.743-2.836l-5.141 8.715 8.832-5.16c-1.016.293-2.144.082-2.948-.719z"/>
    </g>
</svg>
