<?xml version="1.0" encoding="utf-8"?>
<!-- Generator: Adobe Illustrator 15.1.0, SVG Export Plug-In . SVG Version: 6.00 Build 0)  -->
<!DOCTYPE svg PUBLIC "-//W3C//DTD SVG 1.1//EN" "http://www.w3.org/Graphics/SVG/1.1/DTD/svg11.dtd">
<svg version="1.1" id="Layer_1" xmlns="http://www.w3.org/2000/svg" xmlns:xlink="http://www.w3.org/1999/xlink" x="0px" y="0px"
	 width="29px" height="24px" viewBox="0 0 29 24" enable-background="new 0 0 29 24" xml:space="preserve">
<g>
	<defs>
		<rect id="SVGID_1_" width="29" height="23.566"/>
	</defs>
	<clipPath id="SVGID_2_">
		<use xlink:href="#SVGID_1_"  overflow="visible"/>
	</clipPath>
	<path clip-path="url(#SVGID_2_)" fill="#2CAAE1" d="M29,2.791c-1.067,0.474-2.214,0.793-3.418,0.938
		c1.229-0.737,2.172-1.903,2.617-3.293c-1.15,0.682-2.424,1.177-3.779,1.444C23.333,0.723,21.787,0,20.075,0
		c-3.287,0-5.952,2.665-5.952,5.951c0,0.467,0.053,0.921,0.154,1.356C9.332,7.06,4.946,4.69,2.011,1.089
		C1.499,1.968,1.205,2.991,1.205,4.082c0,2.064,1.051,3.886,2.647,4.954C2.877,9.004,1.959,8.736,1.157,8.291
		C1.156,8.315,1.156,8.34,1.156,8.366c0,2.883,2.052,5.289,4.774,5.835c-0.5,0.136-1.025,0.209-1.568,0.209
		c-0.384,0-0.757-0.038-1.12-0.107c0.757,2.364,2.955,4.085,5.56,4.133c-2.037,1.597-4.603,2.548-7.391,2.548
		c-0.48,0-0.954-0.028-1.42-0.083c2.634,1.688,5.762,2.674,9.123,2.674c10.947,0,16.933-9.069,16.933-16.933
		c0-0.258-0.006-0.515-0.017-0.77C27.193,5.032,28.202,3.984,29,2.791"/>
</g>
</svg>
