<svg xmlns="http://www.w3.org/2000/svg" width="24" height="24">
    <path fill="#222" d="M19.57 11.754c.122-.124.354-.359.47-.452.162-.127 1.068.013 1.756-.417.686-.431 1.527-1.446 1.752-1.868.227-.422.229-.693.291-1.2l.138-1.044s-.749.117-1.271.248c-.521.131-.891.366-1.198.623-.308.256-.236.036-.615.401-.381.365-.754.996-.939 1.603-.188.608-.077 1.404-.115 1.544-.025.094-.16.236-.248.322l.09-1.201c.038-.569.023-1.187.002-1.552l-.047-.394c.121-.12.508-.5.704-.658.237-.189.932-.154 1.476-.562.52-.389 1.346-1.496 1.197-2.491-.148-.995-.629-1.677-.629-1.677s-1.008.24-1.609.731c-.599.491-1.275 1.584-1.17 2.387.107.802.601 1.127.588 1.389-.012.225-.463.54-.596.627-.02-.144-.035-.271-.025-.362.033-.321-.17-.88-.17-.88s-.213-.477-.245-.627c-.032-.149.076-.487.183-.813.107-.328-.051-.981-.019-1.36.032-.378-.106-1.079-.128-1.253-.019-.172-.266-.767-.357-.908l-.246-.452c-.119-.186-.309-.283-.459-.419-.152-.136-.321-.311-.426-.442-.105-.131-.367-.209-.49-.256-.126-.049-.334-.341-.334-.341s-.011.335-.056.494c-.047.159-.178.253-.248.627-.068.375-.135.69-.143 1.018-.01.327.082 1.018.236 1.359.156.341.375.76.764 1.298.387.538 1.432 1.316 1.544 1.471l.271.795s.116.523.134 1.154l-.05.014c-.096.019-.338-.161-.463-.29-.125-.13-.09-.299-.214-.637-.124-.34-.516-1.161-.997-1.694-.482-.534-1.105-.715-1.68-.787-.575-.072-1.637.353-1.637.353s.105.722.335 1.338c.231.615 1.388 1.32 1.96 1.535.571.214 1.957.038 2.086.059l.506.29.154-.023v.014c-.001.515.129.684.086 1.099s.029.842-.058 1.146l-.177.494-.158-.095c-.068-.08-.178-.349-.31-.799-.134-.451-.797-1.19-1.218-1.575-.418-.385-1.66-.67-1.973-.567l-1.031.018s.191.802.326 1.147c.133.345.053.508.204.808.149.298.234.421.696.817.463.398 1.123.546 1.653.508.532-.039 1.419-.193 1.589-.168.172.024.222.103.222.103l.012-.022c.052.152.075.415.058.682-.02.284-.064 1.006-.193 1.567-.131.56-.291 1.403-.406 1.513l-.227.192v.002l-.134-.146c-.105-.179-.021-.571-.182-1.379-.161-.807-1.122-1.742-1.808-2.086-.686-.342-2.049-.361-2.049-.361s.117.771.203.98c.088.211.014.364.209.947.198.584.828 1.139 1.537 1.576.709.438 1.865.331 1.966.437l.214.235c-.032.177-.078.419-.158.549-.123.201-.398 1.068-.858 1.665-.224.289-.384.514-.491.668-.054-.052-.326-.309-.418-.449-.104-.156.232-.793.17-1.586-.063-.795-.486-1.181-1.041-1.661l-1.791-.434s-.113.491-.145 1.1c-.031.607.369 1.316.897 1.803.53.486 1.438.475 1.722.819.141.17.511.538.516.543l-.074.115s-.183.35-.429.606c-.179.187-.835.775-1.413 1.2-.059-.098-.143-.25-.176-.358-.055-.172.241-.371.182-1.529-.053-1.022-1.23-1.666-1.551-1.883-.318-.217-.766-.561-.766-.561s-.788 1.392.043 2.807c.459.786 1.869 1.1 1.94 1.228l.177.404c-.16.112-.312.208-.439.272l-1.161.638c-.479.223-.589.116-1.36.598-.773.48-1.834 1.314-1.939 1.45 0 0 .135.413.199.492.065.08.129.038.178-.003.051-.042-.02-.216.107-.323.129-.107 1.078-.946 1.386-1.156.31-.212.792-.485 1.16-.623.237-.09.727-.312 1.107-.503l.116.061c.077.008.493-.015.619.123.125.138.59 1.027.896 1.208.307.182.885.62 1.52.439.633-.182 1.038-.156 1.334-.37.295-.212.447-.598.447-.598s-.148-.166-.236-.36-.584-.812-.93-.985c-.348-.173-1.224-.445-1.727-.253-.504.195-.984.636-1.161.713-.179.076-.603-.028-.671-.068l-.012-.009.277-.157c.23-.158 1.431-1.086 1.732-1.365.166-.152.391-.401.611-.668.131.018.377.053.439.088.083.05.729.689 1.129.847.4.156 1.351.573 1.99.22.641-.354 1.084-1.003 1.084-1.003s-.176-.409-.453-.615-1.117-.54-1.471-.537c-.356.003-.77.001-1.137.146-.368.146-.99.683-1.071.729-.064.036-.257-.057-.333-.098l.309-.424c.289-.439.668-.991.774-1.081l.079-.16.539-.093.912.378c.361.075.654-.005 1.002.005.348.007.79.262 1.592.075.799-.188 1.589-1.012 1.589-1.012s-.134-.035-.229-.143c-.098-.108-.174-.216-.338-.457-.164-.242-.414-.405-.938-.714-.52-.308-1.324-.045-1.535.033-.209.078-.558.092-.963.377-.406.286-.889 1.139-1.077 1.26-.171.108-.444.054-.491.042.031-.128.066-.264.119-.373.119-.246.586-1.362.736-1.747.166-.095.52-.302.609-.368.121-.088.26-.098.648.021.388.118 1.284.189 1.857-.103.57-.292 1.342-1.264 1.518-1.723.182-.463.288-1.23.288-1.23s-.39.012-.575.002c-.188-.01-.656-.137-1.266-.061-.608.075-1.365.324-1.844.928-.479.605-.518 1.811-.678 1.985-.114.125-.344.229-.467.28.112-.452.299-1.469.332-1.902l.068-.878zM4.43 11.754c-.122-.124-.354-.359-.47-.452-.162-.127-1.068.013-1.756-.417-.686-.431-1.527-1.446-1.752-1.868-.227-.422-.229-.693-.291-1.2l-.138-1.045s.749.117 1.272.248c.521.131.891.366 1.198.623.308.256.236.036.617.401.379.365.752.996.938 1.602.188.608.077 1.404.115 1.544.025.094.16.236.248.322l-.09-1.201c-.038-.569-.023-1.186-.002-1.551l.047-.394c-.121-.12-.508-.5-.704-.658-.237-.188-.932-.153-1.475-.561-.52-.389-1.346-1.496-1.197-2.491.148-.995.629-1.677.629-1.677s1.01.24 1.609.731 1.275 1.584 1.17 2.387c-.108.802-.601 1.127-.588 1.389.012.225.463.54.596.627.019-.143.034-.271.025-.362-.033-.321.17-.88.17-.88s.213-.477.245-.627c.032-.15-.076-.487-.183-.814-.107-.328.051-.981.019-1.36-.033-.379.106-1.079.128-1.254.018-.172.265-.766.357-.907l.246-.452c.119-.186.309-.283.459-.419.152-.136.321-.311.426-.442.105-.131.367-.209.49-.256.123-.048.331-.34.331-.34s.011.335.056.494c.047.159.178.253.248.627.068.375.135.69.143 1.018.01.327-.082 1.018-.236 1.359-.156.341-.375.76-.764 1.298-.387.538-1.432 1.317-1.545 1.471l-.27.795s-.116.523-.134 1.154l.05.014c.096.019.338-.161.463-.29.125-.13.09-.299.214-.637.124-.34.516-1.161.997-1.694.482-.534 1.105-.715 1.68-.787.575-.072 1.636.352 1.636.352s-.103.722-.335 1.339c-.231.615-1.388 1.32-1.96 1.535-.571.213-1.957.037-2.086.058l-.506.29-.154-.023v.014c.001.515-.129.684-.086 1.099s-.029.842.058 1.146l.177.494.158-.095c.068-.08.178-.349.31-.799.134-.451.797-1.19 1.218-1.575.418-.385 1.66-.67 1.973-.567l1.031.018s-.192.801-.327 1.146c-.133.346-.053.509-.204.808-.149.298-.234.421-.696.817-.463.398-1.123.546-1.653.508-.532-.039-1.419-.193-1.589-.168-.172.024-.222.103-.222.103l-.012-.022c-.052.152-.075.415-.058.682.02.284.064 1.006.193 1.567.131.56.291 1.403.406 1.513l.227.192v.002l.134-.146c.105-.179.021-.571.182-1.379.161-.807 1.122-1.742 1.808-2.086.686-.342 2.049-.361 2.049-.361s-.117.771-.203.98c-.088.211-.014.364-.209.947-.198.584-.828 1.139-1.537 1.576-.709.438-1.863.331-1.966.437l-.214.235c.032.177.078.419.158.549.123.201.398 1.068.858 1.665.224.289.384.514.491.668.054-.052.326-.309.418-.449.104-.156-.232-.793-.17-1.586.063-.795.486-1.181 1.041-1.661l1.791-.434s.113.491.145 1.1c.031.607-.369 1.316-.897 1.803-.53.486-1.438.475-1.722.819-.141.17-.511.538-.516.543l.074.115s.183.35.429.606c.179.187.837.775 1.413 1.2.059-.098.143-.25.176-.358.055-.172-.241-.371-.182-1.529.053-1.022 1.23-1.666 1.551-1.883.318-.217.766-.561.766-.561s.788 1.392-.043 2.807c-.459.786-1.869 1.1-1.94 1.228l-.177.404c.16.112.312.208.439.272l1.161.638c.479.223.589.116 1.36.598.773.48 1.834 1.314 1.939 1.45 0 0-.135.413-.199.492-.065.08-.129.038-.178-.003-.051-.042.02-.216-.107-.323-.129-.107-1.078-.946-1.386-1.156-.31-.212-.792-.485-1.16-.623-.237-.09-.727-.312-1.107-.503l-.116.061c-.077.008-.493-.015-.619.123-.125.138-.59 1.027-.896 1.208-.307.182-.885.62-1.52.439-.633-.182-1.038-.156-1.334-.37-.295-.212-.447-.598-.447-.598s.148-.166.236-.36.584-.812.93-.985c.348-.173 1.224-.445 1.727-.253.504.195.984.636 1.161.713.179.076.603-.028.671-.068l.012-.009-.277-.157c-.23-.158-1.431-1.086-1.732-1.365-.166-.152-.391-.401-.611-.668-.131.018-.377.053-.439.088-.083.05-.729.689-1.129.847-.4.156-1.351.573-1.99.22-.641-.354-1.084-1.003-1.084-1.003s.176-.409.453-.615 1.117-.54 1.471-.537c.356.003.77.001 1.137.146.368.146.99.683 1.071.729.064.036.257-.057.333-.098l-.309-.424c-.289-.439-.668-.991-.774-1.081l-.079-.16-.539-.093-.912.378c-.361.075-.654-.005-1.002.005-.348.007-.79.262-1.592.075-.799-.188-1.589-1.012-1.589-1.012s.134-.035.229-.143c.098-.108.174-.216.338-.457.164-.242.414-.405.938-.714.52-.308 1.324-.045 1.535.033.209.078.558.092.963.377.406.286.889 1.139 1.077 1.26.171.108.444.054.491.042-.031-.128-.066-.264-.119-.373-.119-.246-.586-1.362-.736-1.747-.166-.095-.52-.302-.609-.368-.121-.088-.26-.098-.648.021-.391.117-1.288.188-1.861-.104-.57-.292-1.34-1.264-1.518-1.723-.176-.46-.282-1.227-.282-1.227s.39.012.575.002c.188-.01.656-.137 1.266-.061.608.075 1.365.324 1.844.928.479.605.518 1.811.678 1.985.114.125.344.229.467.28-.112-.452-.299-1.469-.332-1.902l-.068-.878z"/>
</svg>
