<?xml version="1.0" encoding="utf-8"?>
<!-- Generator: Adobe Illustrator 15.1.0, SVG Export Plug-In . SVG Version: 6.00 Build 0)  -->
<!DOCTYPE svg PUBLIC "-//W3C//DTD SVG 1.1//EN" "http://www.w3.org/Graphics/SVG/1.1/DTD/svg11.dtd">
<svg version="1.1" id="Layer_1" xmlns="http://www.w3.org/2000/svg" xmlns:xlink="http://www.w3.org/1999/xlink" x="0px" y="0px"
	 width="16px" height="16px" viewBox="0 0 16 16" enable-background="new 0 0 16 16" xml:space="preserve">
<g>
	<path fill="#FFFFFF" d="M10.063,0c-3.267,0-5.93,2.66-5.93,5.932c0,0.783,0.163,1.525,0.437,2.208L0,12.713L3.285,16l4.574-4.575
		c0.681,0.276,1.423,0.438,2.204,0.438c3.272,0,5.933-2.661,5.933-5.93C15.996,2.66,13.336,0,10.063,0z M10.063,9.863
		c-2.165,0-3.931-1.766-3.931-3.931c0-2.169,1.766-3.935,3.931-3.935C12.234,1.998,14,3.764,14,5.933
		C14,8.098,12.234,9.863,10.063,9.863z"/>
</g>
</svg>
