<svg xmlns="http://www.w3.org/2000/svg" width="24" height="24" viewBox="0 0 24 24">
    <path fill="#fff" d="M19.57 11.754c.121-.124.354-.359.47-.452.162-.127 1.067.013 1.756-.417.687-.431 1.527-1.446 1.752-1.868.228-.422.229-.693.291-1.2l.138-1.044s-.748.117-1.271.248c-.521.131-.892.366-1.198.623-.308.256-.237.036-.615.401-.381.365-.754.996-.938 1.603-.188.608-.077 1.404-.115 1.544-.024.094-.159.236-.248.322l.091-1.201c.037-.569.022-1.187.002-1.552l-.047-.394c.12-.12.508-.5.703-.658.237-.189.932-.154 1.477-.562.52-.389 1.346-1.496 1.197-2.491-.148-.995-.63-1.677-.63-1.677s-1.008.24-1.608.731c-.6.491-1.275 1.584-1.17 2.387.106.802.601 1.127.588 1.389-.012.225-.463.54-.596.627-.021-.144-.035-.271-.025-.362.033-.321-.17-.88-.17-.88s-.213-.477-.245-.627c-.032-.149.075-.487.183-.813.107-.328-.051-.981-.02-1.36.033-.378-.105-1.079-.127-1.253-.02-.172-.266-.767-.357-.908l-.248-.452c-.119-.186-.309-.283-.459-.419-.152-.136-.32-.311-.426-.442-.105-.131-.367-.209-.49-.256-.126-.049-.334-.341-.334-.341s-.011.335-.056.494c-.048.159-.179.253-.248.627-.068.375-.136.69-.144 1.018-.01.327.082 1.018.236 1.359.156.341.375.76.764 1.298.387.538 1.433 1.316 1.545 1.471l.271.795s.116.523.134 1.154l-.05.014c-.097.019-.338-.161-.463-.29-.125-.13-.091-.299-.214-.637-.124-.34-.516-1.161-.997-1.694-.481-.534-1.104-.715-1.681-.787-.574-.072-1.637.353-1.637.353s.105.722.336 1.338c.23.615 1.387 1.32 1.959 1.535.571.214 1.957.038 2.086.059l.506.29.154-.023v.014c-.001.515.129.684.086 1.099-.043.415.029.842-.058 1.146l-.177.494-.158-.095c-.068-.08-.178-.349-.311-.799-.134-.451-.797-1.19-1.218-1.575-.418-.385-1.659-.67-1.973-.567l-1.031.018s.19.802.326 1.147c.133.345.053.508.204.808.148.298.234.421.695.817.463.398 1.123.546 1.653.508.532-.039 1.419-.193 1.589-.168.172.024.223.103.223.103l.012-.022c.052.152.074.415.059.682-.021.284-.064 1.006-.193 1.567-.131.561-.291 1.403-.406 1.514l-.227.191v.002l-.135-.146c-.105-.178-.021-.57-.182-1.379-.161-.807-1.122-1.741-1.809-2.085-.686-.342-2.049-.361-2.049-.361s.117.771.203.98c.088.211.014.364.209.947.198.584.828 1.139 1.537 1.576s1.865.331 1.967.438l.213.234c-.031.178-.078.419-.158.549-.123.201-.397 1.068-.857 1.665-.225.289-.384.515-.49.668-.055-.052-.326-.309-.419-.448-.104-.156.232-.793.171-1.586-.063-.795-.486-1.182-1.041-1.662l-1.791-.434s-.113.491-.146 1.1c-.031.607.368 1.316.897 1.804.529.485 1.438.475 1.721.819.142.17.512.537.517.543l-.073.114s-.184.351-.43.606c-.18.187-.835.775-1.413 1.199-.06-.098-.144-.25-.176-.357-.056-.172.241-.371.183-1.529-.054-1.021-1.23-1.666-1.552-1.883-.317-.217-.767-.561-.767-.561s-.788 1.392.043 2.807c.459.786 1.869 1.1 1.94 1.229l.177.403c-.16.112-.312.208-.438.272l-1.161.638c-.479.224-.589.116-1.36.599-.773.479-1.834 1.313-1.939 1.449 0 0 .135.413.199.492.065.08.129.038.178-.003.051-.042-.02-.216.107-.323.129-.107 1.078-.945 1.386-1.156.31-.211.792-.484 1.159-.623.238-.09.728-.312 1.107-.502l.116.061c.077.008.493-.016.619.123.125.138.59 1.027.896 1.208.307.182.885.62 1.521.438.633-.182 1.038-.156 1.334-.369.295-.213.446-.599.446-.599s-.147-.166-.235-.36c-.088-.193-.584-.812-.931-.984-.348-.174-1.224-.445-1.727-.253-.504.194-.984.636-1.16.713-.18.075-.604-.028-.672-.068l-.012-.009.277-.157c.229-.157 1.431-1.086 1.731-1.364.166-.152.392-.401.611-.668.131.018.377.053.438.088.084.05.729.688 1.129.847.4.155 1.352.573 1.99.22.641-.354 1.084-1.003 1.084-1.003s-.176-.409-.453-.614c-.277-.207-1.117-.541-1.471-.537-.355.002-.77 0-1.137.146-.368.146-.99.683-1.071.729-.063.035-.257-.058-.333-.099l.309-.424c.289-.438.668-.991.774-1.081l.079-.16.539-.093.912.378c.361.075.654-.005 1.002.005.348.007.789.263 1.592.075.799-.188 1.589-1.012 1.589-1.012s-.134-.035-.229-.144c-.098-.108-.174-.216-.338-.457s-.414-.405-.938-.714c-.52-.309-1.324-.045-1.535.033-.209.078-.558.092-.963.377-.406.286-.889 1.139-1.077 1.26-.171.108-.444.055-.491.042.031-.128.066-.264.119-.373.119-.245.586-1.362.736-1.747.166-.095.52-.302.609-.367.121-.088.26-.099.647.021.388.118 1.284.188 1.856-.103.57-.293 1.343-1.265 1.519-1.724.189-.465.294-1.232.294-1.232s-.391.012-.575.002c-.188-.01-.655-.137-1.266-.061-.608.075-1.365.324-1.845.928-.479.605-.518 1.811-.678 1.985-.113.125-.344.229-.467.28.112-.452.299-1.47.332-1.902l.069-.878zM4.43 11.754c-.122-.124-.354-.359-.47-.452-.162-.127-1.068.013-1.756-.417-.686-.431-1.527-1.446-1.752-1.868-.227-.422-.229-.693-.291-1.2l-.138-1.045s.749.117 1.272.248c.521.131.891.366 1.198.623.308.256.236.036.617.401.379.365.752.996.938 1.602.188.608.077 1.404.115 1.544.025.094.16.236.248.322l-.09-1.201c-.038-.569-.023-1.186-.002-1.551l.047-.394c-.121-.12-.508-.5-.704-.658-.237-.188-.932-.153-1.475-.561-.52-.389-1.346-1.496-1.197-2.491.148-.995.629-1.677.629-1.677s1.01.24 1.609.731 1.275 1.584 1.17 2.387c-.108.802-.601 1.127-.588 1.389.012.225.463.54.596.627.019-.143.034-.271.025-.362-.033-.321.17-.88.17-.88s.213-.477.245-.627c.032-.15-.076-.487-.183-.814-.107-.328.051-.981.019-1.36-.033-.379.106-1.079.128-1.254.018-.172.265-.766.357-.907l.246-.452c.119-.186.309-.283.459-.419.152-.136.321-.311.426-.442.105-.131.367-.209.49-.256.123-.048.331-.34.331-.34s.011.335.056.494c.047.159.178.253.248.627.068.375.135.69.143 1.018.01.327-.082 1.018-.236 1.359-.156.341-.375.76-.764 1.298-.387.538-1.432 1.317-1.545 1.471l-.27.795s-.116.523-.134 1.154l.05.014c.096.019.338-.161.463-.29.125-.13.09-.299.214-.637.124-.34.516-1.161.997-1.694.482-.534 1.105-.715 1.68-.787.575-.072 1.636.352 1.636.352s-.103.722-.335 1.339c-.231.615-1.388 1.32-1.96 1.535-.571.213-1.957.037-2.086.058l-.506.29-.154-.023v.014c.001.515-.129.684-.086 1.099.043.415-.029.842.058 1.146l.177.494.158-.095c.068-.08.178-.349.31-.799.134-.451.797-1.19 1.218-1.575.418-.385 1.66-.67 1.973-.567l1.031.018s-.192.801-.327 1.146c-.133.346-.053.509-.204.808-.149.298-.234.421-.696.817-.463.398-1.123.546-1.653.508-.532-.039-1.419-.193-1.589-.168-.172.024-.222.104-.222.104l-.012-.023c-.052.152-.075.415-.058.682.02.284.064 1.006.193 1.567.131.561.291 1.403.406 1.514l.227.191v.002l.134-.146c.105-.178.021-.57.182-1.379.161-.807 1.122-1.741 1.808-2.085.686-.342 2.049-.361 2.049-.361s-.117.771-.203.98c-.088.211-.014.364-.209.947-.198.584-.828 1.139-1.537 1.576s-1.863.331-1.966.438l-.214.234c.032.177.078.419.158.549.123.201.398 1.068.858 1.665.224.289.384.515.491.668.054-.052.326-.309.418-.448.104-.156-.232-.793-.17-1.586.063-.796.486-1.182 1.041-1.662l1.791-.434s.113.491.145 1.1c.031.607-.369 1.316-.897 1.804-.53.485-1.438.475-1.722.819-.141.17-.511.537-.516.543l.074.114s.183.351.429.606c.179.187.837.775 1.413 1.199.059-.098.143-.25.176-.357.055-.172-.241-.371-.182-1.529.053-1.021 1.23-1.666 1.551-1.883.318-.217.766-.561.766-.561s.788 1.392-.043 2.807c-.459.786-1.869 1.1-1.94 1.229l-.177.403c.16.112.312.208.439.272l1.161.638c.479.224.589.116 1.36.599.773.479 1.833 1.313 1.939 1.449 0 0-.135.413-.199.492-.064.08-.129.038-.178-.003-.051-.042.02-.216-.107-.323-.129-.107-1.078-.945-1.386-1.156-.31-.212-.792-.484-1.16-.623-.237-.09-.727-.312-1.107-.502l-.116.061c-.077.008-.493-.016-.619.123-.125.138-.59 1.027-.896 1.208-.307.182-.885.62-1.52.438-.633-.182-1.038-.156-1.334-.369-.295-.214-.447-.6-.447-.6s.148-.166.236-.36c.088-.193.584-.812.93-.984.348-.174 1.224-.445 1.727-.254.504.195.984.637 1.161.714.179.075.603-.028.671-.068l.012-.009-.277-.157c-.23-.157-1.431-1.086-1.732-1.364-.166-.152-.391-.401-.611-.668-.131.018-.377.053-.439.088-.083.049-.729.688-1.129.847-.4.155-1.351.573-1.99.22-.641-.354-1.084-1.003-1.084-1.003s.176-.409.453-.615c.277-.206 1.117-.54 1.471-.536.356.002.77 0 1.137.146.368.146.99.683 1.071.729.064.035.257-.058.333-.099l-.309-.424c-.289-.44-.668-.993-.774-1.083l-.079-.16-.539-.093-.912.378c-.361.075-.654-.005-1.002.005-.348.007-.79.263-1.592.075-.799-.188-1.589-1.012-1.589-1.012s.134-.035.229-.144c.098-.108.174-.216.338-.457s.414-.405.938-.714c.52-.309 1.324-.045 1.535.033.209.078.558.092.963.377.406.286.889 1.139 1.077 1.26.171.107.444.055.491.042-.031-.128-.066-.264-.119-.373-.119-.246-.586-1.362-.736-1.747-.166-.095-.52-.302-.609-.367-.121-.089-.26-.099-.648.021-.391.116-1.288.189-1.861-.104-.57-.291-1.34-1.264-1.518-1.723-.176-.46-.282-1.227-.282-1.227s.39.012.575.002c.188-.01.656-.137 1.266-.061.608.075 1.365.324 1.844.928.479.605.518 1.811.678 1.985.114.125.344.229.467.28-.112-.452-.299-1.47-.332-1.902l-.068-.878z"/>
</svg>
