<?xml version="1.0" encoding="utf-8"?>
<!-- Generator: Adobe Illustrator 15.0.0, SVG Export Plug-In . SVG Version: 6.00 Build 0)  -->
<!DOCTYPE svg PUBLIC "-//W3C//DTD SVG 1.1//EN" "http://www.w3.org/Graphics/SVG/1.1/DTD/svg11.dtd">
<svg version="1.1" id="Layer_1" xmlns="http://www.w3.org/2000/svg" xmlns:xlink="http://www.w3.org/1999/xlink" x="0px" y="0px"
	 width="20.076px" height="20.074px" viewBox="0 0 20.076 20.074" enable-background="new 0 0 20.076 20.074" xml:space="preserve">
<path fill="#FFFFFF" d="M16.366,9.83c0.102-0.104,0.296-0.3,0.393-0.378c0.136-0.106,0.893,0.011,1.468-0.349
	c0.576-0.36,1.279-1.209,1.466-1.562c0.191-0.354,0.191-0.58,0.243-1.005l0.116-0.872c0,0-0.627,0.097-1.063,0.207
	c-0.435,0.109-0.744,0.306-1,0.522c-0.258,0.214-0.199,0.03-0.516,0.335c-0.319,0.305-0.631,0.833-0.783,1.34
	c-0.157,0.508-0.065,1.173-0.098,1.292c-0.02,0.078-0.131,0.197-0.207,0.27l0.076-1.004c0.03-0.476,0.019-0.992,0.002-1.299
	l-0.04-0.328c0.1-0.1,0.426-0.419,0.589-0.551c0.198-0.159,0.78-0.128,1.235-0.471c0.434-0.326,1.125-1.252,1.001-2.083
	c-0.125-0.831-0.528-1.403-0.528-1.403s-0.843,0.201-1.344,0.611s-1.066,1.326-0.979,1.996c0.087,0.671,0.502,0.943,0.491,1.162
	c-0.01,0.188-0.388,0.451-0.499,0.524c-0.019-0.121-0.028-0.228-0.021-0.303c0.026-0.269-0.143-0.735-0.143-0.735
	s-0.177-0.4-0.205-0.525c-0.026-0.125,0.063-0.407,0.153-0.68c0.09-0.275-0.043-0.82-0.017-1.138
	c0.027-0.316-0.087-0.903-0.106-1.048c-0.018-0.144-0.224-0.641-0.3-0.759l-0.206-0.378c-0.1-0.155-0.259-0.236-0.385-0.351
	c-0.127-0.113-0.268-0.26-0.355-0.369c-0.088-0.11-0.307-0.175-0.411-0.214C14.293,0.245,14.118,0,14.118,0
	s-0.008,0.279-0.047,0.413c-0.04,0.133-0.149,0.212-0.207,0.524c-0.057,0.314-0.115,0.578-0.119,0.853
	c-0.01,0.273,0.068,0.852,0.196,1.136c0.131,0.286,0.313,0.635,0.639,1.085c0.325,0.451,1.199,1.101,1.293,1.231L16.1,5.906
	c0,0,0.097,0.437,0.113,0.964L16.17,6.883c-0.08,0.016-0.281-0.134-0.387-0.243c-0.104-0.109-0.074-0.25-0.178-0.533
	c-0.104-0.284-0.431-0.97-0.834-1.416c-0.402-0.447-0.923-0.598-1.406-0.658c-0.48-0.06-1.371,0.295-1.371,0.295
	s0.087,0.604,0.28,1.118c0.192,0.514,1.161,1.104,1.64,1.284c0.476,0.179,1.637,0.031,1.743,0.05l0.424,0.242l0.127-0.019v0.012
	c0,0.43,0.108,0.573,0.073,0.919c-0.035,0.347,0.026,0.705-0.049,0.959l-0.147,0.412l-0.133-0.078
	c-0.057-0.067-0.148-0.292-0.26-0.669c-0.112-0.376-0.666-0.994-1.019-1.316c-0.35-0.322-1.388-0.561-1.65-0.475l-0.862,0.015
	c0,0,0.16,0.672,0.274,0.96c0.11,0.288,0.045,0.425,0.17,0.675c0.125,0.25,0.196,0.353,0.581,0.683
	c0.387,0.332,0.938,0.456,1.382,0.426c0.446-0.033,1.186-0.163,1.329-0.141c0.145,0.021,0.188,0.086,0.188,0.086l0.01-0.02
	c0.042,0.127,0.062,0.348,0.048,0.57c-0.017,0.237-0.053,0.841-0.161,1.311c-0.109,0.469-0.243,1.174-0.339,1.267l-0.188,0.159
	v0.001l-0.115-0.121c-0.086-0.149-0.018-0.478-0.151-1.154c-0.133-0.676-0.937-1.456-1.513-1.743
	c-0.573-0.285-1.714-0.303-1.714-0.303s0.098,0.646,0.169,0.82c0.075,0.177,0.014,0.304,0.177,0.791
	c0.166,0.488,0.692,0.954,1.284,1.317c0.594,0.365,1.561,0.278,1.646,0.368l0.178,0.193c-0.025,0.151-0.064,0.353-0.132,0.459
	c-0.103,0.169-0.332,0.894-0.716,1.393c-0.188,0.242-0.323,0.43-0.41,0.559c-0.046-0.044-0.274-0.258-0.353-0.375
	c-0.086-0.131,0.194-0.664,0.145-1.325c-0.052-0.666-0.407-0.989-0.87-1.391l-1.499-0.364c0,0-0.094,0.412-0.123,0.921
	c-0.025,0.507,0.308,1.101,0.751,1.51c0.442,0.405,1.202,0.397,1.438,0.686c0.119,0.141,0.429,0.449,0.433,0.454l-0.061,0.094
	c0,0-0.153,0.294-0.359,0.509c-0.149,0.156-0.698,0.646-1.181,1.001c-0.052-0.082-0.12-0.209-0.148-0.299
	c-0.048-0.143,0.203-0.31,0.153-1.278c-0.045-0.854-1.029-1.394-1.298-1.575c-0.265-0.182-0.641-0.471-0.641-0.471
	s-0.659,1.166,0.035,2.349c0.384,0.658,1.564,0.921,1.622,1.029l0.149,0.336c-0.135,0.094-0.263,0.175-0.367,0.228l-0.972,0.537
	c-0.399,0.188-0.492,0.097-1.137,0.501c-0.646,0.401-1.534,1.099-1.622,1.212c0,0,0.113,0.345,0.167,0.411
	c0.055,0.068,0.108,0.032,0.149-0.002c0.043-0.036-0.017-0.179,0.089-0.27c0.108-0.09,0.902-0.791,1.159-0.967
	c0.26-0.178,0.664-0.407,0.97-0.522c0.2-0.074,0.609-0.262,0.927-0.42l0.098,0.051c0.063,0.006,0.411-0.013,0.518,0.103
	c0.104,0.115,0.494,0.859,0.751,1.011c0.256,0.151,0.739,0.518,1.27,0.366c0.531-0.15,0.87-0.13,1.116-0.307
	c0.248-0.179,0.375-0.504,0.375-0.504s-0.125-0.137-0.198-0.3c-0.073-0.162-0.486-0.68-0.777-0.823
	c-0.292-0.145-1.023-0.373-1.445-0.211c-0.421,0.162-0.823,0.53-0.971,0.595c-0.15,0.063-0.505-0.024-0.562-0.058l-0.01-0.007
	l0.232-0.131c0.192-0.131,1.197-0.908,1.447-1.141c0.139-0.125,0.327-0.333,0.511-0.56c0.11,0.016,0.314,0.045,0.366,0.075
	c0.07,0.042,0.611,0.576,0.946,0.709c0.334,0.128,1.131,0.479,1.664,0.183c0.535-0.294,0.906-0.838,0.906-0.838
	s-0.147-0.341-0.378-0.513c-0.23-0.174-0.935-0.454-1.231-0.449c-0.296,0-0.644,0-0.952,0.122c-0.306,0.121-0.826,0.57-0.895,0.609
	c-0.052,0.03-0.215-0.048-0.277-0.081l0.259-0.354c0.241-0.366,0.558-0.83,0.647-0.905l0.066-0.134l0.449-0.077l0.763,0.314
	c0.303,0.064,0.548-0.002,0.839,0.005c0.291,0.006,0.659,0.22,1.332,0.062c0.669-0.157,1.328-0.848,1.328-0.848
	s-0.111-0.028-0.19-0.12c-0.081-0.09-0.146-0.18-0.282-0.382c-0.138-0.202-0.346-0.339-0.785-0.597
	c-0.434-0.258-1.106-0.038-1.283,0.028c-0.175,0.064-0.467,0.075-0.804,0.314c-0.341,0.239-0.745,0.952-0.9,1.054
	c-0.145,0.092-0.373,0.047-0.412,0.036c0.026-0.106,0.055-0.22,0.099-0.312c0.101-0.203,0.49-1.138,0.615-1.461
	c0.14-0.079,0.437-0.253,0.511-0.308c0.1-0.074,0.218-0.082,0.542,0.019c0.323,0.099,1.072,0.155,1.552-0.088
	c0.476-0.244,1.121-1.058,1.27-1.441c0.156-0.388,0.245-1.03,0.245-1.03s-0.327,0.01-0.48,0.002
	c-0.156-0.009-0.549-0.115-1.06-0.051c-0.508,0.062-1.141,0.271-1.541,0.776c-0.4,0.507-0.433,1.514-0.566,1.66
	c-0.096,0.104-0.288,0.191-0.391,0.234c0.093-0.378,0.249-1.229,0.276-1.591L16.366,9.83L16.366,9.83z"/>
<path fill="#FFFFFF" d="M3.705,9.83c-0.102-0.104-0.296-0.3-0.394-0.378c-0.134-0.106-0.892,0.01-1.468-0.35
	C1.27,8.742,0.566,7.894,0.379,7.54c-0.19-0.353-0.191-0.58-0.244-1.004L0.02,5.663c0,0,0.627,0.098,1.063,0.207
	c0.436,0.11,0.746,0.306,1.002,0.522c0.258,0.214,0.197,0.03,0.516,0.335C2.918,7.032,3.23,7.56,3.385,8.067
	C3.542,8.575,3.451,9.24,3.482,9.358c0.021,0.078,0.133,0.197,0.207,0.27L3.614,8.624C3.581,8.147,3.595,7.631,3.611,7.326
	l0.04-0.328c-0.1-0.102-0.425-0.419-0.589-0.552c-0.198-0.158-0.779-0.127-1.233-0.47C1.394,5.651,0.703,4.725,0.828,3.894
	c0.125-0.831,0.526-1.401,0.526-1.401s0.843,0.2,1.344,0.61C3.2,3.512,3.765,4.428,3.678,5.098C3.587,5.769,3.175,6.041,3.187,6.26
	c0.01,0.188,0.388,0.451,0.499,0.524c0.016-0.12,0.028-0.228,0.022-0.303C3.678,6.213,3.848,5.747,3.848,5.747
	s0.178-0.399,0.205-0.525C4.079,5.095,3.988,4.814,3.9,4.541c-0.09-0.275,0.042-0.82,0.015-1.138
	c-0.028-0.317,0.09-0.902,0.108-1.048c0.014-0.144,0.221-0.64,0.297-0.759l0.207-0.377C4.627,1.064,4.786,0.981,4.91,0.868
	c0.127-0.114,0.269-0.26,0.356-0.369c0.088-0.111,0.307-0.175,0.41-0.215C5.779,0.245,5.954,0,5.954,0S5.962,0.279,6,0.413
	c0.041,0.133,0.149,0.212,0.207,0.524C6.264,1.25,6.32,1.514,6.328,1.789C6.336,2.062,6.258,2.641,6.13,2.925
	C6,3.211,5.817,3.561,5.491,4.011C5.168,4.461,4.293,5.112,4.2,5.242L3.974,5.906c0,0-0.097,0.437-0.112,0.964l0.042,0.012
	c0.08,0.016,0.281-0.134,0.386-0.243c0.104-0.109,0.075-0.25,0.179-0.533C4.572,5.823,4.9,5.137,5.302,4.691
	c0.403-0.447,0.925-0.598,1.405-0.658c0.48-0.06,1.369,0.294,1.369,0.294S7.991,4.931,7.795,5.446C7.602,5.96,6.635,6.55,6.157,6.73
	C5.679,6.908,4.521,6.762,4.413,6.779L3.989,7.022L3.861,7.003v0.012c0,0.431-0.107,0.573-0.073,0.919
	c0.037,0.346-0.024,0.705,0.048,0.959l0.149,0.412l0.132-0.078c0.058-0.068,0.149-0.293,0.26-0.67
	C4.489,8.179,5.043,7.562,5.396,7.24c0.35-0.322,1.387-0.561,1.649-0.475l0.862,0.016c0,0-0.16,0.671-0.273,0.958
	C7.523,8.029,7.59,8.165,7.464,8.416c-0.126,0.25-0.196,0.352-0.582,0.682C6.495,9.431,5.943,9.556,5.499,9.524
	C5.054,9.491,4.311,9.361,4.169,9.382C4.027,9.403,3.984,9.47,3.984,9.47l-0.01-0.02C3.931,9.577,3.912,9.797,3.926,10.02
	c0.017,0.239,0.053,0.843,0.161,1.311c0.109,0.469,0.244,1.175,0.339,1.267l0.19,0.16v0.001l0.111-0.123
	c0.089-0.148,0.019-0.477,0.153-1.153c0.134-0.676,0.938-1.456,1.513-1.743c0.573-0.286,1.714-0.303,1.714-0.303
	s-0.098,0.646-0.169,0.819c-0.074,0.177-0.013,0.304-0.176,0.792C7.596,11.536,7.069,12,6.477,12.364
	c-0.593,0.365-1.559,0.277-1.644,0.367l-0.179,0.194c0.027,0.148,0.065,0.353,0.132,0.459c0.103,0.169,0.333,0.894,0.717,1.392
	c0.188,0.242,0.321,0.433,0.411,0.559c0.045-0.043,0.273-0.258,0.349-0.374c0.087-0.131-0.193-0.664-0.143-1.326
	c0.052-0.666,0.407-0.989,0.871-1.39l1.498-0.364c0,0,0.095,0.411,0.121,0.922c0.027,0.511-0.309,1.104-0.749,1.512
	c-0.443,0.405-1.204,0.397-1.44,0.685c-0.118,0.142-0.427,0.449-0.431,0.454l0.062,0.094c0,0,0.153,0.295,0.359,0.509
	c0.15,0.156,0.7,0.646,1.183,1.001c0.05-0.082,0.12-0.209,0.146-0.297c0.046-0.145-0.201-0.312-0.151-1.28
	c0.045-0.853,1.029-1.391,1.297-1.574c0.267-0.182,0.641-0.469,0.641-0.469s0.658,1.163-0.036,2.347
	c-0.384,0.657-1.564,0.921-1.623,1.028l-0.15,0.339c0.134,0.093,0.261,0.175,0.367,0.227l0.972,0.534
	c0.4,0.188,0.492,0.097,1.136,0.501c0.647,0.399,1.534,1.099,1.622,1.212c0,0-0.112,0.345-0.167,0.412
	c-0.053,0.066-0.107,0.031-0.148-0.003c-0.043-0.035,0.018-0.182-0.09-0.271c-0.107-0.088-0.901-0.789-1.158-0.967
	c-0.259-0.177-0.662-0.404-0.971-0.52c-0.198-0.076-0.607-0.263-0.926-0.421l-0.098,0.05c-0.062,0.008-0.41-0.012-0.516,0.104
	c-0.104,0.115-0.494,0.858-0.749,1.01c-0.257,0.152-0.739,0.519-1.271,0.367c-0.529-0.153-0.868-0.13-1.116-0.31
	c-0.247-0.178-0.375-0.501-0.375-0.501s0.124-0.14,0.198-0.303c0.074-0.16,0.487-0.678,0.777-0.821
	c0.291-0.146,1.024-0.372,1.444-0.214C7.07,17.4,7.472,17.77,7.62,17.836c0.15,0.062,0.504-0.025,0.562-0.058l0.01-0.009L7.96,17.64
	c-0.193-0.13-1.197-0.908-1.449-1.14C6.373,16.372,6.183,16.164,6,15.94c-0.11,0.016-0.316,0.044-0.368,0.075
	c-0.068,0.04-0.608,0.575-0.943,0.706c-0.334,0.131-1.131,0.48-1.665,0.185c-0.536-0.295-0.906-0.839-0.906-0.839
	s0.147-0.342,0.379-0.513c0.231-0.174,0.933-0.454,1.229-0.449c0.298,0,0.644,0,0.952,0.121c0.307,0.124,0.827,0.573,0.895,0.609
	c0.053,0.028,0.216-0.048,0.278-0.081L5.594,15.4c-0.243-0.369-0.558-0.832-0.648-0.907L4.88,14.359L4.43,14.281l-0.763,0.315
	c-0.303,0.064-0.547-0.002-0.837,0.005c-0.29,0.005-0.661,0.219-1.332,0.062c-0.668-0.157-1.329-0.846-1.329-0.846
	s0.111-0.03,0.191-0.122c0.082-0.089,0.146-0.18,0.282-0.382c0.137-0.201,0.346-0.337,0.785-0.597
	c0.434-0.259,1.107-0.038,1.284,0.028c0.175,0.063,0.466,0.075,0.805,0.314c0.339,0.24,0.744,0.952,0.901,1.055
	c0.143,0.089,0.372,0.047,0.41,0.035c-0.025-0.106-0.056-0.222-0.101-0.312c-0.099-0.205-0.49-1.138-0.615-1.461
	c-0.139-0.079-0.434-0.253-0.509-0.307c-0.101-0.073-0.217-0.082-0.541,0.019c-0.327,0.097-1.077,0.157-1.556-0.088
	c-0.477-0.244-1.121-1.058-1.27-1.44C0.089,10.176,0,9.533,0,9.533s0.327,0.01,0.48,0.002C0.638,9.526,1.029,9.42,1.54,9.484
	c0.508,0.062,1.141,0.271,1.542,0.776c0.401,0.507,0.434,1.514,0.568,1.66c0.096,0.104,0.288,0.191,0.391,0.234
	c-0.095-0.378-0.251-1.229-0.278-1.591L3.705,9.83z"/>
</svg>
