<svg xmlns="http://www.w3.org/2000/svg" width="20.076" height="20.074" viewBox="0 0 20.076 20.074">
    <path fill="#fff" d="M16.366 9.83c.102-.104.296-.3.393-.378.136-.106.893.011 1.468-.349.576-.36 1.279-1.209 1.466-1.562.191-.354.191-.58.243-1.005l.116-.872s-.627.097-1.063.207c-.435.109-.744.306-1 .522-.258.214-.199.03-.516.335-.319.305-.631.833-.783 1.34-.157.508-.065 1.173-.098 1.292-.02.078-.131.197-.207.27l.076-1.004c.03-.476.019-.992.002-1.299l-.04-.328c.1-.1.426-.419.589-.551.198-.159.78-.128 1.235-.471.434-.326 1.125-1.252 1.001-2.083-.125-.831-.528-1.403-.528-1.403s-.843.201-1.344.611-1.066 1.326-.979 1.996c.087.671.502.943.491 1.162-.01.188-.388.451-.499.524l-.021-.303c.026-.269-.143-.735-.143-.735s-.177-.4-.205-.525c-.026-.125.063-.407.153-.68.09-.275-.043-.82-.017-1.138.027-.316-.087-.903-.106-1.048-.018-.144-.224-.641-.3-.759l-.206-.378c-.1-.155-.259-.236-.385-.351-.127-.113-.268-.26-.355-.369-.088-.11-.307-.175-.411-.214-.1-.039-.275-.284-.275-.284s-.008.279-.047.413c-.04.133-.149.212-.207.524-.057.314-.115.578-.119.853-.01.273.068.852.196 1.136.131.286.313.635.639 1.085.325.451 1.199 1.101 1.293 1.231l.227.664s.097.437.113.964l-.043.013c-.08.016-.281-.134-.387-.243-.104-.109-.074-.25-.178-.533-.104-.284-.431-.97-.834-1.416-.402-.447-.923-.598-1.406-.658-.48-.06-1.371.295-1.371.295s.087.604.28 1.118c.192.514 1.161 1.104 1.64 1.284.476.179 1.637.031 1.743.05l.424.242.127-.019v.012c0 .43.108.573.073.919-.035.347.026.705-.049.959l-.147.412-.133-.078c-.057-.067-.148-.292-.26-.669-.112-.376-.666-.994-1.019-1.316-.35-.322-1.388-.561-1.65-.475l-.862.015s.16.672.274.96c.11.288.045.425.17.675.125.25.196.353.581.683.387.332.938.456 1.382.426.446-.033 1.186-.163 1.329-.141.145.021.188.086.188.086l.01-.02c.042.127.062.348.048.57-.017.237-.053.841-.161 1.311-.109.469-.243 1.174-.339 1.267l-.188.159v.001l-.115-.121c-.086-.149-.018-.478-.151-1.154-.133-.676-.937-1.456-1.513-1.743-.573-.285-1.714-.303-1.714-.303s.098.646.169.82c.075.177.014.304.177.791.166.488.692.954 1.284 1.317.594.365 1.561.278 1.646.368l.178.193c-.025.151-.064.353-.132.459-.103.169-.332.894-.716 1.393-.188.242-.323.43-.41.559-.046-.044-.274-.258-.353-.375-.086-.131.194-.664.145-1.325-.052-.666-.407-.989-.87-1.391l-1.499-.364s-.094.412-.123.921c-.025.507.308 1.101.751 1.51.442.405 1.202.397 1.438.686.119.141.429.449.433.454l-.061.094s-.153.294-.359.509c-.149.156-.698.646-1.181 1.001-.052-.082-.12-.209-.148-.299-.048-.143.203-.31.153-1.278-.045-.854-1.029-1.394-1.298-1.575-.265-.182-.641-.471-.641-.471s-.659 1.166.035 2.349c.384.658 1.564.921 1.622 1.029l.149.336c-.135.094-.263.175-.367.228l-.972.537c-.399.188-.492.097-1.137.501-.646.401-1.534 1.099-1.622 1.212 0 0 .113.345.167.411.055.068.108.032.149-.002.043-.036-.017-.179.089-.27.108-.09.902-.791 1.159-.967.26-.178.664-.407.97-.522.2-.074.609-.262.927-.42l.098.051c.063.006.411-.013.518.103.104.115.494.859.751 1.011.256.151.739.518 1.27.366.531-.15.87-.13 1.116-.307.248-.179.375-.504.375-.504s-.125-.137-.198-.3c-.073-.162-.486-.68-.777-.823-.292-.145-1.023-.373-1.445-.211-.421.162-.823.53-.971.595-.15.063-.505-.024-.562-.058l-.01-.007.232-.131c.192-.131 1.197-.908 1.447-1.141.139-.125.327-.333.511-.56.11.016.314.045.366.075.07.042.611.576.946.709.334.128 1.131.479 1.664.183.535-.294.906-.838.906-.838s-.147-.341-.378-.513c-.23-.174-.935-.454-1.231-.449-.296 0-.644 0-.952.122-.306.121-.826.57-.895.609-.052.03-.215-.048-.277-.081l.259-.354c.241-.366.558-.83.647-.905l.066-.134.449-.077.763.314c.303.064.548-.002.839.005.291.006.659.22 1.332.062.669-.157 1.328-.848 1.328-.848s-.111-.028-.19-.12c-.081-.09-.146-.18-.282-.382-.138-.202-.346-.339-.785-.597-.434-.258-1.106-.038-1.283.028-.175.064-.467.075-.804.314-.341.239-.745.952-.9 1.054-.145.092-.373.047-.412.036l.099-.312c.101-.203.49-1.138.615-1.461.14-.079.437-.253.511-.308.1-.074.218-.082.542.019.323.099 1.072.155 1.552-.088.476-.244 1.121-1.058 1.27-1.441.156-.388.245-1.03.245-1.03l-.48.002c-.156-.009-.549-.115-1.06-.051-.508.062-1.141.271-1.541.776-.4.507-.433 1.514-.566 1.66-.096.104-.288.191-.391.234.093-.378.249-1.229.276-1.591l.049-.733zM3.705 9.83c-.102-.104-.296-.3-.394-.378-.134-.106-.892.01-1.468-.35-.573-.36-1.277-1.208-1.464-1.562-.19-.353-.191-.58-.244-1.004l-.115-.873s.627.098 1.063.207c.436.11.746.306 1.002.522.258.214.197.03.516.335.317.305.629.833.784 1.34.157.508.066 1.173.097 1.291.021.078.133.197.207.27l-.075-1.004c-.033-.477-.019-.993-.003-1.298l.04-.328c-.1-.102-.425-.419-.589-.552-.198-.158-.779-.127-1.233-.47-.435-.325-1.126-1.251-1.001-2.082s.526-1.401.526-1.401.843.2 1.344.61c.502.409 1.067 1.325.98 1.995-.091.671-.503.943-.491 1.162.01.188.388.451.499.524l.022-.303c-.03-.268.14-.734.14-.734s.178-.399.205-.525c.026-.127-.065-.408-.153-.681-.09-.275.042-.82.015-1.138-.028-.317.09-.902.108-1.048.014-.144.221-.64.297-.759l.207-.377c.1-.155.259-.238.383-.351.127-.114.269-.26.356-.369.088-.111.307-.175.41-.215.103-.039.278-.284.278-.284s.008.279.046.413c.041.133.149.212.207.524.057.313.113.577.121.852.008.273-.07.852-.198 1.136-.13.286-.313.636-.639 1.086-.323.45-1.198 1.101-1.291 1.231l-.226.664s-.097.437-.112.964l.042.012c.08.016.281-.134.386-.243.104-.109.075-.25.179-.533.103-.283.431-.969.833-1.415.403-.447.925-.598 1.405-.658.48-.06 1.369.294 1.369.294s-.085.604-.281 1.119c-.193.514-1.16 1.104-1.638 1.284-.478.178-1.636.032-1.744.049l-.424.243-.128-.019v.012c0 .431-.107.573-.073.919.037.346-.024.705.048.959l.149.412.132-.078c.058-.068.149-.293.26-.67.112-.378.666-.995 1.019-1.317.35-.322 1.387-.561 1.649-.475l.862.016s-.16.671-.273.958c-.111.29-.044.426-.17.677-.126.25-.196.352-.582.682-.387.333-.939.458-1.383.426-.445-.033-1.188-.163-1.33-.142-.142.021-.185.088-.185.088l-.01-.02c-.043.127-.062.347-.048.57.017.239.053.843.161 1.311.109.469.244 1.175.339 1.267l.19.16v.001l.111-.123c.089-.148.019-.477.153-1.153s.938-1.456 1.513-1.743c.573-.286 1.714-.303 1.714-.303s-.098.646-.169.819c-.074.177-.013.304-.176.792-.166.488-.693.952-1.285 1.316-.593.365-1.559.277-1.644.367l-.179.194c.027.148.065.353.132.459.103.169.333.894.717 1.392.188.242.321.433.411.559.045-.043.273-.258.349-.374.087-.131-.193-.664-.143-1.326.052-.666.407-.989.871-1.39l1.498-.364s.095.411.121.922c.027.511-.309 1.104-.749 1.512-.443.405-1.204.397-1.44.685-.118.142-.427.449-.431.454l.062.094s.153.295.359.509c.15.156.7.646 1.183 1.001.05-.082.12-.209.146-.297.046-.145-.201-.312-.151-1.28.045-.853 1.029-1.391 1.297-1.574.267-.182.641-.469.641-.469s.658 1.163-.036 2.347c-.384.657-1.564.921-1.623 1.028l-.15.339c.134.093.261.175.367.227l.972.534c.4.188.492.097 1.136.501.647.399 1.534 1.099 1.622 1.212 0 0-.112.345-.167.412-.053.066-.107.031-.148-.003-.043-.035.018-.182-.09-.271-.107-.088-.901-.789-1.158-.967-.259-.177-.662-.404-.971-.52-.198-.076-.607-.263-.926-.421l-.098.05c-.062.008-.41-.012-.516.104-.104.115-.494.858-.749 1.01-.257.152-.739.519-1.271.367-.529-.153-.868-.13-1.116-.31-.247-.178-.375-.501-.375-.501s.124-.14.198-.303c.074-.16.487-.678.777-.821.291-.146 1.024-.372 1.444-.214.421.162.823.532.971.598.15.062.504-.025.562-.058l.01-.009-.232-.129c-.193-.13-1.197-.908-1.449-1.14-.138-.128-.328-.336-.511-.56-.11.016-.316.044-.368.075-.068.04-.608.575-.943.706-.334.131-1.131.48-1.665.185-.536-.295-.906-.839-.906-.839s.147-.342.379-.513c.231-.174.933-.454 1.229-.449.298 0 .644 0 .952.121.307.124.827.573.895.609.053.028.216-.048.278-.081l-.257-.354c-.243-.369-.558-.832-.648-.907l-.066-.134-.45-.078-.763.315c-.303.064-.547-.002-.837.005-.29.005-.661.219-1.332.062-.668-.157-1.329-.846-1.329-.846s.111-.03.191-.122c.082-.089.146-.18.282-.382.137-.201.346-.337.785-.597.434-.259 1.107-.038 1.284.028.175.063.466.075.805.314.339.24.744.952.901 1.055.143.089.372.047.41.035-.025-.106-.056-.222-.101-.312-.099-.205-.49-1.138-.615-1.461-.139-.079-.434-.253-.509-.307-.101-.073-.217-.082-.541.019-.327.097-1.077.157-1.556-.088-.477-.244-1.121-1.058-1.27-1.44-.146-.383-.235-1.026-.235-1.026l.48.002c.158-.009.549-.115 1.06-.051.508.062 1.141.271 1.542.776.401.507.434 1.514.568 1.66.096.104.288.191.391.234-.095-.378-.251-1.229-.278-1.591l-.058-.733z"/>
</svg>
