<?xml version="1.0" encoding="utf-8"?>
<!-- Generator: Adobe Illustrator 15.0.0, SVG Export Plug-In . SVG Version: 6.00 Build 0)  -->
<!DOCTYPE svg PUBLIC "-//W3C//DTD SVG 1.1//EN" "http://www.w3.org/Graphics/SVG/1.1/DTD/svg11.dtd">
<svg version="1.1" id="Layer_1" xmlns="http://www.w3.org/2000/svg" xmlns:xlink="http://www.w3.org/1999/xlink" x="0px" y="0px"
	 width="24px" height="24px" viewBox="0 0 24 24" enable-background="new 0 0 24 24" xml:space="preserve">
<path fill="#FFFFFF" d="M19.57,11.754c0.121-0.124,0.354-0.359,0.47-0.452c0.162-0.127,1.067,0.013,1.756-0.417
	c0.687-0.431,1.527-1.446,1.752-1.868c0.228-0.422,0.229-0.693,0.291-1.2l0.138-1.044c0,0-0.748,0.117-1.271,0.248
	c-0.521,0.131-0.892,0.366-1.198,0.623C21.2,7.9,21.271,7.68,20.893,8.045c-0.381,0.365-0.754,0.996-0.938,1.603
	c-0.188,0.608-0.077,1.404-0.115,1.544c-0.024,0.094-0.159,0.236-0.248,0.322l0.091-1.201c0.037-0.569,0.022-1.187,0.002-1.552
	l-0.047-0.394c0.12-0.12,0.508-0.5,0.703-0.658c0.237-0.189,0.932-0.154,1.477-0.562c0.52-0.389,1.346-1.496,1.197-2.491
	c-0.148-0.995-0.63-1.677-0.63-1.677s-1.008,0.24-1.608,0.731c-0.6,0.491-1.275,1.584-1.17,2.387
	c0.106,0.802,0.601,1.127,0.588,1.389c-0.012,0.225-0.463,0.54-0.596,0.627c-0.021-0.144-0.035-0.271-0.025-0.362
	c0.033-0.321-0.17-0.88-0.17-0.88s-0.213-0.477-0.245-0.627c-0.032-0.149,0.075-0.487,0.183-0.813
	c0.107-0.328-0.051-0.981-0.02-1.36c0.033-0.378-0.105-1.079-0.127-1.253c-0.02-0.172-0.266-0.767-0.357-0.908L18.59,1.458
	c-0.119-0.186-0.309-0.283-0.459-0.419c-0.152-0.136-0.32-0.311-0.426-0.442c-0.105-0.131-0.367-0.209-0.49-0.256
	C17.089,0.292,16.881,0,16.881,0s-0.011,0.335-0.056,0.494c-0.048,0.159-0.179,0.253-0.248,0.627
	c-0.068,0.375-0.136,0.69-0.144,1.018c-0.01,0.327,0.082,1.018,0.236,1.359c0.156,0.341,0.375,0.76,0.764,1.298
	c0.387,0.538,1.433,1.316,1.545,1.471l0.271,0.795c0,0,0.116,0.523,0.134,1.154l-0.05,0.014c-0.097,0.019-0.338-0.161-0.463-0.29
	c-0.125-0.13-0.091-0.299-0.214-0.637c-0.124-0.34-0.516-1.161-0.997-1.694c-0.481-0.534-1.104-0.715-1.681-0.787
	c-0.574-0.072-1.637,0.353-1.637,0.353s0.105,0.722,0.336,1.338c0.23,0.615,1.387,1.32,1.959,1.535
	c0.571,0.214,1.957,0.038,2.086,0.059l0.506,0.29l0.154-0.023v0.014c-0.001,0.515,0.129,0.684,0.086,1.099
	c-0.043,0.415,0.029,0.842-0.058,1.146l-0.177,0.494l-0.158-0.095c-0.068-0.08-0.178-0.349-0.311-0.799
	c-0.134-0.451-0.797-1.19-1.218-1.575c-0.418-0.385-1.659-0.67-1.973-0.567l-1.031,0.018c0,0,0.19,0.802,0.326,1.147
	c0.133,0.345,0.053,0.508,0.204,0.808c0.148,0.298,0.234,0.421,0.695,0.817c0.463,0.398,1.123,0.546,1.653,0.508
	c0.532-0.039,1.419-0.193,1.589-0.168c0.172,0.024,0.223,0.103,0.223,0.103l0.012-0.022c0.052,0.152,0.074,0.415,0.059,0.682
	c-0.021,0.284-0.064,1.006-0.193,1.567c-0.131,0.561-0.291,1.403-0.406,1.514l-0.227,0.191v0.002l-0.135-0.146
	c-0.105-0.178-0.021-0.57-0.182-1.379c-0.161-0.807-1.122-1.741-1.809-2.085c-0.686-0.342-2.049-0.361-2.049-0.361
	s0.117,0.771,0.203,0.98c0.088,0.211,0.014,0.364,0.209,0.947c0.198,0.584,0.828,1.139,1.537,1.576s1.865,0.331,1.967,0.438
	l0.213,0.234c-0.031,0.178-0.078,0.419-0.158,0.549c-0.123,0.201-0.397,1.068-0.857,1.665c-0.225,0.289-0.384,0.515-0.49,0.668
	c-0.055-0.052-0.326-0.309-0.419-0.448c-0.104-0.156,0.232-0.793,0.171-1.586c-0.063-0.795-0.486-1.182-1.041-1.662l-1.791-0.434
	c0,0-0.113,0.491-0.146,1.1c-0.031,0.607,0.368,1.316,0.897,1.804c0.529,0.485,1.438,0.475,1.721,0.819
	c0.142,0.17,0.512,0.537,0.517,0.543l-0.073,0.114c0,0-0.184,0.351-0.43,0.606c-0.18,0.187-0.835,0.775-1.413,1.199
	c-0.06-0.098-0.144-0.25-0.176-0.357c-0.056-0.172,0.241-0.371,0.183-1.529c-0.054-1.021-1.23-1.666-1.552-1.883
	c-0.317-0.217-0.767-0.561-0.767-0.561s-0.788,1.392,0.043,2.807c0.459,0.786,1.869,1.1,1.94,1.229l0.177,0.403
	c-0.16,0.112-0.312,0.208-0.438,0.272l-1.161,0.638c-0.479,0.224-0.589,0.116-1.36,0.599c-0.773,0.479-1.834,1.313-1.939,1.449
	c0,0,0.135,0.413,0.199,0.492c0.065,0.08,0.129,0.038,0.178-0.003c0.051-0.042-0.02-0.216,0.107-0.323
	c0.129-0.107,1.078-0.945,1.386-1.156c0.31-0.211,0.792-0.484,1.159-0.623c0.238-0.09,0.728-0.312,1.107-0.502l0.116,0.061
	c0.077,0.008,0.493-0.016,0.619,0.123c0.125,0.138,0.59,1.027,0.896,1.208c0.307,0.182,0.885,0.62,1.521,0.438
	c0.633-0.182,1.038-0.156,1.334-0.369c0.295-0.213,0.446-0.599,0.446-0.599s-0.147-0.166-0.235-0.36
	c-0.088-0.193-0.584-0.812-0.931-0.984c-0.348-0.174-1.224-0.445-1.727-0.253c-0.504,0.194-0.984,0.636-1.16,0.713
	c-0.18,0.075-0.604-0.028-0.672-0.068l-0.012-0.009l0.277-0.157c0.229-0.157,1.431-1.086,1.731-1.364
	c0.166-0.152,0.392-0.401,0.611-0.668c0.131,0.018,0.377,0.053,0.438,0.088c0.084,0.05,0.729,0.688,1.129,0.847
	c0.4,0.155,1.352,0.573,1.99,0.22c0.641-0.354,1.084-1.003,1.084-1.003s-0.176-0.409-0.453-0.614
	c-0.277-0.207-1.117-0.541-1.471-0.537c-0.355,0.002-0.77,0-1.137,0.146c-0.368,0.146-0.99,0.683-1.071,0.729
	c-0.063,0.035-0.257-0.058-0.333-0.099l0.309-0.424c0.289-0.438,0.668-0.991,0.774-1.081l0.079-0.16l0.539-0.093l0.912,0.378
	c0.361,0.075,0.654-0.005,1.002,0.005c0.348,0.007,0.789,0.263,1.592,0.075c0.799-0.188,1.589-1.012,1.589-1.012
	s-0.134-0.035-0.229-0.144c-0.098-0.108-0.174-0.216-0.338-0.457s-0.414-0.405-0.938-0.714c-0.52-0.309-1.324-0.045-1.535,0.033
	c-0.209,0.078-0.558,0.092-0.963,0.377c-0.406,0.286-0.889,1.139-1.077,1.26c-0.171,0.108-0.444,0.055-0.491,0.042
	c0.031-0.128,0.066-0.264,0.119-0.373c0.119-0.245,0.586-1.362,0.736-1.747c0.166-0.095,0.52-0.302,0.609-0.367
	c0.121-0.088,0.26-0.099,0.647,0.021c0.388,0.118,1.284,0.188,1.856-0.103c0.57-0.293,1.343-1.265,1.519-1.724
	C23.895,12.167,24,11.4,24,11.4s-0.391,0.012-0.575,0.002c-0.188-0.01-0.655-0.137-1.266-0.061
	c-0.608,0.075-1.365,0.324-1.845,0.928c-0.479,0.605-0.518,1.811-0.678,1.985c-0.113,0.125-0.344,0.229-0.467,0.28
	c0.112-0.452,0.299-1.47,0.332-1.902L19.57,11.754L19.57,11.754z"/>
<path fill="#FFFFFF" d="M4.43,11.754c-0.122-0.124-0.354-0.359-0.47-0.452c-0.162-0.127-1.068,0.013-1.756-0.417
	c-0.686-0.431-1.527-1.446-1.752-1.868c-0.227-0.422-0.229-0.693-0.291-1.2L0.023,6.772c0,0,0.749,0.117,1.272,0.248
	c0.521,0.131,0.891,0.366,1.198,0.623C2.801,7.899,2.729,7.679,3.11,8.044C3.489,8.409,3.862,9.04,4.048,9.646
	c0.188,0.608,0.077,1.404,0.115,1.544c0.025,0.094,0.16,0.236,0.248,0.322l-0.09-1.201C4.283,9.742,4.298,9.125,4.319,8.76
	l0.047-0.394c-0.121-0.12-0.508-0.5-0.704-0.658C3.425,7.52,2.73,7.555,2.187,7.147C1.667,6.758,0.841,5.651,0.99,4.656
	c0.148-0.995,0.629-1.677,0.629-1.677s1.01,0.24,1.609,0.731s1.275,1.584,1.17,2.387C4.29,6.899,3.797,7.224,3.81,7.486
	c0.012,0.225,0.463,0.54,0.596,0.627C4.425,7.97,4.44,7.842,4.431,7.751c-0.033-0.321,0.17-0.88,0.17-0.88s0.213-0.477,0.245-0.627
	C4.878,6.094,4.77,5.757,4.663,5.43C4.556,5.102,4.714,4.449,4.682,4.07C4.649,3.691,4.788,2.991,4.81,2.816
	C4.828,2.644,5.075,2.05,5.167,1.909l0.246-0.452c0.119-0.186,0.309-0.283,0.459-0.419c0.152-0.136,0.321-0.311,0.426-0.442
	c0.105-0.131,0.367-0.209,0.49-0.256C6.911,0.292,7.119,0,7.119,0S7.13,0.335,7.175,0.494c0.047,0.159,0.178,0.253,0.248,0.627
	c0.068,0.375,0.135,0.69,0.143,1.018c0.01,0.327-0.082,1.018-0.236,1.359c-0.156,0.341-0.375,0.76-0.764,1.298
	C6.179,5.334,5.134,6.113,5.021,6.267l-0.27,0.795c0,0-0.116,0.523-0.134,1.154l0.05,0.014C4.763,8.249,5.005,8.069,5.13,7.94
	c0.125-0.13,0.09-0.299,0.214-0.637c0.124-0.34,0.516-1.161,0.997-1.694c0.482-0.534,1.105-0.715,1.68-0.787
	C8.596,4.75,9.657,5.174,9.657,5.174S9.554,5.896,9.322,6.513c-0.231,0.615-1.388,1.32-1.96,1.535
	C6.791,8.261,5.405,8.085,5.276,8.106L4.77,8.396L4.616,8.373v0.014C4.617,8.902,4.487,9.071,4.53,9.486
	c0.043,0.415-0.029,0.842,0.058,1.146l0.177,0.494l0.158-0.095c0.068-0.08,0.178-0.349,0.31-0.799
	c0.134-0.451,0.797-1.19,1.218-1.575c0.418-0.385,1.66-0.67,1.973-0.567l1.031,0.018c0,0-0.192,0.801-0.327,1.146
	C8.995,9.6,9.075,9.763,8.924,10.062c-0.149,0.298-0.234,0.421-0.696,0.817c-0.463,0.398-1.123,0.546-1.653,0.508
	c-0.532-0.039-1.419-0.193-1.589-0.168c-0.172,0.024-0.222,0.104-0.222,0.104L4.752,11.3c-0.052,0.152-0.075,0.415-0.058,0.682
	c0.02,0.284,0.064,1.006,0.193,1.567c0.131,0.561,0.291,1.403,0.406,1.514l0.227,0.191v0.002l0.134-0.146
	c0.105-0.178,0.021-0.57,0.182-1.379c0.161-0.807,1.122-1.741,1.808-2.085c0.686-0.342,2.049-0.361,2.049-0.361
	s-0.117,0.771-0.203,0.98c-0.088,0.211-0.014,0.364-0.209,0.947c-0.198,0.584-0.828,1.139-1.537,1.576s-1.863,0.331-1.966,0.438
	l-0.214,0.234c0.032,0.177,0.078,0.419,0.158,0.549c0.123,0.201,0.398,1.068,0.858,1.665c0.224,0.289,0.384,0.515,0.491,0.668
	c0.054-0.052,0.326-0.309,0.418-0.448c0.104-0.156-0.232-0.793-0.17-1.586c0.063-0.796,0.486-1.182,1.041-1.662l1.791-0.434
	c0,0,0.113,0.491,0.145,1.1c0.031,0.607-0.369,1.316-0.897,1.804c-0.53,0.485-1.438,0.475-1.722,0.819
	c-0.141,0.17-0.511,0.537-0.516,0.543l0.074,0.114c0,0,0.183,0.351,0.429,0.606c0.179,0.187,0.837,0.775,1.413,1.199
	c0.059-0.098,0.143-0.25,0.176-0.357c0.055-0.172-0.241-0.371-0.182-1.529c0.053-1.021,1.23-1.666,1.551-1.883
	c0.318-0.217,0.766-0.561,0.766-0.561s0.788,1.392-0.043,2.807c-0.459,0.786-1.869,1.1-1.94,1.229l-0.177,0.403
	c0.16,0.112,0.312,0.208,0.439,0.272l1.161,0.638c0.479,0.224,0.589,0.116,1.36,0.599c0.773,0.479,1.833,1.313,1.939,1.449
	c0,0-0.135,0.413-0.199,0.492c-0.064,0.08-0.129,0.038-0.178-0.003c-0.051-0.042,0.02-0.216-0.107-0.323
	c-0.129-0.107-1.078-0.945-1.386-1.156c-0.31-0.212-0.792-0.484-1.16-0.623c-0.237-0.09-0.727-0.312-1.107-0.502l-0.116,0.061
	c-0.077,0.008-0.493-0.016-0.619,0.123c-0.125,0.138-0.59,1.027-0.896,1.208c-0.307,0.182-0.885,0.62-1.52,0.438
	c-0.633-0.182-1.038-0.156-1.334-0.369C5.21,22.596,5.058,22.21,5.058,22.21s0.148-0.166,0.236-0.36
	c0.088-0.193,0.584-0.812,0.93-0.984c0.348-0.174,1.224-0.445,1.727-0.254c0.504,0.195,0.984,0.637,1.161,0.714
	c0.179,0.075,0.603-0.028,0.671-0.068l0.012-0.009l-0.277-0.157c-0.23-0.157-1.431-1.086-1.732-1.364
	c-0.166-0.152-0.391-0.401-0.611-0.668c-0.131,0.018-0.377,0.053-0.439,0.088c-0.083,0.049-0.729,0.688-1.129,0.847
	c-0.4,0.155-1.351,0.573-1.99,0.22c-0.641-0.354-1.084-1.003-1.084-1.003s0.176-0.409,0.453-0.615
	c0.277-0.206,1.117-0.54,1.471-0.536c0.356,0.002,0.77,0,1.137,0.146c0.368,0.146,0.99,0.683,1.071,0.729
	c0.064,0.035,0.257-0.058,0.333-0.099l-0.309-0.424C6.4,17.973,6.021,17.42,5.915,17.33l-0.079-0.16l-0.539-0.093l-0.912,0.378
	C4.024,17.53,3.731,17.45,3.383,17.46c-0.348,0.007-0.79,0.263-1.592,0.075c-0.799-0.188-1.589-1.012-1.589-1.012
	s0.134-0.035,0.229-0.144c0.098-0.108,0.174-0.216,0.338-0.457s0.414-0.405,0.938-0.714c0.52-0.309,1.324-0.045,1.535,0.033
	c0.209,0.078,0.558,0.092,0.963,0.377c0.406,0.286,0.889,1.139,1.077,1.26c0.171,0.107,0.444,0.055,0.491,0.042
	c-0.031-0.128-0.066-0.264-0.119-0.373c-0.119-0.246-0.586-1.362-0.736-1.747c-0.166-0.095-0.52-0.302-0.609-0.367
	c-0.121-0.089-0.26-0.099-0.648,0.021C3.27,14.57,2.373,14.643,1.8,14.35c-0.57-0.291-1.34-1.264-1.518-1.723
	C0.106,12.167,0,11.4,0,11.4s0.39,0.012,0.575,0.002c0.188-0.01,0.656-0.137,1.266-0.061c0.608,0.075,1.365,0.324,1.844,0.928
	c0.479,0.605,0.518,1.811,0.678,1.985c0.114,0.125,0.344,0.229,0.467,0.28c-0.112-0.452-0.299-1.47-0.332-1.902L4.43,11.754z"/>
</svg>
