<svg xmlns="http://www.w3.org/2000/svg" width="60" height="60">
    <path fill="#222" d="M55.168 35.382c.159-.077.281-.109.535-.078l3.832.375.465-3.517-3.834-.638c-.178-.027-.328-.096-.49-.236-.276-.271-.451-.764-.456-1.278.002-.53.179-1.03.487-1.329.132-.111.28-.178.454-.205l.023-.004.007-.002v.002l3.806-.635-.461-3.517-3.847.378-.001-.002-.007.001c-.166.019-.319.001-.468-.06l-.076-.037c-.34-.19-.638-.624-.775-1.126-.133-.509-.092-1.033.126-1.398.101-.145.231-.25.408-.326l3.523-1.599-1.356-3.278-3.622 1.359-.001-.001c-.171.071-.271.108-.557.048-.366-.092-.745-.407-1.009-.836-.302-.5-.402-1.078-.261-1.461.062-.158.159-.287.298-.395l-.002-.002.003-.002.001-.001 2.985-2.454-2.158-2.814-3.147 2.253-.093.063-.021.012c-.104.059-.22.095-.425.112-.399 0-.879-.238-1.251-.618-.355-.373-.564-.824-.56-1.244.015-.176.075-.332.188-.485l.002-.005 2.249-3.143-2.812-2.16-2.457 2.988v-.001c-.129.167-.29.276-.485.328-.368.093-.871-.005-1.304-.247-.461-.268-.808-.67-.912-1.088-.031-.165-.014-.332.051-.502l1.366-3.638-3.276-1.356-1.598 3.516h-.002l-.007.016c-.079.184-.199.322-.36.42-.333.195-.87.233-1.354.106-.517-.142-.952-.442-1.157-.823-.071-.154-.097-.312-.077-.492l.379-3.861-3.517-.465-.635 3.829c-.024.164-.084.307-.178.426-.258.318-.795.523-1.368.523l-.118-.003c-.469-.03-.897-.197-1.138-.44-.139-.145-.22-.311-.251-.52v-.005l-.632-3.809-3.516.461.375 3.85h-.002c.027.206-.009.395-.106.566-.178.306-.551.576-.991.723-.544.174-1.13.155-1.534-.098-.144-.103-.248-.233-.317-.4l-.132.051.128-.059-1.595-3.512-3.277 1.355 1.357 3.615h-.001l.041.115c.036.129.043.256.014.43-.089.383-.432.789-.889 1.057-.463.264-.894.395-1.404.234-.128-.049-.236-.118-.334-.219l-.073-.085-.001-.001-2.453-2.984-2.816 2.158 2.252 3.147c.112.145.173.302.19.514.008.394-.219.874-.59 1.247-.375.368-.87.58-1.291.585-.164-.016-.317-.075-.461-.182l-3.153-2.257-2.161 2.812 2.986 2.455-.001.002c.165.126.273.285.327.475.09.338.02.79-.184 1.203-.281.553-.747.958-1.177 1.031-.163.023-.328.006-.491-.062l-.001.002-3.619-1.358-1.357 3.277 3.506 1.592.136-.287-.122.293c.161.066.289.166.385.297.243.341.295.926.135 1.482-.146.481-.425.88-.74 1.062-.181.1-.37.133-.573.108v.002l-3.845-.376-.465 3.517 3.814.633c.203.027.373.109.514.244.277.273.45.768.452 1.285-.004.521-.17.998-.438 1.27-.145.141-.311.223-.524.256h-.009l-.007.002-3.8.631.462 3.518 3.861-.379v.001c.175-.02.332 0 .53.096.344.188.645.622.784 1.129.146.555.087 1.105-.186 1.48-.066.076-.146.142-.257.202l-3.612 1.646 1.356 3.276 3.613-1.357.008-.003c.169-.069.275-.098.54-.053.407.097.843.485 1.106.983.221.431.297.896.207 1.234-.056.195-.161.351-.333.484l-2.981 2.45 2.158 2.816 3.144-2.25.001.001c.164-.125.342-.188.542-.192.387 0 .84.218 1.208.576.377.377.607.856.601 1.287-.014.175-.074.332-.192.49l-2.248 3.141 2.812 2.16 2.458-2.988.001.002c.11-.144.243-.242.444-.316.375-.11.908-.014 1.361.244.46.272.803.677.9 1.096.027.166.01.324-.051.482l-.012.029h.001l-1.356 3.612 3.277 1.358 1.597-3.519.003-.008v-.001c.079-.186.202-.327.366-.427.335-.194.87-.229 1.355-.104.514.142.949.444 1.153.823.072.156.096.317.073.509l-.375 3.843 3.517.469.637-3.838c.03-.194.111-.358.242-.494.259-.262.711-.428 1.264-.448.549 0 1.058.183 1.35.503.102.124.165.263.192.431l.639 3.845 3.517-.463-.378-3.848v-.004c-.021-.171 0-.329.085-.524l.001-.002c.193-.368.658-.68 1.206-.813.485-.111.979-.062 1.284.114.175.105.298.249.377.439l-.001.001 1.601 3.518 3.276-1.357-1.362-3.622c-.067-.168-.087-.338-.048-.549.093-.377.433-.777.884-1.044.455-.26.891-.385 1.392-.241.169.062.306.162.419.31l.086-.055-.077.063 2.447 2.979 2.813-2.16-2.249-3.144.002-.001c-.125-.163-.188-.34-.192-.534-.003-.386.222-.856.583-1.223.369-.367.813-.582 1.304-.591.172.018.323.078.463.187l.001-.002 3.146 2.25 2.161-2.812-3.002-2.466c-.134-.106-.229-.233-.296-.406l-.005-.015c-.13-.415-.004-1.004.314-1.495.259-.388.615-.674.944-.763.193-.048.377-.037.577.04l3.624 1.361 1.36-3.275-3.537-1.606h.001c-.141-.06-.254-.144-.385-.303l-.029-.051c-.199-.334-.241-.857-.111-1.357.14-.509.437-.943.81-1.153z"/>
    <path fill="#fff" d="M43.793 25.417l1.049 3.23h3.395l-2.747 1.997 1.051 3.23-2.748-1.996-2.747 1.996 1.048-3.23-2.747-1.997h3.395zM23.009 27.961v-14.897h4.137v34.045h-4.137v-15.399h-3.982v15.399h-4.137v-34.045h4.137v14.897zM43.962 36.406v5.908c0 3.364-1.662 5.026-5.025 5.026h-2.049c-3.363 0-5.025-1.662-5.025-5.026v-24.456c0-3.363 1.662-5.025 5.025-5.025h2.011c3.363 0 4.987 1.623 4.987 4.988v5.133h-4.06v-4.902c0-1.082-.503-1.584-1.547-1.584h-.696c-1.082 0-1.584.502-1.584 1.584v24.07c0 1.082.502 1.585 1.584 1.585h.773c1.044 0 1.547-.503 1.547-1.585v-5.716h4.059z"/>
</svg>
