<svg xmlns="http://www.w3.org/2000/svg" width="60" height="60">
    <g fill="#222">
        <path d="M39.501 47.322c.001-.002 1.117-.193 2.172-.239.714-1.392 2.39-4.869 3.959-9.285 1.897-5.34-1.407-11.689-1.815-14.087-.41-2.399-.556-4.805-.556-4.805l-.874-.657s-5.505 9.297-5.959 14.77c-.452 5.476 3.073 14.303 3.073 14.303zM32.71 42.16c-4.411-2.512-9.451-5.535-12.979-11.41-4.246-7.076-2.19-17.002-2.469-20.531-.278-3.532-.932-6.98-.932-6.98l.998-1.239s11.093 11.151 13.689 18.719c2.593 7.567-.789 15.532 1.693 21.441zM35.479 48.208c-3.356.954-9.027 4.598-14.976 2.576-5.946-2.019-15.78-10.56-15.78-10.56l-.025-1.457s7.679-.774 12.556.223c5.385 1.105 11.058 6.765 18.225 9.218zM29.302 58s3.235-1.134 6.076-1.152c2.951-.021 6.956 1.647 10.859-.042 3.767-1.629 4.962-3.179 7.483-5.187.603-.928.966-1.528 1.58-2.543-5.291 2.499-12.455-.175-17.955 1.86-4.809 1.779-8.043 7.064-8.043 7.064z"/>
    </g>
</svg>
