<svg xmlns="http://www.w3.org/2000/svg" width="60" height="60" viewBox="0 0 60 60">
    <circle fill="#CDCCCC" cx="30" cy="30" r="30"/>
    <g fill="#212221">
        <path d="M53.334 2.731l.009.046c.1.669-.164 1.349-.333 1.987-.274 1.045-.686 2-1.039 3.015-.646 1.853-1.233 3.733-2.057 5.517-.226.493-.47.973-.733 1.446l-.641 1.119c-.486.856-.964 1.727-1.558 2.514-.593.785-1.343 1.425-2.006 2.146-1.021 1.108-2.145 1.822-3.466 2.524-.638.339-1.247.729-1.85 1.126-.545.359-1.132.771-1.816.741-.418-.018-.106-2.813-.09-3.148.065-1.299-.027-2.675.323-3.939.248-.899.315-1.855.732-2.702.364-.738.732-1.479 1.221-2.144.461-.626 1.029-1.165 1.599-1.692 1.635-1.51 3.475-2.78 5.208-4.171.52-.419 1.041-.837 1.587-1.219 1.41-.989 2.563-2.433 4.081-3.263.189-.104.735-.24.829.097zM29.79 13.174c.435 1.334.951 2.646 1.244 4.022.295 1.396.348 2.855.39 4.276.027.843.031 1.687.003 2.53-.028.841-.145 1.675-.301 2.5-.078.411-.167.818-.26 1.225-.058.25-.076.504-.167.747-.204.544-.312 1.178-.506 1.729-.298.851-.657 1.66-1.09 2.455-.457.839-.961 1.614-1.546 2.369-.744.96-1.337 1.953-1.97 2.981-.159.257-.583 1.007-.958.936-.215-.041-.258-.412-.323-.572-.254-.634-.521-1.266-.779-1.899l-.838-1.825c-.318-.779-.533-1.583-.767-2.39-.177-.612-.352-1.227-.458-1.854-.216-1.289-.049-2.778.302-4.03.224-.795.546-1.562.868-2.322.866-2.036 1.83-4.007 2.812-5.988.47-.946.886-1.917 1.378-2.852.475-.903.999-1.78 1.458-2.691.156-.312.374-.835.796-.826.376.008.461.481.52.768.049.24.115.476.192.711zM25.916 42.687c1.775.088 3.538.324 5.303.514 1.1.117 2.207.114 3.31.128.388.005 2.355-.221 2.318.425-.027.459-.747.851-1.086 1.052-.587.349-1.219.616-1.835.91-.828.395-1.656.789-2.485 1.181-.931.438-1.863.876-2.802 1.294-.527.236-1.057.467-1.589.688-.451.188-.906.361-1.37.513-1.942.633-3.908.73-5.911.335-1.745-.345-3.524-.737-5.058-1.672-.285-.173-.578-.331-.87-.488-.242-.128-.576-.24-.76-.452-.27-.311.048-.627.324-.779.438-.243.849-.523 1.275-.786.903-.558 1.783-1.144 2.717-1.652.53-.288 1.087-.534 1.657-.732 1.029-.357 2.097-.592 3.188-.625 1.087-.033 2.175.094 3.262.132l.412.014zM54.229 23.471c-.304 1.396-1.399 2.419-2.399 3.354-1.11 1.039-2.098 2.183-3.171 3.257-1.171 1.168-2.303 2.365-3.662 3.324-1.229.867-2.584 1.553-3.971 2.13-.793.331-1.601.628-2.411.911-1.585.553-3.068 1.011-4.742 1.232l-2.467.357c-.514.066-1.283.213-1.628-.298-.582-.863.621-1.979 1.152-2.535.911-.953 1.809-1.917 2.741-2.85 1.886-1.888 4.139-3.885 6.457-5.229 1.297-.75 2.714-1.252 4.117-1.756 2.818-1.014 5.68-1.993 8.618-2.6.36-.074.899-.204 1.213.064.189.162.204.399.153.639z"/>
    </g>
</svg>
