<svg xmlns="http://www.w3.org/2000/svg" width="60" height="60"><path fill="#222" d="M28.899.002c-.477 0-.907.298-1.074.745-.256.688-.475 1.824-.594 2.715l-1.429.188c-.346-.834-.854-1.875-1.275-2.47-.277-.389-.769-.562-1.229-.441l-2.127.57c-.46.125-.796.52-.843 1-.019.188-.023.404-.023.639 0 .674.067 1.473.154 2.135l-1.334.551c-.548-.713-1.301-1.582-1.865-2.052-.369-.308-.891-.351-1.307-.112l-1.905 1.098c-.359.209-.575.589-.575.993l.017.19c.122.719.5 1.815.843 2.65l-1.144.878c-.714-.545-1.668-1.193-2.338-1.501-.434-.203-.951-.108-1.289.231l-1.555 1.556c-.219.221-.334.513-.334.813 0 .159.033.321.104.475.308.669.956 1.626 1.501 2.34l-.879 1.142c-.829-.346-1.921-.722-2.646-.846-.472-.078-.946.144-1.186.559l-1.099 1.906c-.102.176-.153.375-.153.572 0 .264.089.52.263.73.465.562 1.34 1.322 2.057 1.873l-.553 1.332c-.893-.117-2.047-.197-2.777-.132-.477.045-.874.384-.996.847l-.574 2.124c-.026.096-.04.197-.04.296 0 .366.179.72.487.935.597.424 1.635.929 2.466 1.276l-.19 1.429c-.891.117-2.027.336-2.711.594-.448.167-.747.593-.747 1.07v2.198c0 .48.301.912.747 1.079.688.252 1.82.472 2.711.589l.19 1.432c-.829.343-1.862.846-2.466 1.269-.309.221-.487.571-.487.938 0 .102.014.199.04.299l.573 2.124c.122.465.52.798.999.845.728.066 1.882-.017 2.771-.132l.553 1.334c-.717.55-1.591 1.31-2.054 1.869-.174.211-.263.472-.263.729 0 .197.052.396.153.576l1.099 1.906c.242.412.714.639 1.188.556.722-.124 1.813-.501 2.643-.846l.879 1.144c-.547.714-1.193 1.671-1.501 2.336-.07.155-.104.317-.104.479 0 .295.115.592.334.811l1.556 1.553c.338.342.854.435 1.289.234.665-.305 1.624-.951 2.338-1.499l1.144.877c-.343.837-.721 1.931-.843 2.649l-.017.19c0 .404.216.785.575.991l1.905 1.098c.414.242.936.197 1.305-.108.563-.467 1.319-1.341 1.867-2.053l1.334.549c-.087.666-.154 1.46-.154 2.137 0 .234.005.45.023.639.047.479.383.878.846 1.006l2.124.563c.463.121.953-.052 1.23-.441.42-.595.928-1.639 1.273-2.467l1.429.188c.119.891.338 2.024.594 2.713.167.447.598.745 1.074.745h2.201c.479 0 .909-.298 1.075-.745.252-.686.473-1.82.591-2.713l1.431-.188c.346.831.853 1.874 1.273 2.467.274.39.769.562 1.229.441l2.126-.563c.465-.128.804-.527.848-1.006.017-.186.023-.395.023-.625 0-.677-.067-1.482-.154-2.15l1.332-.549c.552.712 1.307 1.588 1.872 2.053.371.306.886.351 1.304.108l1.901-1.1c.358-.204.572-.585.572-.989l-.014-.192c-.122-.721-.501-1.814-.847-2.647l1.149-.877c.712.548 1.671 1.191 2.335 1.499.437.2.951.107 1.287-.234l1.555-1.553c.221-.219.336-.516.336-.811 0-.162-.033-.324-.105-.478-.306-.665-.952-1.62-1.499-2.338l.879-1.144c.831.345 1.919.722 2.646.846.475.083.946-.144 1.187-.56l1.099-1.902c.104-.181.152-.379.152-.576 0-.258-.089-.519-.263-.729-.463-.562-1.34-1.319-2.054-1.869l.553-1.334c.894.115 2.044.198 2.77.132.479-.047.879-.38 1.004-.845l.568-2.124c.027-.1.039-.197.039-.299 0-.364-.173-.717-.483-.938-.602-.423-1.638-.926-2.465-1.269l.188-1.432c.891-.117 2.023-.337 2.711-.589.452-.166.751-.596.751-1.078v-2.199c0-.478-.299-.907-.749-1.071-.684-.258-1.82-.477-2.714-.594l-.188-1.429c.829-.348 1.865-.853 2.465-1.273.31-.218.485-.571.485-.938 0-.099-.012-.2-.039-.296l-.568-2.123c-.125-.463-.521-.802-1.001-.847-.729-.065-1.879.015-2.772.132l-.553-1.332c.711-.551 1.582-1.307 2.054-1.869.174-.213.263-.471.263-.734 0-.197-.048-.395-.152-.57l-1.099-1.905c-.24-.418-.712-.64-1.183-.562-.73.124-1.82.5-2.649.846l-.879-1.145c.552-.719 1.2-1.68 1.499-2.337.072-.155.105-.315.105-.475 0-.301-.115-.593-.336-.813l-1.555-1.557c-.336-.342-.852-.434-1.292-.23-.664.308-1.618.956-2.33 1.501l-1.149-.878c.346-.835.725-1.927.847-2.648l.014-.192c0-.404-.214-.784-.572-.993l-1.902-1.098c-.418-.238-.935-.195-1.304.11-.563.462-1.32 1.337-1.872 2.054l-1.332-.553c.087-.668.154-1.471.154-2.146 0-.23-.007-.442-.023-.625-.044-.48-.383-.877-.846-1.004l-2.126-.568c-.462-.125-.954.051-1.23.443-.423.595-.928 1.636-1.273 2.47l-1.431-.188c-.118-.895-.339-2.029-.591-2.715-.169-.447-.597-.745-1.075-.745h-2.202z"/><path stroke="#fff" stroke-width="1.544" d="M52.149 30.003c0 12.229-9.917 22.146-22.148 22.146-12.233 0-22.149-9.917-22.149-22.146 0-12.235 9.916-22.152 22.149-22.152 12.231 0 22.148 9.917 22.148 22.152z" fill="none"/><path fill="#fff" d="M40.929 40.828v-7.813h-2.597v7.813h-2.985v-17.913h2.985v7.355h2.597v-7.355h2.984v17.913h-2.984z"/><path fill="#fff" d="M19.356 25.509h.04c.812-1.047 1.901-1.82 3.447-1.82 1.742 0 2.813 1.065 2.813 2.711v4.588c0 .562.237.775.792.775h1.109v1.277h-5.785v-1.277h.753c.555 0 .793-.213.793-.775v-4.434c0-.988-.694-1.354-1.743-1.354-1.031 0-2.22 1.064-2.22 2.769v3.02c0 .562.238.775.793.775h.772v1.277h-5.824v-1.277h1.13c.554 0 .791-.213.791-.775v-9.914c0-.561-.237-.773-.791-.773h-1.13v-1.278h4.259v6.485z"/><line stroke="#fff" stroke-width="1.5" x1="34.92" y1="12.791" x2="26.779" y2="46.708" fill="none"/></svg>