<svg xmlns="http://www.w3.org/2000/svg" xmlns:xlink="http://www.w3.org/1999/xlink" width="172" height="181" viewBox="310.06 215.402 172 181" overflow="visible" enable-background="new 310.06 215.402 172 181">
    <style>
        .style0{clip-path: url(#SVGID_2_);fill: #CCCCCC;}.style1{clip-path: url(#SVGID_2_);fill: #222222;}
    </style>
    <defs>
        <path d="M0 0h792v612h-792z"/>
    </defs>
    <clipPath>
        <use xlink:href="#SVGID_1_" overflow="visible"/>
    </clipPath>
    <path d="M482.442 310.127c0 47.597-38.592 86.182-86.194 86.2-47.597 0-86.188-38.585-86.188-86.182 0-47.603 38.592-86.195 86.188-86.195 47.603-.05 86.152 38.55 86.152 86.15" class="style0"/>
    <path d="M357.261 348.494c-6.571-5.337-12.842-8.469-22.022-5.837 1.52 4.8 4 8.8 9.4 12.427 10.281 6.9 23.8 8.3 23.8 8.34s-1.56-7.124-11.139-14.924M420.248 300.635c-18.493 5.646-27.013 16.453-35.736 29.3 6.541 1.5 31.9 2.1 42.313-.931 24.926-7.173 40.743-31.894 40.743-31.894s-25.394-3.21-47.368 3.49M388.919 335.528c-14.296-3.435-22.022 1.495-30.871 8 6.643 3.9 18.8 9.3 26.8 11.225 16.959 4.1 37.594-2.272 37.594-2.272s-16.556-12.881-33.542-16.981M437.502 265.884c-5.886 19.642-21.234 27.085-34.027 33.8.265-10.593.588-28.978 3.902-40.009 6.986-23.274 29.506-44.279 29.506-44.279s7.617 27.204.617 50.504M394.006 301.029c-2.309 13.022-11.11 19.084-17.057 24.5-.709-6.8-.365-20.001.933-27.318 2.753-15.446 14.747-30.547 14.747-30.547s4.148 17.936 1.371 33.336M369.861 322.428c-1.84 9.672-7.563 12.433-13.473 16.1-.433-5.133-.234-14.007.806-19.441 2.188-11.472 11.116-22.317 11.116-22.317s3.758 14.23 1.59 25.63" class="style1"/>
</svg>
