<?xml version="1.0" encoding="utf-8"?>
<!-- Generator: Adobe Illustrator 15.1.0, SVG Export Plug-In . SVG Version: 6.00 Build 0)  -->
<!DOCTYPE svg PUBLIC "-//W3C//DTD SVG 1.1//EN" "http://www.w3.org/Graphics/SVG/1.1/DTD/svg11.dtd">
<svg version="1.1" id="Layer_1" xmlns="http://www.w3.org/2000/svg" xmlns:xlink="http://www.w3.org/1999/xlink" x="0px" y="0px"
	 width="60px" height="60px" viewBox="0 0 60 60" enable-background="new 0 0 60 60" xml:space="preserve">
<circle fill="#CDCCCC" cx="30" cy="30" r="30"/>
<g>
	<path fill="#212221" d="M53.334,2.731c0.005,0.016,0.007,0.029,0.009,0.046c0.1,0.669-0.164,1.349-0.333,1.987
		c-0.274,1.045-0.686,2-1.039,3.015c-0.646,1.853-1.233,3.733-2.057,5.517c-0.226,0.493-0.47,0.973-0.733,1.446
		c-0.211,0.374-0.43,0.744-0.641,1.119c-0.486,0.856-0.964,1.727-1.558,2.514c-0.593,0.785-1.343,1.425-2.006,2.146
		c-1.021,1.108-2.145,1.822-3.466,2.524c-0.638,0.339-1.247,0.729-1.85,1.126c-0.545,0.359-1.132,0.771-1.816,0.741
		c-0.418-0.018-0.106-2.813-0.09-3.148c0.065-1.299-0.027-2.675,0.323-3.939c0.248-0.899,0.315-1.855,0.732-2.702
		c0.364-0.738,0.732-1.479,1.221-2.144c0.461-0.626,1.029-1.165,1.599-1.692c1.635-1.51,3.475-2.78,5.208-4.171
		c0.52-0.419,1.041-0.837,1.587-1.219c1.41-0.989,2.563-2.433,4.081-3.263C52.694,2.53,53.24,2.394,53.334,2.731z"/>
	<path fill="#212221" d="M29.79,13.174c0.435,1.334,0.951,2.646,1.244,4.022c0.295,1.396,0.348,2.855,0.39,4.276
		c0.027,0.843,0.031,1.687,0.003,2.53c-0.028,0.841-0.145,1.675-0.301,2.5c-0.078,0.411-0.167,0.818-0.26,1.225
		c-0.058,0.25-0.076,0.504-0.167,0.747c-0.204,0.544-0.312,1.178-0.506,1.729c-0.298,0.851-0.657,1.66-1.09,2.455
		c-0.457,0.839-0.961,1.614-1.546,2.369c-0.744,0.96-1.337,1.953-1.97,2.981c-0.159,0.257-0.583,1.007-0.958,0.936
		c-0.215-0.041-0.258-0.412-0.323-0.572c-0.254-0.634-0.521-1.266-0.779-1.899c-0.253-0.62-0.583-1.205-0.838-1.825
		c-0.318-0.779-0.533-1.583-0.767-2.39c-0.177-0.612-0.352-1.227-0.458-1.854c-0.216-1.289-0.049-2.778,0.302-4.03
		c0.224-0.795,0.546-1.562,0.868-2.322c0.866-2.036,1.83-4.007,2.812-5.988c0.47-0.946,0.886-1.917,1.378-2.852
		c0.475-0.903,0.999-1.78,1.458-2.691c0.156-0.312,0.374-0.835,0.796-0.826c0.376,0.008,0.461,0.481,0.52,0.768
		C29.647,12.703,29.713,12.939,29.79,13.174z"/>
	<path fill="#212221" d="M25.916,42.687c1.775,0.088,3.538,0.324,5.303,0.514c1.1,0.117,2.207,0.114,3.31,0.128
		c0.388,0.005,2.355-0.221,2.318,0.425c-0.027,0.459-0.747,0.851-1.086,1.052c-0.587,0.349-1.219,0.616-1.835,0.91
		c-0.828,0.395-1.656,0.789-2.485,1.181c-0.931,0.438-1.863,0.876-2.802,1.294c-0.527,0.236-1.057,0.467-1.589,0.688
		c-0.451,0.188-0.906,0.361-1.37,0.513c-1.942,0.633-3.908,0.73-5.911,0.335c-1.745-0.345-3.524-0.737-5.058-1.672
		c-0.285-0.173-0.578-0.331-0.87-0.488c-0.242-0.128-0.576-0.24-0.76-0.452c-0.27-0.311,0.048-0.627,0.324-0.779
		c0.438-0.243,0.849-0.523,1.275-0.786c0.903-0.558,1.783-1.144,2.717-1.652c0.53-0.288,1.087-0.534,1.657-0.732
		c1.029-0.357,2.097-0.592,3.188-0.625c1.087-0.033,2.175,0.094,3.262,0.132C25.641,42.674,25.778,42.68,25.916,42.687z"/>
	<path fill="#212221" d="M54.229,23.471c-0.304,1.396-1.399,2.419-2.399,3.354c-1.11,1.039-2.098,2.183-3.171,3.257
		c-1.171,1.168-2.303,2.365-3.662,3.324c-1.229,0.867-2.584,1.553-3.971,2.13c-0.793,0.331-1.601,0.628-2.411,0.911
		c-1.585,0.553-3.068,1.011-4.742,1.232c-0.823,0.108-1.643,0.251-2.467,0.357c-0.514,0.066-1.283,0.213-1.628-0.298
		c-0.582-0.863,0.621-1.979,1.152-2.535c0.911-0.953,1.809-1.917,2.741-2.85c1.886-1.888,4.139-3.885,6.457-5.229
		c1.297-0.75,2.714-1.252,4.117-1.756c2.818-1.014,5.68-1.993,8.618-2.6c0.36-0.074,0.899-0.204,1.213,0.064
		C54.265,22.994,54.28,23.231,54.229,23.471z"/>
</g>
</svg>
