<svg xmlns="http://www.w3.org/2000/svg" width="125" height="20" viewBox="0 0 125 20">
    <g fill="#fff">
        <path d="M41.079 7.398h-4.722l-.34 2.359h4.311l-.667 1.53h-3.917c.026.096.026.205.013.259l-.381 2.636h4.734l-.218 1.527h-6.564l1.419-9.84h6.551l-.219 1.529zM47.862 11.096l-.669 4.612h-1.815l.669-4.612c.027-.164.041-.328.041-.477 0-.629-.246-1.038-.928-1.038-.56 0-1.215.313-1.747.641l-.792 5.487h-1.814l1.05-7.328h1.502l.122.669c.847-.669 1.53-.888 2.294-.888 1.527 0 2.142.969 2.142 2.266 0 .218-.027.435-.055.668M56.722 9.757h-.747c-.123 0-.423-.014-.655-.121.136.326.191.694.191.996 0 2.128-1.692 2.948-3.589 2.948-.423 0-.832-.041-1.187-.123l-.177-.027c-.205 0-.329.109-.329.312 0 .137.069.232.369.289l2.633.49c1.461.271 1.966.899 1.966 1.705 0 2.359-2.211 2.782-4.066 2.782-1.475 0-3.397-.394-3.397-2.237 0-.955.503-1.773 1.322-2.266-.163-.204-.245-.436-.245-.654 0-.49.355-.873.763-1.092-.258-.328-.477-.846-.477-1.447 0-2.143 1.665-3.151 3.616-3.151.683 0 1.407.123 1.94.463l.953-.244h1.324l-.208 1.377zm-4.036 5.979l-2.565-.479c-.41.436-.588.723-.588 1.337 0 .694.492 1.011 1.803 1.011.859 0 2.047-.138 2.047-1.242 0-.34-.179-.531-.697-.627m-.178-6.142c-1.024 0-1.61.587-1.61 1.598 0 .683.438.969 1.229.969 1.024 0 1.595-.547 1.595-1.557 0-.668-.394-1.01-1.214-1.01"/>
        <path d="M59.481 15.833h-.929c-1.064 0-1.583-.467-1.583-1.421 0-.148.013-.301.041-.479l.547-3.781c.013-.109.082-.272.19-.396h-1.324l.192-1.377h3.015l-.791 5.552-.013.194c0 .163.067.217.272.217h.588l-.205 1.491zm.369-8.915c-.015.124-.015.124-.123.124h-1.775c-.108 0-.108 0-.096-.124l.071-1.69c.013-.137.013-.151.123-.151h1.774c.11 0 .11.015.094.151l-.068 1.69zM67.285 11.096l-.669 4.612h-1.815l.67-4.612c.027-.164.041-.328.041-.477 0-.629-.246-1.038-.929-1.038-.56 0-1.215.313-1.748.641l-.79 5.487h-1.815l1.051-7.328h1.501l.123.669c.845-.669 1.531-.888 2.295-.888 1.524 0 2.142.969 2.142 2.266 0 .218-.031.435-.057.668M74.539 12.57h-4.926c-.025.219-.039.408-.039.586 0 .9.41 1.324 1.422 1.324.939 0 1.471-.41 1.867-1.012l1.379.562c-.645 1.227-1.844 1.896-3.453 1.896-2.074 0-3.018-1.105-3.018-2.947 0-.302.028-.615.069-.941.396-2.688 1.568-3.875 4.066-3.875 2.268 0 2.784 1.596 2.784 2.963.001.406-.081.953-.151 1.444m-2.85-2.962c-1.037 0-1.543.397-1.842 1.679h3.002c.026-.162.041-.314.041-.451.001-.804-.394-1.228-1.201-1.228"/>
        <path d="M83.391 15.708h-1.83l.642-4.421h-4.353l-.642 4.421h-1.829l1.42-9.839h1.827l-.56 3.888h4.355l.559-3.888h1.829zM91.555 12.037c-.367 2.539-1.472 3.89-3.996 3.89-2.156 0-2.935-1.321-2.935-2.989 0-.285.026-.6.067-.899.369-2.58 1.459-3.875 3.985-3.875 2.142 0 2.945 1.255 2.945 2.948.002.297-.023.599-.066.925m-3.096-2.429c-1.12 0-1.666.573-1.939 2.429-.055.369-.082.695-.082.97 0 1.104.438 1.476 1.326 1.476 1.103 0 1.691-.573 1.965-2.444.054-.354.082-.667.082-.94 0-1.125-.454-1.491-1.352-1.491"/>
        <path d="M96.943 10.318c-.258-.465-.736-.724-1.486-.724-.587 0-1.297.123-1.297.859 0 .261.122.479.451.533l1.582.287c.996.177 1.813.736 1.813 1.802 0 2.087-1.731 2.852-3.547 2.852-1.285 0-2.291-.437-2.783-1.583l1.525-.559c.289.518.754.75 1.448.75.683 0 1.529-.205 1.529-1.053 0-.299-.137-.518-.533-.584l-1.707-.316c-.789-.148-1.567-.75-1.567-1.882 0-1.938 1.596-2.538 3.289-2.538 1.514 0 2.346.614 2.717 1.486l-1.434.67zM103.67 9.757h-1.876l-.571 3.933-.015.19c0 .409.218.601.668.601.627 0 .914-.19 1.338-.451l.845 1.039c-.668.559-1.529.857-2.593.857-1.146 0-2.101-.503-2.101-1.799 0-.141 0-.289.025-.438l.491-3.388c.017-.135.138-.366.263-.545h-1.287l.193-1.376h1.106l.342-2.375 1.908-.532-.422 2.907h2.312l-.626 1.377zM107.73 15.833h-.93c-1.062 0-1.582-.467-1.582-1.421 0-.148.014-.301.041-.479l.549-3.781c.012-.109.08-.272.188-.396h-1.09l.191-1.377h2.782l-.791 5.552-.012.194c0 .163.065.217.271.217h.588l-.205 1.491zm.37-8.915c-.014.124-.014.124-.123.124h-1.774c-.106 0-.106 0-.095-.124l.068-1.69c.016-.137.016-.151.124-.151h1.774c.109 0 .109.015.094.151l-.068 1.69zM115.885 11.096l-.668 4.612h-1.817l.67-4.612c.027-.164.041-.328.041-.477 0-.629-.245-1.038-.93-1.038-.561 0-1.216.313-1.746.641l-.791 5.487h-1.815l1.054-7.328h1.498l.125.669c.844-.669 1.527-.888 2.293-.888 1.525 0 2.143.969 2.143 2.266-.003.218-.03.435-.057.668M124.502 9.757h-.463c-.125 0-.422-.014-.655-.121.138.326.192.694.192.996 0 2.128-1.692 2.948-3.59 2.948-.422 0-.832-.041-1.187-.123l-.178-.027c-.207 0-.328.109-.328.312 0 .137.065.232.367.289l2.635.49c1.459.271 1.965.899 1.965 1.705 0 2.359-2.211 2.782-4.065 2.782-1.475 0-3.396-.394-3.396-2.237 0-.955.503-1.773 1.32-2.266-.162-.204-.243-.436-.243-.654 0-.49.354-.873.763-1.092-.258-.328-.477-.846-.477-1.447 0-2.143 1.664-3.151 3.615-3.151.683 0 1.404.123 1.938.463l.953-.463h1.324l-.49 1.596zm-3.752 5.979l-2.566-.479c-.408.436-.586.723-.586 1.337 0 .694.491 1.011 1.803 1.011.858 0 2.048-.138 2.048-1.242-.002-.34-.181-.531-.699-.627m-.176-6.142c-1.025 0-1.611.587-1.611 1.598 0 .683.438.969 1.229.969 1.024 0 1.597-.547 1.597-1.557-.002-.668-.396-1.01-1.215-1.01"/>
        <path d="M22.728 13.841c-1.486 1.7-3.96 3.112-6.901 3.735-3.776.803-7.267.08-9.105-1.628-1.3-.991-2.222-2.376-2.518-4.033-.718-4.022 2.483-8.095 7.146-9.099 3.642-.784 7.092.541 8.772 3.074l4.323-1.034c-2.189-3.661-7.575-5.543-13.369-4.303-6.972 1.489-11.881 6.928-10.958 12.146.921 5.218 7.32 8.24 14.296 6.746 3.912-.836 7.172-2.916 9.119-5.502l-.805-.102zM18.277 5.528c-1.591-1.445-4.068-2.104-6.665-1.544-4.012.86-6.778 4.292-6.179 7.662l.075.313c.092.373.221.729.386 1.067l.013-.006c-.007-.023-.214-.797-.118-1.867.13-1.458.83-3.46 3.394-4.866-.603.68-.908 1.364-1.022 2.009-.27 1.536.545 2.865 1.045 3.487-.176-.442-.274-.928-.274-1.434 0-2.125 1.691-3.855 3.768-3.855.752 0 1.479.242 2.097.67l4.098-.981c-.187-.234-.395-.451-.618-.655M10.305 10.349c0-1.029.603-1.911 1.462-2.289-.859.378-1.462 1.26-1.462 2.289 0 .473.134.912.356 1.29-.222-.378-.356-.817-.356-1.29M12.701 12.833c.419 0 .814-.112 1.156-.312-.342.2-.736.312-1.156.312-.866 0-1.618-.481-2.039-1.192.42.713 1.171 1.192 2.039 1.192"/>
        <path d="M25.432 5.879l-10.985 2.778c-.439-.486-1.056-.79-1.746-.79-.331 0-.647.067-.933.193-.859.378-1.462 1.26-1.462 2.287 0 .475.134.914.356 1.29.421.715 1.173 1.196 2.04 1.196.419 0 .813-.113 1.155-.312.17-.098.327-.217.468-.353l.004-.008c.139-.138.264-.285.368-.451.091-.146.164-.302.225-.467l.096-.289.199-.062.007-.009 10.427-4.468-.219-.535z"/>
    </g>
</svg>
