<svg xmlns="http://www.w3.org/2000/svg" width="960" height="120">
    <path d="M66.375 94.03h-30.673l-7.04 22.627h-28.662l35.702-114.981h37.209l36.037 114.981h-36.037l-6.536-22.627zm-6.035-25.142l-9.386-33.354-9.386 33.354h18.772zM221.417 116.657h-80.621v-114.981h35.534v86.823h45.087v28.158zM262.149 116.657h-35.534v-114.981h35.534v114.981zM298.521 77.437c3.017 10.224 10.727 13.911 20.952 13.911 4.525 0 13.576-.67 13.576-7.039 0-7.039-8.883-8.381-14.079-9.387-21.622-4.189-47.267-10.056-47.267-37.377 0-11.23 5.532-22.292 14.75-28.829 9.386-6.537 21.622-8.716 33.02-8.716 19.945 0 39.221 8.213 46.26 28.159l-29.164 8.883c-3.352-8.548-9.721-11.565-18.605-11.565-4.693 0-11.398 1.341-11.398 7.375s8.381 7.207 12.739 8.213c10.895 2.179 22.46 4.023 32.517 9.219 11.23 6.034 17.096 16.761 17.096 29.332 0 27.656-27.488 38.718-51.289 38.718-24.136 0-45.59-10.056-51.792-35.029l32.684-5.868zM425.406 116.657h-33.523v-87.325h-24.136v-27.656h81.292v27.656h-23.633v87.325zM540.223 94.03h-30.674l-7.039 22.627h-28.662l35.701-114.981h37.211l36.035 114.981h-36.035l-6.537-22.627zm-6.035-25.142l-9.385-33.354-9.387 33.354h18.772zM620.074 116.657h-35.701v-114.981h46.932c11.23 0 23.801.335 33.689 6.034 10.729 6.369 17.096 17.767 17.096 30.171 0 10.894-4.189 21.286-12.738 28.158-8.883 7.207-20.279 8.883-31.342 8.883h-17.936v41.735zm9.219-66.373c8.047 0 17.768-.503 17.768-11.23 0-10.225-8.715-11.062-16.762-11.062h-10.225v22.292h9.219zM730.701 94.03h-30.672l-7.041 22.627h-28.66l35.701-114.981h37.209l36.035 114.981h-36.035l-6.537-22.627zm-6.033-25.142l-9.387-33.354-9.387 33.354h18.774zM810.486 116.657h-35.701v-114.981h58.496c10.057 0 21.119 1.341 29.666 7.04 9.555 6.034 14.08 16.258 14.08 27.488 0 15.085-6.703 24.137-20.281 30.338l20.785 50.115h-39.221l-16.762-43.914h-11.062v43.914zm0-68.552h12.906c7.709 0 16.928-1.174 16.928-11.063 0-3.855-2.01-7.542-5.531-9.386-3.016-1.508-6.703-1.508-10.055-1.508h-14.248v21.957zM936.367 116.657h-33.523v-87.325h-24.135v-27.656h81.291v27.656h-23.633v87.325z"/>
</svg>
