<svg xmlns="http://www.w3.org/2000/svg" xmlns:xlink="http://www.w3.org/1999/xlink" xmlns:a="http://ns.adobe.com/AdobeSVGViewerExtensions/3.0/" version="1.1" x="0px" y="0px" width="172px" height="181px" viewBox="310.06 215.402 172 181" overflow="visible" enable-background="new 310.06 215.402 172 181" xml:space="preserve"><style>.style0{clip-path:	url(#SVGID_2_);fill:	#CCCCCC;}.style1{clip-path:	url(#SVGID_2_);fill:	#222222;}</style><defs></defs><g><defs><rect width="792" height="612"/></defs><clipPath><use xlink:href="#SVGID_1_" overflow="visible"/></clipPath><path d="M482.442 310.127c0 47.597-38.592 86.182-86.194 86.2 c-47.597 0-86.188-38.585-86.188-86.182c0-47.603 38.592-86.195 86.188-86.195C443.851 223.9 482.4 262.5 482.4 310.1" class="style0"/><path d="M357.261 348.494c-6.571-5.337-12.842-8.469-22.022-5.837 c1.52 4.8 4 8.8 9.4 12.427c10.281 6.9 23.8 8.3 23.8 8.34S366.879 356.3 357.3 348.5" class="style1"/><path d="M420.248 300.635c-18.493 5.646-27.013 16.453-35.736 29.3 c6.541 1.5 31.9 2.1 42.313-0.931c24.926-7.173 40.743-31.894 40.743-31.894S442.174 293.9 420.2 300.6" class="style1"/><path d="M388.919 335.528c-14.296-3.435-22.022 1.495-30.871 8 c6.643 3.9 18.8 9.3 26.8 11.225c16.959 4.1 37.594-2.272 37.594-2.272S405.886 339.6 388.9 335.5" class="style1"/><path d="M437.502 265.884c-5.886 19.642-21.234 27.085-34.027 33.8 c0.265-10.593 0.588-28.978 3.902-40.009c6.986-23.274 29.506-44.279 29.506-44.279S444.5 242.6 437.5 265.9" class="style1"/><path d="M394.006 301.029c-2.309 13.022-11.11 19.084-17.057 24.5 c-0.709-6.8-0.365-20.001 0.933-27.318c2.753-15.446 14.747-30.547 14.747-30.547S396.777 285.6 394 301" class="style1"/><path d="M369.861 322.428c-1.84 9.672-7.563 12.433-13.473 16.1 c-0.433-5.133-0.234-14.007 0.806-19.441c2.188-11.472 11.116-22.317 11.116-22.317S372.068 311 369.9 322.4" class="style1"/></g></svg>