<?xml version="1.0" encoding="utf-8"?>
<!-- Generator: Adobe Illustrator 15.1.0, SVG Export Plug-In . SVG Version: 6.00 Build 0)  -->
<!DOCTYPE svg PUBLIC "-//W3C//DTD SVG 1.1//EN" "http://www.w3.org/Graphics/SVG/1.1/DTD/svg11.dtd">
<svg version="1.1" id="Layer_1" xmlns="http://www.w3.org/2000/svg" xmlns:xlink="http://www.w3.org/1999/xlink" x="0px" y="0px"
	 width="125px" height="20px" viewBox="0 0 125 20" enable-background="new 0 0 125 20" xml:space="preserve">
<g>
	<path fill="#FFFFFF" d="M41.079,7.398h-4.722l-0.34,2.359h4.311l-0.667,1.53h-3.917c0.026,0.096,0.026,0.205,0.013,0.259
		l-0.381,2.636h4.734l-0.218,1.527h-6.564l1.419-9.84h6.551L41.079,7.398z"/>
	<path fill="#FFFFFF" d="M47.862,11.096l-0.669,4.612h-1.815l0.669-4.612c0.027-0.164,0.041-0.328,0.041-0.477
		c0-0.629-0.246-1.038-0.928-1.038c-0.56,0-1.215,0.313-1.747,0.641l-0.792,5.487h-1.814l1.05-7.328h1.502l0.122,0.669
		c0.847-0.669,1.53-0.888,2.294-0.888c1.527,0,2.142,0.969,2.142,2.266C47.917,10.646,47.89,10.863,47.862,11.096"/>
	<path fill="#FFFFFF" d="M56.722,9.757h-0.747c-0.123,0-0.423-0.014-0.655-0.121c0.136,0.326,0.191,0.694,0.191,0.996
		c0,2.128-1.692,2.948-3.589,2.948c-0.423,0-0.832-0.041-1.187-0.123c-0.055-0.014-0.109-0.027-0.177-0.027
		c-0.205,0-0.329,0.109-0.329,0.312c0,0.137,0.069,0.232,0.369,0.289l2.633,0.49c1.461,0.271,1.966,0.899,1.966,1.705
		c0,2.359-2.211,2.782-4.066,2.782c-1.475,0-3.397-0.394-3.397-2.237c0-0.955,0.503-1.773,1.322-2.266
		c-0.163-0.204-0.245-0.436-0.245-0.654c0-0.49,0.355-0.873,0.763-1.092c-0.258-0.328-0.477-0.846-0.477-1.447
		c0-2.143,1.665-3.151,3.616-3.151c0.683,0,1.407,0.123,1.94,0.463l0.953-0.244h1.324L56.722,9.757z M52.686,15.736l-2.565-0.479
		c-0.41,0.436-0.588,0.723-0.588,1.337c0,0.694,0.492,1.011,1.803,1.011c0.859,0,2.047-0.138,2.047-1.242
		C53.383,16.023,53.204,15.832,52.686,15.736 M52.508,9.594c-1.024,0-1.61,0.587-1.61,1.598c0,0.683,0.438,0.969,1.229,0.969
		c1.024,0,1.595-0.547,1.595-1.557C53.722,9.936,53.328,9.594,52.508,9.594"/>
	<path fill="#FFFFFF" d="M59.481,15.833h-0.929c-1.064,0-1.583-0.467-1.583-1.421c0-0.148,0.013-0.301,0.041-0.479l0.547-3.781
		c0.013-0.109,0.082-0.272,0.19-0.396h-1.324l0.192-1.377h3.015l-0.791,5.552c-0.013,0.069-0.013,0.139-0.013,0.194
		c0,0.163,0.067,0.217,0.272,0.217h0.588L59.481,15.833z M59.85,6.918c-0.015,0.124-0.015,0.124-0.123,0.124h-1.775
		c-0.108,0-0.108,0-0.096-0.124l0.071-1.69c0.013-0.137,0.013-0.151,0.123-0.151h1.774c0.11,0,0.11,0.015,0.094,0.151L59.85,6.918z"
		/>
	<path fill="#FFFFFF" d="M67.285,11.096l-0.669,4.612h-1.815l0.67-4.612c0.027-0.164,0.041-0.328,0.041-0.477
		c0-0.629-0.246-1.038-0.929-1.038c-0.56,0-1.215,0.313-1.748,0.641l-0.79,5.487H60.23l1.051-7.328h1.501l0.123,0.669
		c0.845-0.669,1.531-0.888,2.295-0.888c1.524,0,2.142,0.969,2.142,2.266C67.342,10.646,67.311,10.863,67.285,11.096"/>
	<path fill="#FFFFFF" d="M74.539,12.57h-4.926c-0.025,0.219-0.039,0.408-0.039,0.586c0,0.9,0.41,1.324,1.422,1.324
		c0.939,0,1.471-0.41,1.867-1.012l1.379,0.562c-0.645,1.227-1.844,1.896-3.453,1.896c-2.074,0-3.018-1.105-3.018-2.947
		c0-0.302,0.028-0.615,0.069-0.941c0.396-2.688,1.568-3.875,4.066-3.875c2.268,0,2.784,1.596,2.784,2.963
		C74.691,11.532,74.609,12.079,74.539,12.57 M71.689,9.608c-1.037,0-1.543,0.397-1.842,1.679h3.002
		c0.026-0.162,0.041-0.314,0.041-0.451C72.891,10.032,72.496,9.608,71.689,9.608"/>
	<polygon fill="#FFFFFF" points="83.391,15.708 81.561,15.708 82.203,11.287 77.85,11.287 77.208,15.708 75.379,15.708 
		76.799,5.869 78.626,5.869 78.066,9.757 82.421,9.757 82.98,5.869 84.809,5.869 	"/>
	<path fill="#FFFFFF" d="M91.555,12.037c-0.367,2.539-1.472,3.89-3.996,3.89c-2.156,0-2.935-1.321-2.935-2.989
		c0-0.285,0.026-0.6,0.067-0.899c0.369-2.58,1.459-3.875,3.985-3.875c2.142,0,2.945,1.255,2.945,2.948
		C91.623,11.409,91.598,11.711,91.555,12.037 M88.459,9.608c-1.12,0-1.666,0.573-1.939,2.429c-0.055,0.369-0.082,0.695-0.082,0.97
		c0,1.104,0.438,1.476,1.326,1.476c1.103,0,1.691-0.573,1.965-2.444c0.054-0.354,0.082-0.667,0.082-0.94
		C89.811,9.974,89.357,9.608,88.459,9.608"/>
	<path fill="#FFFFFF" d="M96.943,10.318c-0.258-0.465-0.736-0.724-1.486-0.724c-0.587,0-1.297,0.123-1.297,0.859
		c0,0.261,0.122,0.479,0.451,0.533l1.582,0.287c0.996,0.177,1.813,0.736,1.813,1.802c0,2.087-1.731,2.852-3.547,2.852
		c-1.285,0-2.291-0.437-2.783-1.583l1.525-0.559c0.289,0.518,0.754,0.75,1.448,0.75c0.683,0,1.529-0.205,1.529-1.053
		c0-0.299-0.137-0.518-0.533-0.584l-1.707-0.316c-0.789-0.148-1.567-0.75-1.567-1.882c0-1.938,1.596-2.538,3.289-2.538
		c1.514,0,2.346,0.614,2.717,1.486L96.943,10.318z"/>
	<path fill="#FFFFFF" d="M103.67,9.757h-1.876l-0.571,3.933c-0.015,0.066-0.015,0.136-0.015,0.19c0,0.409,0.218,0.601,0.668,0.601
		c0.627,0,0.914-0.19,1.338-0.451l0.845,1.039c-0.668,0.559-1.529,0.857-2.593,0.857c-1.146,0-2.101-0.503-2.101-1.799
		c0-0.141,0-0.289,0.025-0.438l0.491-3.388c0.017-0.135,0.138-0.366,0.263-0.545h-1.287L99.05,8.38h1.106l0.342-2.375l1.908-0.532
		l-0.422,2.907h2.312L103.67,9.757z"/>
	<path fill="#FFFFFF" d="M107.73,15.833h-0.93c-1.062,0-1.582-0.467-1.582-1.421c0-0.148,0.014-0.301,0.041-0.479l0.549-3.781
		c0.012-0.109,0.08-0.272,0.188-0.396h-1.09l0.191-1.377h2.782l-0.791,5.552c-0.012,0.069-0.012,0.139-0.012,0.194
		c0,0.163,0.065,0.217,0.271,0.217h0.588L107.73,15.833z M108.1,6.918c-0.014,0.124-0.014,0.124-0.123,0.124h-1.774
		c-0.106,0-0.106,0-0.095-0.124l0.068-1.69c0.016-0.137,0.016-0.151,0.124-0.151h1.774c0.109,0,0.109,0.015,0.094,0.151L108.1,6.918
		z"/>
	<path fill="#FFFFFF" d="M115.885,11.096l-0.668,4.612H113.4l0.67-4.612c0.027-0.164,0.041-0.328,0.041-0.477
		c0-0.629-0.245-1.038-0.93-1.038c-0.561,0-1.216,0.313-1.746,0.641l-0.791,5.487h-1.815l1.054-7.328h1.498l0.125,0.669
		c0.844-0.669,1.527-0.888,2.293-0.888c1.525,0,2.143,0.969,2.143,2.266C115.939,10.646,115.912,10.863,115.885,11.096"/>
	<path fill="#FFFFFF" d="M124.502,9.757h-0.463c-0.125,0-0.422-0.014-0.655-0.121c0.138,0.326,0.192,0.694,0.192,0.996
		c0,2.128-1.692,2.948-3.59,2.948c-0.422,0-0.832-0.041-1.187-0.123c-0.057-0.014-0.11-0.027-0.178-0.027
		c-0.207,0-0.328,0.109-0.328,0.312c0,0.137,0.065,0.232,0.367,0.289l2.635,0.49c1.459,0.271,1.965,0.899,1.965,1.705
		c0,2.359-2.211,2.782-4.065,2.782c-1.475,0-3.396-0.394-3.396-2.237c0-0.955,0.503-1.773,1.32-2.266
		c-0.162-0.204-0.243-0.436-0.243-0.654c0-0.49,0.354-0.873,0.763-1.092c-0.258-0.328-0.477-0.846-0.477-1.447
		c0-2.143,1.664-3.151,3.615-3.151c0.683,0,1.404,0.123,1.938,0.463l0.953-0.463h1.324L124.502,9.757z M120.75,15.736l-2.566-0.479
		c-0.408,0.436-0.586,0.723-0.586,1.337c0,0.694,0.491,1.011,1.803,1.011c0.858,0,2.048-0.138,2.048-1.242
		C121.447,16.023,121.268,15.832,120.75,15.736 M120.574,9.594c-1.025,0-1.611,0.587-1.611,1.598c0,0.683,0.438,0.969,1.229,0.969
		c1.024,0,1.597-0.547,1.597-1.557C121.787,9.936,121.393,9.594,120.574,9.594"/>
	<path fill="#FFFFFF" d="M22.728,13.841c-1.486,1.7-3.96,3.112-6.901,3.735c-3.776,0.803-7.267,0.08-9.105-1.628
		c-1.3-0.991-2.222-2.376-2.518-4.033C3.486,7.893,6.687,3.82,11.35,2.816c3.642-0.784,7.092,0.541,8.772,3.074
		c1.751-0.418,3.458-0.828,4.323-1.034c-2.189-3.661-7.575-5.543-13.369-4.303C4.104,2.042-0.805,7.481,0.118,12.699
		c0.921,5.218,7.32,8.24,14.296,6.746c3.912-0.836,7.172-2.916,9.119-5.502L22.728,13.841z"/>
	<path fill="#FFFFFF" d="M18.277,5.528c-1.591-1.445-4.068-2.104-6.665-1.544C7.6,4.844,4.834,8.276,5.433,11.646
		c0.02,0.105,0.051,0.207,0.075,0.313c0.092,0.373,0.221,0.729,0.386,1.067l0.013-0.006c-0.007-0.023-0.214-0.797-0.118-1.867
		c0.13-1.458,0.83-3.46,3.394-4.866C8.58,6.967,8.275,7.651,8.161,8.296c-0.27,1.536,0.545,2.865,1.045,3.487
		c-0.176-0.442-0.274-0.928-0.274-1.434c0-2.125,1.691-3.855,3.768-3.855c0.752,0,1.479,0.242,2.097,0.67
		c0.471-0.112,2.196-0.526,4.098-0.981C18.708,5.949,18.5,5.732,18.277,5.528"/>
	<path fill="#FFFFFF" d="M10.305,10.349c0-1.029,0.603-1.911,1.462-2.289C10.908,8.438,10.305,9.32,10.305,10.349
		c0,0.473,0.134,0.912,0.356,1.29C10.439,11.261,10.305,10.822,10.305,10.349"/>
	<path fill="#FFFFFF" d="M12.701,12.833c0.419,0,0.814-0.112,1.156-0.312C13.515,12.721,13.121,12.833,12.701,12.833
		c-0.866,0-1.618-0.481-2.039-1.192C11.082,12.354,11.833,12.833,12.701,12.833"/>
	<path fill="#FFFFFF" d="M25.432,5.879L14.447,8.657c-0.439-0.486-1.056-0.79-1.746-0.79c-0.331,0-0.647,0.067-0.933,0.193
		c-0.859,0.378-1.462,1.26-1.462,2.287c0,0.475,0.134,0.914,0.356,1.29c0.421,0.715,1.173,1.196,2.04,1.196
		c0.419,0,0.813-0.113,1.155-0.312c0.17-0.098,0.327-0.217,0.468-0.353c0.002-0.004,0.003-0.005,0.004-0.008
		c0.139-0.138,0.264-0.285,0.368-0.451c0.091-0.146,0.164-0.302,0.225-0.467c0.036-0.095,0.071-0.188,0.096-0.289l0.199-0.062
		l0.007-0.009l10.427-4.468L25.432,5.879z"/>
</g>
</svg>
