<?xml version="1.0" encoding="utf-8"?>
<!-- Generator: Adobe Illustrator 16.0.4, SVG Export Plug-In . SVG Version: 6.00 Build 0)  -->
<!DOCTYPE svg PUBLIC "-//W3C//DTD SVG 1.1//EN" "http://www.w3.org/Graphics/SVG/1.1/DTD/svg11.dtd">
<svg version="1.1" id="Layer_1" xmlns="http://www.w3.org/2000/svg" xmlns:xlink="http://www.w3.org/1999/xlink" x="0px" y="0px"
	 width="342.801px" height="343.093px" viewBox="469.6 228.2 342.801 343.093" enable-background="new 469.6 228.2 342.801 343.093"
	 xml:space="preserve">
<g id="Layer_2" display="none">
	<rect x="355" y="210" display="inline" fill="#ED1C24" width="560.8" height="53.4"/>
	<rect x="355" y="263.4" display="inline" fill="#F26522" width="560.8" height="53.4"/>
	<rect x="355" y="316.6" display="inline" fill="#FFDE17" width="560.8" height="53.4"/>
	<rect x="355" y="370" display="inline" fill="#00A14B" width="560.8" height="53.4"/>
	<rect x="355" y="423.4" display="inline" fill="#21409A" width="560.8" height="53.399"/>
	<rect x="355" y="476.6" display="inline" fill="#662D91" width="560.8" height="53.4"/>
	<rect x="355" y="530" display="inline" fill="#7F3F98" width="560.8" height="53.4"/>
</g>
<g id="Layer_1_1_" display="none">
	<g display="inline">
		<path fill="#FFFFFF" d="M749,396c1.8-1.8,5-5.2,6.8-6.4c2.4-1.8,15.2,0.2,25-6c9.8-6.199,21.8-20.6,25-26.6s3.2-9.8,4.2-17.2
			c0.8-7.2,2-15,2-15s-10.6,1.601-18.2,3.601c-7.399,1.8-12.8,5.199-17.2,8.8c-4.399,3.6-3.399,0.6-8.8,5.8
			c-5.399,5.2-10.8,14.2-13.399,22.8c-2.601,8.601-1.2,20-1.601,22c-0.399,1.4-2.2,3.4-3.6,4.601c0.6-6.4,1-13,1.2-17.2
			c0.6-8.2,0.399-17,0-22.2c-0.2-1.8-0.4-3.8-0.601-5.6c1.8-1.801,7.2-7.2,10-9.4c3.4-2.6,13.2-2.2,21-8c7.4-5.6,19.2-21.4,17-35.6
			s-9-24-9-24s-14.399,3.4-23,10.4c-8.6,7-18.2,22.6-16.8,34c1.6,11.4,8.6,16,8.4,19.8c-0.2,3.2-6.601,7.801-8.601,9
			c-0.2-2-0.6-3.8-0.399-5.199C748.8,333.8,746,325.8,746,325.8s-3-6.8-3.6-9c-0.4-2.2,1-7,2.6-11.6c1.6-4.6-0.8-14-0.2-19.4
			c0.4-5.4-1.6-15.4-1.8-17.8s-3.8-11-5.2-13c-1.2-2-1.8-3.8-3.6-6.4c-1.8-2.6-4.4-4-6.601-6c-2.199-2-4.6-4.4-6-6.4
			c-1.6-1.8-5.199-3-7-3.6c-1.8-0.6-4.8-4.8-4.8-4.8s-0.2,4.8-0.8,7c-0.6,2.2-2.6,3.6-3.6,9s-2,9.8-2,14.6
			c-0.2,4.6,1.2,14.6,3.399,19.4c2.2,4.8,5.4,10.8,11,18.6c5.601,7.6,20.4,18.8,22,21c1.601,2.199,3.801,11.399,3.801,11.399
			s1.6,7.4,2,16.4c-0.2,0-0.4,0.2-0.801,0.2c-1.399,0.199-4.8-2.4-6.6-4.2s-1.2-4.2-3-9S727.8,315.6,721,308
			c-6.8-7.6-15.8-10.2-24-11.2s-23.399,5-23.399,5s1.6,10.4,4.8,19.2c3.399,8.8,19.8,18.8,28,22c8.2,3,28,0.6,29.8,0.8
			s5.6,4,7.2,4.2c1,0.2,1.8-0.2,2.2-0.4v0.2c0,7.4,1.8,9.8,1.199,15.601c-0.6,6,0.4,12-0.8,16.399c-0.8,3-2.2,5.2-2.6,7
			c-0.8-0.2-1.8-0.8-2.2-1.399c-1-1.2-2.6-5-4.4-11.4c-2-6.4-11.399-17-17.399-22.4c-6-5.6-23.601-9.6-28.2-8.199
			c-4.4,1.399-14.8,0.199-14.8,0.199s2.8,11.4,4.6,16.4s0.8,7.2,3,11.6c2.2,4.2,3.4,6,10,11.601c6.6,5.6,16,7.8,23.6,7.2
			c7.601-0.601,20.2-2.801,22.601-2.4c2.399,0.4,3.2,1.4,3.2,1.4l0.199-0.4c0.801,2.2,1,6,0.801,9.8c-0.2,4-1,14.4-2.801,22.4
			c-1.8,8-4.199,20-5.8,21.6c-1.6,1.601-2.8,1.601-3.2,2.8l0,0c-0.6-0.399-1.199-1-2-2C729.2,441,730.4,435.4,728,424
			c-2.4-11.6-16-24.8-25.8-29.8c-9.8-4.8-29.2-5.2-29.2-5.2s1.6,11,3,14c1.2,3,0.2,5.2,3,13.6c2.8,8.4,11.8,16.2,22,22.601
			c10.2,6.2,26.6,4.8,28,6.2c1.2,1.199,2.6,2.8,3,3.399c-0.4,2.601-1.2,6-2.2,7.8c-1.8,2.801-5.6,15.2-12.2,23.801
			c-3.199,4.199-5.399,7.399-7,9.6c-0.8-0.8-4.6-4.4-6-6.4C703.2,481.4,708,472.2,707,461c-1-11.4-7-16.8-14.8-23.8
			c-8-6.8-25.6-6.2-25.6-6.2s-1.601,7-2,15.8c-0.4,8.601,5.199,18.8,12.8,25.8c7.6,7,20.6,6.8,24.6,11.601c2,2.399,7.4,7.6,7.4,7.8
			c-0.601,1-1,1.6-1,1.6s-2.601,5-6.2,8.601c-2.6,2.6-12,11-20.2,17.2c-0.8-1.4-2-3.601-2.6-5.2c-0.8-2.4,3.399-5.2,2.6-21.8
			c-0.8-14.601-17.6-23.801-22.2-26.801c-4.6-3-11-8-11-8s-11.2,19.801,0.601,40C656,508.8,676,513.2,677.2,515.2
			c0.6,1.2,1.8,4,2.6,5.8c-2.2,1.6-4.399,3-6.2,3.8c-8.6,4.4-9.8,6-16.6,9.2s-8.4,1.6-19.4,8.6C626.6,549.4,611.4,561.4,610,563.2
			c0,0,2,5.8,2.8,7c1,1.2,1.8,0.6,2.601,0c0.8-0.601-0.2-3,1.6-4.601c1.8-1.6,15.4-13.399,19.8-16.6c4.4-3,11.4-7,16.601-8.8
			c3.399-1.2,10.399-4.4,15.8-7.2c0.6,0.4,1.2,0.8,1.6,0.8c1.2,0.2,7-0.2,8.8,1.8c1.801,2,8.4,14.601,12.801,17.2
			c4.399,2.6,12.6,8.8,21.8,6.2c9-2.6,14.8-2.2,19-5.2s6.399-8.6,6.399-8.6s-2.199-2.4-3.399-5.2s-8.4-11.601-13.2-14
			c-5-2.4-17.4-6.4-24.6-3.601c-7.2,2.801-14,9-16.601,10.2c-2.6,1-8.6-0.399-9.6-1c0,0-0.2,0-0.2-0.2c1.8-0.8,3.2-1.8,4-2.199
			c3.2-2.2,20.4-15.601,24.8-19.4c2.4-2.2,5.601-5.8,8.8-9.6c1.801,0.199,5.4,0.8,6.2,1.199c1.2,0.801,10.4,9.801,16.2,12
			c5.8,2.2,19.2,8.2,28.4,3.2c9.199-5,15.399-14.399,15.399-14.399s-2.6-5.801-6.399-8.801c-4-3-16-7.8-21-7.6c-5,0-11,0-16.2,2
			s-14.2,9.8-15.2,10.4c-1,0.6-3.6-0.801-4.8-1.4c1.6-2.2,3.2-4.2,4.399-6c4.2-6.2,9.601-14.2,11-15.4
			c0.4-0.399,0.801-1.199,1.2-2.199c2.2-0.4,6-1,7.601-1.4c2.399-0.4,7.8,4.4,13,5.4c5.199,1,9.399,0,14.399,0s11.2,3.8,22.8,1
			C798,475.6,809.2,463.8,809.2,463.8s-2-0.6-3.2-2c-1.4-1.6-2.4-3-4.8-6.6c-2.4-3.4-6-5.801-13.4-10.2
			c-7.399-4.4-19-0.601-22,0.399c-3,1.2-8,1.4-13.8,5.4s-12.6,16.2-15.4,18c-2.399,1.6-6.399,0.8-7,0.6c0.4-1.8,1-3.8,1.801-5.399
			c1.8-3.4,8.399-19.4,10.6-25c2.4-1.4,7.4-4.4,8.8-5.2c1.8-1.2,3.8-1.4,9.2,0.2c5.6,1.6,18.4,2.6,26.6-1.4
			c8.2-4.2,19.2-18,21.601-24.6c2.6-6.601,4.2-17.601,4.2-17.601s-5.601,0.2-8.2,0c-2.601-0.199-9.4-2-18-0.8
			c-8.601,1-19.4,4.601-26.4,13.2c-6.8,8.6-7.4,25.8-9.6,28.4c-1.601,1.8-5,3.199-6.601,4c1.601-6.4,4.2-21,4.8-27.2
			C748.2,405.6,748.6,401,749,396z"/>
		<path fill="#FFFFFF" d="M532.8,396c-1.8-1.8-5-5.2-6.8-6.4c-2.4-1.8-15.2,0.2-25-6c-9.8-6.199-21.8-20.6-25-26.6
			s-3.2-9.8-4.2-17.2c-0.8-7.2-2-15-2-15S480.4,326.4,488,328.4c7.4,1.8,12.8,5.199,17.2,8.8c4.399,3.6,3.399,0.6,8.8,5.8
			s10.8,14.2,13.4,22.8c2.6,8.601,1.199,20,1.6,22c0.4,1.4,2.2,3.4,3.6,4.601c-0.6-6.4-1-13-1.199-17.2c-0.601-8.2-0.4-17,0-22.2
			c0.199-1.8,0.399-3.8,0.6-5.6c-1.8-1.801-7.2-7.2-10-9.4c-3.4-2.6-13.4-2.2-21-8c-7.4-5.6-19.2-21.4-17-35.6s9-24,9-24
			s14.4,3.4,23,10.4s18.2,22.6,16.8,34c-1.6,11.4-8.6,16-8.399,19.8c0.199,3.2,6.6,7.801,8.6,9c0.2-2,0.4-3.8,0.4-5.199
			C533,333.8,535.8,325.8,535.8,325.8s3-6.8,3.601-9c0.399-2.2-1-7-2.601-11.6c-1.6-4.6,0.8-14,0.2-19.4c-0.4-5.4,1.6-15.4,1.8-18
			c0.2-2.4,3.8-11,5-13s1.8-3.8,3.601-6.4c1.8-2.6,4.399-4,6.6-6s4.6-4.4,6-6.4c1.4-1.8,5.2-3,7-3.6s4.8-4.8,4.8-4.8s0.2,4.8,0.8,7
			c0.601,2.2,2.601,3.6,3.601,9c1,5.4,2,9.8,2,14.6c0.199,4.6-1.2,14.6-3.4,19.4c-2.2,4.8-5.4,10.8-11,18.6
			c-5.6,7.6-20.4,18.8-22,21S538,328.6,538,328.6s-1.601,7.4-2,16.4c0.2,0,0.399,0.2,0.8,0.2c1.4,0.2,4.8-2.4,6.6-4.2
			c1.801-1.8,1.2-4.2,3-9c1.801-4.8,7.4-16.601,14.2-24.2c6.8-7.6,15.8-10.2,24-11.2s23.4,5,23.4,5s-1.4,10.4-4.8,19.2
			c-3.2,8.8-19.801,18.8-28,22c-8.2,3-28,0.6-29.801,0.8c-1.8,0.2-5.6,4-7.199,4.2c-1,0.2-1.801-0.2-2.2-0.4v0.2
			c0,7.4-1.8,9.8-1.2,15.601c0.6,6-0.4,12,0.8,16.399c0.8,3,2.2,5.2,2.601,7c0.8-0.2,1.8-0.8,2.199-1.399c1-1.2,2.601-5,4.4-11.4
			c2-6.399,11.4-17,17.4-22.399c6-5.601,23.6-9.601,28.199-8.2c4.4,1.399,14.801,0.2,14.801,0.2S602.399,354.8,600.6,359.8
			s-0.8,7.2-3,11.601c-2.2,4.199-3.399,6-10,11.6c-6.6,5.6-16,7.8-23.6,7.2c-7.6-0.601-20.2-2.8-22.6-2.4c-2.4,0.4-3.2,1.4-3.2,1.4
			l-0.2-0.4c-0.8,2.2-1,6-0.8,9.8c0.2,4,1,14.4,2.8,22.4s4.2,20,5.8,21.6c1.6,1.601,2.8,1.601,3.2,2.801l0,0c0.6-0.4,1.2-1,2-2
			c1.4-2.601,0.2-8.2,2.6-19.601c2.4-11.6,16-24.8,25.8-29.8c9.801-4.8,29.2-5.2,29.2-5.2s-1.6,11-2.8,14s-0.2,5.2-3,13.601
			C600,424.8,591,432.6,580.8,439c-10.2,6.2-26.6,4.8-28,6.2c-1.2,1.2-2.6,2.8-3,3.399c0.4,2.601,1.2,6,2.2,7.801
			c1.8,2.8,5.6,15.199,12.2,23.8c3.2,4.2,5.399,7.399,7,9.6c0.8-0.8,4.6-4.399,6-6.399c1.399-2.2-3.4-11.4-2.4-22.601
			c0.8-11.399,7-16.8,14.8-23.8c8-6.8,25.601-6.2,25.601-6.2s1.6,7,2,15.8c0.399,8.601-5.2,18.8-12.801,25.8
			c-7.6,7-20.6,6.801-24.6,11.601c-2,2.399-7.2,7.6-7.4,7.8c0.601,1,1,1.6,1,1.6s2.601,5,6.2,8.601c2.601,2.6,12,11,20.2,17.2
			c0.8-1.4,2-3.601,2.6-5.2c0.801-2.4-3.399-5.2-2.6-21.8c0.8-14.601,17.6-23.8,22.2-26.8c4.6-3,11-8,11-8s11.2,19.8-0.6,40
			C625.8,508.6,605.8,513,604.6,515c-0.6,1.2-1.8,4-2.6,5.8c2.2,1.601,4.4,3,6.2,3.8c8.6,4.4,9.8,6,16.6,9.2s8.4,1.601,19.4,8.601
			c11,6.8,26.2,18.8,27.6,20.6c0,0-2,5.8-2.8,7c-1,1.2-1.8,0.6-2.6,0c-0.801-0.6,0.199-3-1.601-4.6C663,563.8,649.4,552,645,548.8
			c-4.4-3-11.4-7-16.6-8.8c-3.4-1.2-10.4-4.4-15.801-7.2c-0.6,0.4-1.199,0.8-1.6,0.8c-1.2,0.2-7-0.2-8.8,1.8s-8.4,14.601-12.8,17.2
			c-4.4,2.601-12.601,8.8-21.801,6.2c-9-2.6-14.8-2.2-19-5.2c-4.199-3-6.399-8.6-6.399-8.6s2.2-2.4,3.399-5.2
			c1.2-2.8,8.4-11.6,13.2-14c5-2.4,17.4-6.4,24.601-3.6c7.199,2.8,14,9,16.6,10.199c2.6,1,8.6-0.399,9.6-1c0,0,0.2,0,0.2-0.199
			c-1.8-0.801-3.2-1.801-4-2.2c-3.2-2.2-20.399-15.601-24.8-19.4c-2.4-2.2-5.6-5.8-8.8-9.6c-1.8,0.2-5.4,0.8-6.2,1.2
			c-1.2,0.6-10.4,9.8-16.2,12c-5.8,2.199-19.2,8.199-28.399,3.199C512.2,511.399,506,502,506,502s2.6-5.8,6.4-8.8
			c4-3,16-7.801,21-7.601c5,0,11,0,16.199,2c5.2,2,14.2,9.8,15.2,10.4c1,0.6,3.601-0.8,4.8-1.4c-1.6-2.2-3.199-4.2-4.399-6
			c-4.2-6.2-9.601-14.2-11-15.399c-0.4-0.4-0.8-1.2-1.2-2.2c-2.2-0.4-6-1-7.6-1.4c-2.4-0.399-7.801,4.4-13,5.4c-5.2,1-9.4,0-14.4,0
			s-11.2,3.8-22.8,1c-11.4-2.601-22.601-14.4-22.601-14.4s2-0.6,3.2-2c1.4-1.6,2.4-3,4.8-6.6c2.4-3.4,6-5.8,13.4-10.2
			s18.8-0.6,22,0.4c3,1.199,8,1.399,13.8,5.399s12.601,16.2,15.4,18c2.399,1.601,6.399,0.8,7,0.601c-0.4-1.801-1-3.801-1.8-5.4
			c-1.601-3.6-8.4-19.4-10.601-25c-2.399-1.4-7.399-4.4-8.6-5.2c-1.8-1.2-3.8-1.399-9.2,0.2c-5.6,1.6-18.4,2.6-26.6-1.4
			c-8.2-4.199-19.2-18-21.601-24.6c-2.6-6.6-4-17.6-4-17.6s5.601,0.199,8.2,0c2.6-0.2,9.4-2,18-0.801c8.6,1,19.4,4.601,26.4,13.2
			c6.8,8.601,7.399,25.8,9.6,28.4c1.6,1.8,5,3.2,6.6,4c-1.6-6.4-4.199-21-4.8-27.2C533.6,405.6,533.2,401,532.8,396z"/>
	</g>
</g>
<g id="Layer_2_copy">
	<g>
		<path fill="#21409A" d="M555,476.6c-0.4-0.399-0.6-0.8-0.8-1c-0.4-0.399-0.8-1.199-1.2-2.199"/>
		<path fill="#21409A" d="M534.8,476.6"/>
		<path fill="#7F3F98" d="M672.6,531.8c1,0.601,7,2,9.601,1c1-0.399,2.399-1.399,4.2-2.8H675.6C674.6,530.4,673.6,531,672.6,531.8
			C672.4,531.6,672.4,531.8,672.6,531.8z"/>
		<path fill="#7F3F98" d="M609.2,531.8C609.4,531.8,609.4,531.6,609.2,531.8c-1-0.8-2-1.399-2.8-1.8H595.6
			c1.801,1.4,3.2,2.4,4.2,2.8C602.2,533.8,608.2,532.4,609.2,531.8z"/>
		<path fill="#ED1C24" d="M577.6,258.8c-0.199-4.6-1-9.2-2-14.6c-1-5.4-2.8-6.6-3.6-9c-0.6-2.2-0.8-7-0.8-7s-3,4.2-4.8,4.8
			c-1.801,0.6-5.4,1.8-7,3.6c-1.4,1.8-4,4.4-6,6.4c-2.2,2-4.801,3.4-6.601,6s-2.2,4.4-3.6,6.4c-0.8,1.2-2.4,4.8-3.601,7.8H577.2
			C577.6,261.6,577.6,260,577.6,258.8z"/>
		<path fill="#ED1C24" d="M738.6,255.6c-1.199-2-1.8-3.8-3.6-6.4c-1.8-2.6-4.4-4-6.6-6c-2.2-2-4.601-4.4-6-6.4
			c-1.601-1.8-5.2-3-7-3.6c-1.801-0.6-4.801-4.8-4.801-4.8s-0.199,4.8-0.8,7c-0.6,2.2-2.6,3.6-3.6,9s-2,9.8-2,14.6
			c0,1.2,0,2.8,0.2,4.6H742C740.8,260.2,739.2,256.8,738.6,255.6z"/>
		<path fill="#F26522" d="M721.8,308.4c-6.8-7.601-15.8-10.2-24-11.2s-23.399,5-23.399,5s1,7.2,3.199,14.6H728
			C726,313.8,724,310.8,721.8,308.4z"/>
		<path fill="#F26522" d="M607.4,302.2c0,0-15.2-6-23.4-5s-17.2,3.6-24,11.2c-2.2,2.399-4.4,5.399-6.2,8.399H604
			C606.4,309.2,607.4,302.2,607.4,302.2z"/>
		<path fill="#F26522" d="M798.2,294.8c-2.2-14.2-9-24-9-24s-14.4,3.4-23,10.4c-8.601,7-18.2,22.6-16.8,34
			c0,0.399,0.199,1,0.199,1.399h43C796.6,310,799.2,302.2,798.2,294.8z"/>
		<path fill="#F26522" d="M532.4,315.4c1.399-11.4-8.2-27-16.801-34c-8.6-7-23-10.4-23-10.4s-6.8,9.8-9,24
			c-1.199,7.4,1.601,15.4,5.601,22h43C532.2,316.2,532.4,315.8,532.4,315.4z"/>
		<path fill="#F26522" d="M718.4,296.8c5,6.8,17.199,16.4,21,20h3.399c0-2.399,1.2-6.6,2.601-10.8c1.6-4.6-0.801-14-0.2-19.4
			c0.399-5.4-1.601-15.4-1.8-17.8c-0.2-1-0.801-3-1.601-5.2h-37.6c0.399,5,1.6,11.2,3.2,14.8C709.8,283,713,289,718.4,296.8z"/>
		<path fill="#F26522" d="M536.4,286.4c0.399,5.4-1.801,14.8-0.2,19.4c1.399,4.2,2.8,8.601,2.6,11h3.4c3.8-3.6,16.2-13.2,21-20
			c5.6-7.6,8.6-13.6,11-18.6c1.6-3.6,2.8-9.8,3.2-14.8H539.8c-0.8,2.2-1.399,4-1.6,5C538,271,536,281,536.4,286.4z"/>
		<path fill="#FFDE17" d="M604.6,344c0,0-10.199,1.2-14.8-0.2c-4.399-1.399-22.2,2.601-28.2,8.2c-4.8,4.4-11.8,12-15.399,18.2H597.6
			c1-3.2,0.601-5.4,2.2-9.601C601.8,355.4,604.6,344,604.6,344z"/>
		<path fill="#FFDE17" d="M805.8,357c3.2-6,3.2-9.8,4.2-17.2c0.8-7.2,2-15,2-15s-10.6,1.601-18.2,3.601
			c-7.399,1.8-12.8,5.199-17.2,8.8c-4.399,3.6-3.399,0.6-8.8,5.8c-5.399,5.2-10.8,14.2-13.399,22.8c-0.4,1.2-0.601,2.601-1,4H796
			C800.6,365,804.2,360,805.8,357z"/>
		<path fill="#FFDE17" d="M720.2,351.8c-6-5.6-23.601-9.6-28.2-8.2c-4.4,1.4-14.8,0.2-14.8,0.2s2.8,11.4,4.6,16.4
			c1.601,4.2,1,6.399,2.2,9.6h51.4C731.8,363.8,725,356.2,720.2,351.8z"/>
		<path fill="#FFDE17" d="M527.4,366c-2.601-8.6-8-17.6-13.4-22.8s-4.4-2-8.8-5.8c-4.4-3.601-9.601-7-17.2-8.801
			c-7.4-1.8-18.2-3.6-18.2-3.6s1,7.6,2,15c0.8,7.2,1,11.2,4.2,17.2c1.6,3,5.2,8,9.8,13h42.4C528,368.6,527.8,367.2,527.4,366z"/>
		<path fill="#FFDE17" d="M740.6,317.8c1.601,2.2,3.801,11.4,3.801,11.4s1.6,7.399,2,16.399c-0.2,0-0.4,0.2-0.801,0.2
			c-1.399,0.2-4.8-2.399-6.6-4.2c-1.8-1.8-1.2-4.199-3-9c-1.2-3.199-4.2-9.6-8-15.8h-50.4c0.4,1.601,1,3,1.601,4.601
			c3.399,8.8,19.8,18.8,28,22c8.2,3,28,0.6,29.8,0.8s5.6,4,7.2,4.2c1,0.199,1.8-0.2,2.2-0.4v0.2c0,7.399,1.8,9.8,1.199,15.6
			c-0.199,2.2-0.199,4.2-0.199,6.4h3.399c0.2-6.4,0-12.601-0.2-16.601c-0.199-1.8-0.399-3.8-0.6-5.6c1.8-1.8,7.2-7.2,10-9.4
			c3.4-2.6,13.2-2.199,21-8c3.6-2.6,8-7.6,11.6-13.6h-43c1.801,10.4,8.4,14.8,8.2,18.4c-0.2,3.199-6.6,7.8-8.6,9
			c-0.2-2-0.601-3.801-0.4-5.2c0.4-4.601-2.399-12.601-2.399-12.601s-3-6.8-3.4-9c0-0.199,0-0.399,0-0.8h-3.4
			C740,317.2,740.4,317.4,740.6,317.8z"/>
		<path fill="#FFDE17" d="M534.2,363.6c-0.601-6,1.2-8.399,1.2-15.6v-0.2c0.399,0.2,1.199,0.4,2.199,0.4c1.601-0.2,5.4-3.8,7.2-4.2
			c1.8-0.2,21.601,2.2,29.8-0.8c8.2-3,24.601-13.2,28-22c0.601-1.4,1-3,1.601-4.601H554c-3.8,6.2-6.8,12.601-8,15.801
			c-1.8,4.8-1.2,7.199-3,9c-1.8,1.8-5.2,4.399-6.6,4.199c-0.2,0-0.4-0.199-0.801-0.199c0.2-9,2-16.4,2-16.4s2.2-9.2,3.801-11.4
			c0.199-0.199,0.6-0.6,1-1H539c0,0.2,0,0.601,0,0.801c-0.4,2.199-3.6,9-3.6,9s-2.801,8-2.4,12.6c0.2,1.2,0,3.2-0.4,5.2
			c-2-1.2-8.399-5.8-8.6-9c-0.2-3.601,6.2-8,8.2-18.4h-43c3.6,6,8,11,11.6,13.601c7.8,5.8,17.601,5.399,21,8
			c2.8,2.199,8.4,7.6,10,9.399c-0.2,1.8-0.6,3.8-0.6,5.601c-0.2,4-0.4,10.199-0.2,16.6h3.4C534.4,368,534.4,365.8,534.2,363.6z"/>
		<path fill="#00A14B" d="M808.2,408.6c2.6-6.6,4.2-17.6,4.2-17.6s-5.601,0.2-8.2,0c-2.601-0.2-9.4-2-18-0.8
			c-8.601,1-19.4,4.6-26.4,13.2c-4.2,5.199-6,13.6-7.2,19.8H798C802.8,418,806.8,412.2,808.2,408.6z"/>
		<path fill="#00A14B" d="M522.2,403.4c-6.8-8.601-17.601-12.2-26.4-13.2s-15.399,0.8-18,0.8c-2.6,0.2-8.2,0-8.2,0s1.601,11,4,17.6
			c1.4,3.601,5.4,9.601,10.2,14.801h45.8C528.2,417,526.4,408.6,522.2,403.4z"/>
		<path fill="#00A14B" d="M746.8,380c-0.8,3-2.2,5.2-2.6,7c-0.8-0.2-1.8-0.8-2.2-1.4c-1-1.199-2.6-5-4.4-11.399
			c-0.399-1.4-1-2.8-2-4.4H684c0.2,0.601,0.4,1.2,0.8,2c2.2,4.2,3.4,6,10,11.601c6.601,5.6,16,7.8,23.601,7.199
			c7.6-0.6,20.199-2.8,22.6-2.399c2.4,0.399,3.2,1.399,3.2,1.399l0.2-0.399c0.8,2.2,1,6,0.8,9.8c-0.2,4-1,14.4-2.8,22.4
			c-0.2,0.6-0.2,1-0.4,1.6h3.8c1-5.6,2-11.4,2.2-14.8c0.2-3,0.6-7.601,1-12.601c1.8-1.8,5-5.199,6.8-6.399c2.4-1.8,15.2,0.2,25-6
			c5-3.2,10.601-8.4,15.2-13.601h-42.4c-1.399,7.801-0.199,16.4-0.8,18c-0.399,1.4-2.2,3.4-3.6,4.601c0.6-6.4,1-13,1.2-17.2
			c0.199-1.8,0.199-3.6,0.199-5.4H747.2C747.4,373.8,747.6,377.2,746.8,380z"/>
		<path fill="#00A14B" d="M539.4,421.6c-1.801-8-2.4-18.399-2.801-22.399c-0.199-3.8,0-7.601,0.801-9.8l0.199,0.399
			c0,0,0.801-1.2,3.2-1.399c2.4-0.4,15,1.8,22.601,2.399c7.6,0.601,17-1.6,23.6-7.2c6.6-5.6,7.8-7.399,10-11.6
			c0.4-0.6,0.6-1.4,0.8-2H546.4c-1,1.6-1.601,3-2,4.4C542.6,380.8,541,384.6,540,385.8c-0.4,0.601-1.4,1-2.2,1.4
			c-0.399-1.8-1.6-4-2.6-7c-0.8-2.8-0.601-6.4-0.601-10H531.2c0,1.8,0.2,3.6,0.2,5.399c0.199,4.2,0.8,10.801,1.199,17.2
			c-1.199-1.2-3.199-3.2-3.6-4.6c-0.4-1.8,0.6-10.2-0.8-18h-42.4c4.601,5.2,10.2,10.6,15.2,13.6c9.8,6.2,22.8,4.2,25,6
			c1.6,1.4,5,4.601,6.8,6.4c0.4,5,0.8,9.6,1,12.6c0.2,3.4,1.2,9,2.2,14.8h3.8C539.6,422.8,539.4,422.2,539.4,421.6z"/>
		<path fill="#00A14B" d="M605,403.4c1.2-3,2.8-14,2.8-14S588.4,389.6,578.6,394.6C569,399.4,555.8,412.2,553,423.4h45.6
			c1.4-2.2,2.601-4.2,3.4-6.4C604.8,408.6,603.8,406.4,605,403.4z"/>
		<path fill="#00A14B" d="M703,394.6c-9.8-4.8-29.2-5.199-29.2-5.199s1.601,11,3,14c1.2,3,0.2,5.199,3,13.6c0.8,2.2,2,4.4,3.4,6.4
			h45.6C725.8,412,712.6,399.4,703,394.6z"/>
		<path fill="#21409A" d="M551.2,456.8c-1.2-1.8-1.8-5.399-2.2-7.8c0.6-0.6,1.8-2.2,3-3.4c1.4-1.6,18,0,28-6.199
			c7.4-4.601,14.4-10.2,18.6-16H553c0,0.399-0.2,0.6-0.2,1c-2.399,11.6-1.2,17.199-2.6,19.6c-0.601,1-1.4,1.8-2,2l0,0
			c-0.4-1-1.601-1.2-3.2-2.8c-1.6-1.4-3.6-12-5.4-20H536c0.8,4.8,1.8,9.399,2.6,12.399c-1.8-0.8-5-2.199-6.6-4
			c-1-1-1.6-4.199-2.4-8.399h-45.8c3.8,4.2,8,8,11.601,9.8c8.199,4.2,21,3.2,26.6,1.4c5.6-1.801,7.6-1.601,9.2-0.2
			c1.2,1,6.399,3.8,8.6,5.2c2.2,5.399,8.8,21.399,10.601,25c0.8,1.6,1.199,3.399,1.8,5.399c-0.601,0.2-4.601,1-7-0.6
			c-2.601-1.8-9.601-14-15.4-18S519,447,516,445.8s-14.4-4.8-22-0.399c-7.4,4.399-11,6.8-13.4,10.199c-2.399,3.4-3.399,5-4.8,6.601
			c-1.399,1.6-3.2,2-3.2,2s7.801,8.2,17.2,12.399H535c4.2-1.8,8.2-4.8,10.4-4.6c1.8,0.2,5.399,1,7.6,1.4c0.2,1,0.6,1.8,1.2,2.199
			c0.2,0.2,0.6,0.601,0.8,1h6C555.8,468.6,552.8,459.2,551.2,456.8z"/>
		<path fill="#21409A" d="M707.8,461c-1-11.4-7-16.8-14.8-23.8c-8-6.8-25.6-6.2-25.6-6.2s-1.601,7-2,15.8
			c-0.4,8.601,5.199,18.8,12.8,25.8c1.8,1.801,4,3,6.399,4H706C707,472.6,708.2,467.2,707.8,461z"/>
		<path fill="#21409A" d="M621.2,465.6c-2.601,1.801-9,5.4-14.4,11H637c-0.2-11-4.8-19-4.8-19S625.8,462.6,621.2,465.6z"/>
		<path fill="#21409A" d="M736.6,443.4c-1.6,1.6-2.8,1.6-3.199,2.8l0,0c-0.601-0.4-1.2-1-2-2c-1.4-2.601-0.2-8.2-2.601-19.601
			c0-0.399-0.2-0.6-0.2-1H683c4.2,6,11,11.4,18.6,16c10.2,6.2,26.601,4.801,28,6.2c1.2,1.2,2.601,2.8,3,3.4
			c-0.399,2.6-1.199,6-2.199,7.8c-1.4,2.4-4.601,11.8-9.601,19.8h6c0.4-0.399,0.601-0.8,0.8-1c0.4-0.399,0.801-1.2,1.2-2.2
			c2.2-0.399,6-1,7.601-1.399c2-0.4,6,2.8,10.199,4.6H792c9.2-4.2,17-12.399,17-12.399s-2-0.601-3.2-2
			c-1.399-1.601-2.399-3-4.8-6.601c-2.4-3.399-6-5.8-13.4-10.2c-7.399-4.399-19-0.6-22,0.4c-3,1.2-8,1.4-13.8,5.4
			s-12.6,16.199-15.399,18c-2.4,1.6-6.4,0.8-7,0.6c0.399-1.8,1-3.8,1.8-5.4c1.8-3.6,8.399-19.399,10.6-25
			c2.4-1.399,7.4-4.399,8.8-5.199c1.801-1.2,3.801-1.4,9.2,0.199c5.601,1.601,18.4,2.601,26.601-1.399c3.6-1.8,7.8-5.601,11.6-9.8
			h-45.6C751.6,427.6,751,430.8,750,431.8c-1.6,1.8-5,3.2-6.6,4c0.8-3,1.6-7.6,2.6-12.399h-4C740.2,431.2,738.2,441.8,736.6,443.4z"
			/>
		<path fill="#21409A" d="M660.6,465.6c-4.6-3-11-8-11-8s-4.6,8-4.8,19H675C669.6,471.2,663.2,467.4,660.6,465.6z"/>
		<path fill="#21409A" d="M616.6,446.8c-0.399-8.6-2-15.8-2-15.8s-17.6-0.6-25.6,6.2S575,449.6,574.2,461c-0.4,6,0.6,11.4,1.6,15.6
			H597.4c2.399-1,4.6-2.399,6.399-4C611.4,465.6,617,455.6,616.6,446.8z"/>
		<path fill="#662D91" d="M495.2,478.6c11.399,2.601,17.8-1,22.8-1c5-0.199,9.2,1,14.4,0c0.8-0.199,1.8-0.399,2.6-0.8h-45.2
			C491.4,477.4,493.2,478.2,495.2,478.6z"/>
		<path fill="#662D91" d="M718.2,480.6c-3.2,4.2-5.4,7.4-7,9.601c-0.8-0.8-4.601-4.4-6-6.4c-0.601-1,0-3.6,0.8-7.2h-21.8
			c7,3.2,15.2,4,18.2,7.601c2,2.399,7.399,7.6,7.399,7.8c-0.6,1-1,1.6-1,1.6s-2.6,5-6.2,8.601c-2.6,2.6-12,11-20.199,17.2
			c-0.801-1.4-2-3.601-2.601-5.2c-0.8-2.4,3.4-5.2,2.601-21.8c-0.4-6.4-3.601-11.601-7.801-16H644.4c-0.2,6.399,1,13.8,5.399,21.199
			C656.4,508.8,676.4,513.2,677.6,515.2c0.601,1.2,1.801,4,2.601,5.8c-2.2,1.6-4.4,3-6.2,3.8c-4.4,2.2-6.8,3.601-9,5h10.2
			c0.399-0.2,0.6-0.399,0.8-0.6c3.2-2.2,20.4-15.601,24.8-19.4c2.4-2.2,5.601-5.8,8.8-9.6c1.801,0.2,5.4,0.8,6.2,1.2
			c1.2,0.8,10.4,9.8,16.2,12c5.8,2.199,19.2,8.199,28.4,3.199c9.199-5,15.399-14.399,15.399-14.399s-2.6-5.8-6.399-8.8
			c-4-3-16-7.801-21-7.601c-5,0-11,0-16.2,2s-14.2,9.8-15.2,10.4c-1,0.6-3.6-0.8-4.8-1.4c1.6-2.2,3.2-4.2,4.399-6
			c3.601-5.399,8-12,10.2-14.6h-6C720.2,478,719.2,479.4,718.2,480.6z"/>
		<path fill="#7F3F98" d="M723.4,526.2c-5-2.4-17.4-6.4-24.601-3.601c-4.6,1.801-9,5-12.399,7.4h42
			C726.6,528.4,724.8,527,723.4,526.2z"/>
		<path fill="#7F3F98" d="M583.2,522.6c-7.2-2.8-19.601,1.2-24.601,3.601c-1.6,0.8-3.199,2.2-5,3.8h42
			C592.2,527.6,587.8,524.4,583.2,522.6z"/>
		<path fill="#662D91" d="M607.6,524.8c-1.8-1-4-2.2-6.199-3.8c0.6-1.8,1.8-4.6,2.6-5.8c1-1.8,21.2-6.4,27.8-17.601
			c4.4-7.399,5.601-14.8,5.4-21H607c-4,4.2-7.4,9.601-7.8,15.801c-0.8,16.6,3.399,19.399,2.6,21.8c-0.399,1.6-1.6,3.8-2.6,5.2
			c-8.2-6-17.601-14.4-20.2-17.2c-3.6-3.601-6.2-8.601-6.2-8.601s-0.399-0.6-1-1.6c0,0,5.4-5.4,7.4-7.8c3-3.8,11.2-4.601,18.2-7.601
			H575.8c0.8,3.601,1.4,6,0.8,7c-1.399,2-5.199,5.601-6,6.4c-1.6-2.2-3.8-5.4-7-9.6c-1-1.2-1.8-2.601-2.8-4h-6
			C557,479,561.4,485.6,565,490.8c1.2,1.8,2.8,4,4.4,6c-1,0.601-3.801,2-4.801,1.4c-1.199-0.601-10-8.4-15.199-10.4
			c-5.2-2-11.2-2-16.2-2s-17,4.8-21,7.601c-4,3-6.4,8.8-6.4,8.8s6.4,9.2,15.4,14.399c9.2,5,22.6-1,28.399-3.199
			c5.801-2.2,15-11.4,16.2-12c0.8-0.601,4.4-1,6.2-1.2c3.2,3.8,6.4,7.399,8.8,9.6c4.2,4,21.4,17.2,24.8,19.4
			c0.2,0.2,0.601,0.399,1,0.6h10.2C614.4,528.6,612,527,607.6,524.8z"/>
		<path fill="#662D91" d="M749.6,477.4c5.2,1,9.4,0,14.4,0s11.2,3.8,22.8,1c1.8-0.4,3.8-1.2,5.601-2H747
			C747.8,477,748.6,477.4,749.6,477.4z"/>
		<path fill="#7F3F98" d="M657.6,534c-6.199,3-8.199,2-16.6,7c-8.6-5-10.6-4-16.8-7c-3.4-1.6-5.4-2.8-7.601-4H606.4
			c0.8,0.4,1.8,1,3,1.6c0,0-0.2,0-0.2,0.2c-1,0.601-7,2-9.601,1c-1-0.399-2.399-1.399-4.199-2.8h-42c-3.801,3.6-7.4,8.4-8.2,10.2
			c-1.2,2.8-3.4,5.2-3.4,5.2s2.2,5.6,6.4,8.6s10,2.6,19,5.2c9,2.6,17.399-3.601,21.8-6.2s11-15.2,12.8-17.2s7.8-1.6,8.8-1.8
			c0.601,0,1.2-0.4,1.601-0.8c5.399,2.8,12.399,5.8,15.8,7.2c2.4,1,5.2,2.199,8,3.8c-10.8,7-24.2,17.399-25.6,19.399
			c0,0,2,5.801,2.8,7c1,1.2,1.8,0.601,2.6,0c0.8-0.6-0.2-3,1.601-4.6c1.8-1.6,15.399-13.4,19.8-16.6c1.2-0.8,2.399-1.601,3.8-2.4
			c1.4,0.8,2.6,1.601,3.6,2.4c4.4,3,18,15,19.8,16.6c1.801,1.6,0.801,4,1.601,4.6c0.6,0.601,1.6,1.2,2.6,0c1-1.199,2.8-7,2.8-7
			C670,561.8,656.6,551.2,646,544.4c2.8-1.4,5.6-2.801,8-3.801c3.399-1.199,10.399-4.399,15.8-7.199c0.6,0.399,1.2,0.8,1.6,0.8
			c1.2,0.2,7-0.2,8.8,1.8c1.801,2,8.4,14.6,12.801,17.2c4.399,2.6,12.6,8.8,21.8,6.2c9-2.601,14.8-2.2,19-5.2
			s6.399-8.601,6.399-8.601S738,543.2,736.8,540.4c-0.8-2-4.601-6.601-8.4-10.2h-42c-1.8,1.399-3.399,2.399-4.2,2.8
			c-2.6,1-8.6-0.4-9.6-1c0,0-0.2,0-0.2-0.2c1.2-0.6,2.2-1.2,3-1.8h-10.2C663,531.2,661,532.4,657.6,534z"/>
	</g>
</g>
<g id="Layer_1_copy" display="none">
	<g display="inline">
		<path fill="#FFFFFF" d="M749,396c1.8-1.8,5-5.2,6.8-6.4c2.4-1.8,15.2,0.2,25-6c9.8-6.199,21.8-20.6,25-26.6s3.2-9.8,4.2-17.2
			c0.8-7.2,2-15,2-15s-10.6,1.601-18.2,3.601c-7.399,1.8-12.8,5.199-17.2,8.8c-4.399,3.6-3.399,0.6-8.8,5.8
			c-5.399,5.2-10.8,14.2-13.399,22.8c-2.601,8.601-1.2,20-1.601,22c-0.399,1.4-2.2,3.4-3.6,4.601c0.6-6.4,1-13,1.2-17.2
			c0.6-8.2,0.399-17,0-22.2c-0.2-1.8-0.4-3.8-0.601-5.6c1.8-1.801,7.2-7.2,10-9.4c3.4-2.6,13.2-2.2,21-8c7.4-5.6,19.2-21.4,17-35.6
			s-9-24-9-24s-14.399,3.4-23,10.4c-8.6,7-18.2,22.6-16.8,34c1.6,11.4,8.6,16,8.4,19.8c-0.2,3.2-6.601,7.801-8.601,9
			c-0.2-2-0.6-3.8-0.399-5.199C748.8,333.8,746,325.8,746,325.8s-3-6.8-3.6-9c-0.4-2.2,1-7,2.6-11.6c1.6-4.6-0.8-14-0.2-19.4
			c0.4-5.4-1.6-15.4-1.8-17.8s-3.8-11-5.2-13c-1.2-2-1.8-3.8-3.6-6.4c-1.8-2.6-4.4-4-6.601-6c-2.199-2-4.6-4.4-6-6.4
			c-1.6-1.8-5.199-3-7-3.6c-1.8-0.6-4.8-4.8-4.8-4.8s-0.2,4.8-0.8,7c-0.6,2.2-2.6,3.6-3.6,9s-2,9.8-2,14.6
			c-0.2,4.6,1.2,14.6,3.399,19.4c2.2,4.8,5.4,10.8,11,18.6c5.601,7.6,20.4,18.8,22,21c1.601,2.199,3.801,11.399,3.801,11.399
			s1.6,7.4,2,16.4c-0.2,0-0.4,0.2-0.801,0.2c-1.399,0.199-4.8-2.4-6.6-4.2s-1.2-4.2-3-9S727.8,315.6,721,308
			c-6.8-7.6-15.8-10.2-24-11.2s-23.399,5-23.399,5s1.6,10.4,4.8,19.2c3.399,8.8,19.8,18.8,28,22c8.2,3,28,0.6,29.8,0.8
			s5.6,4,7.2,4.2c1,0.2,1.8-0.2,2.2-0.4v0.2c0,7.4,1.8,9.8,1.199,15.601c-0.6,6,0.4,12-0.8,16.399c-0.8,3-2.2,5.2-2.6,7
			c-0.8-0.2-1.8-0.8-2.2-1.399c-1-1.2-2.6-5-4.4-11.4c-2-6.4-11.399-17-17.399-22.4c-6-5.6-23.601-9.6-28.2-8.199
			c-4.4,1.399-14.8,0.199-14.8,0.199s2.8,11.4,4.6,16.4s0.8,7.2,3,11.6c2.2,4.2,3.4,6,10,11.601c6.6,5.6,16,7.8,23.6,7.2
			c7.601-0.601,20.2-2.801,22.601-2.4c2.399,0.4,3.2,1.4,3.2,1.4l0.199-0.4c0.801,2.2,1,6,0.801,9.8c-0.2,4-1,14.4-2.801,22.4
			c-1.8,8-4.199,20-5.8,21.6c-1.6,1.601-2.8,1.601-3.2,2.8l0,0c-0.6-0.399-1.199-1-2-2C729.2,441,730.4,435.4,728,424
			c-2.4-11.6-16-24.8-25.8-29.8c-9.8-4.8-29.2-5.2-29.2-5.2s1.6,11,3,14c1.2,3,0.2,5.2,3,13.6c2.8,8.4,11.8,16.2,22,22.601
			c10.2,6.2,26.6,4.8,28,6.2c1.2,1.199,2.6,2.8,3,3.399c-0.4,2.601-1.2,6-2.2,7.8c-1.8,2.801-5.6,15.2-12.2,23.801
			c-3.199,4.199-5.399,7.399-7,9.6c-0.8-0.8-4.6-4.4-6-6.4C703.2,481.4,708,472.2,707,461c-1-11.4-7-16.8-14.8-23.8
			c-8-6.8-25.6-6.2-25.6-6.2s-1.601,7-2,15.8c-0.4,8.601,5.199,18.8,12.8,25.8c7.6,7,20.6,6.8,24.6,11.601c2,2.399,7.4,7.6,7.4,7.8
			c-0.601,1-1,1.6-1,1.6s-2.601,5-6.2,8.601c-2.6,2.6-12,11-20.2,17.2c-0.8-1.4-2-3.601-2.6-5.2c-0.8-2.4,3.399-5.2,2.6-21.8
			c-0.8-14.601-17.6-23.801-22.2-26.801c-4.6-3-11-8-11-8s-11.2,19.801,0.601,40C656,508.8,676,513.2,677.2,515.2
			c0.6,1.2,1.8,4,2.6,5.8c-2.2,1.6-4.399,3-6.2,3.8c-8.6,4.4-9.8,6-16.6,9.2s-8.4,1.6-19.4,8.6C626.6,549.4,611.4,561.4,610,563.2
			c0,0,2,5.8,2.8,7c1,1.2,1.8,0.6,2.601,0c0.8-0.601-0.2-3,1.6-4.601c1.8-1.6,15.4-13.399,19.8-16.6c4.4-3,11.4-7,16.601-8.8
			c3.399-1.2,10.399-4.4,15.8-7.2c0.6,0.4,1.2,0.8,1.6,0.8c1.2,0.2,7-0.2,8.8,1.8c1.801,2,8.4,14.601,12.801,17.2
			c4.399,2.6,12.6,8.8,21.8,6.2c9-2.6,14.8-2.2,19-5.2s6.399-8.6,6.399-8.6s-2.199-2.4-3.399-5.2s-8.4-11.601-13.2-14
			c-5-2.4-17.4-6.4-24.6-3.601c-7.2,2.801-14,9-16.601,10.2c-2.6,1-8.6-0.399-9.6-1c0,0-0.2,0-0.2-0.2c1.8-0.8,3.2-1.8,4-2.199
			c3.2-2.2,20.4-15.601,24.8-19.4c2.4-2.2,5.601-5.8,8.8-9.6c1.801,0.199,5.4,0.8,6.2,1.199c1.2,0.801,10.4,9.801,16.2,12
			c5.8,2.2,19.2,8.2,28.4,3.2c9.199-5,15.399-14.399,15.399-14.399s-2.6-5.801-6.399-8.801c-4-3-16-7.8-21-7.6c-5,0-11,0-16.2,2
			s-14.2,9.8-15.2,10.4c-1,0.6-3.6-0.801-4.8-1.4c1.6-2.2,3.2-4.2,4.399-6c4.2-6.2,9.601-14.2,11-15.4
			c0.4-0.399,0.801-1.199,1.2-2.199c2.2-0.4,6-1,7.601-1.4c2.399-0.4,7.8,4.4,13,5.4c5.199,1,9.399,0,14.399,0s11.2,3.8,22.8,1
			C798,475.6,809.2,463.8,809.2,463.8s-2-0.6-3.2-2c-1.4-1.6-2.4-3-4.8-6.6c-2.4-3.4-6-5.801-13.4-10.2
			c-7.399-4.4-19-0.601-22,0.399c-3,1.2-8,1.4-13.8,5.4s-12.6,16.2-15.4,18c-2.399,1.6-6.399,0.8-7,0.6c0.4-1.8,1-3.8,1.801-5.399
			c1.8-3.4,8.399-19.4,10.6-25c2.4-1.4,7.4-4.4,8.8-5.2c1.8-1.2,3.8-1.4,9.2,0.2c5.6,1.6,18.4,2.6,26.6-1.4
			c8.2-4.2,19.2-18,21.601-24.6c2.6-6.601,4.2-17.601,4.2-17.601s-5.601,0.2-8.2,0c-2.601-0.199-9.4-2-18-0.8
			c-8.601,1-19.4,4.601-26.4,13.2c-6.8,8.6-7.4,25.8-9.6,28.4c-1.601,1.8-5,3.199-6.601,4c1.601-6.4,4.2-21,4.8-27.2
			C748.2,405.6,748.6,401,749,396z"/>
		<path fill="#FFFFFF" d="M532.8,396c-1.8-1.8-5-5.2-6.8-6.4c-2.4-1.8-15.2,0.2-25-6c-9.8-6.199-21.8-20.6-25-26.6
			s-3.2-9.8-4.2-17.2c-0.8-7.2-2-15-2-15S480.4,326.4,488,328.4c7.4,1.8,12.8,5.199,17.2,8.8c4.399,3.6,3.399,0.6,8.8,5.8
			s10.8,14.2,13.4,22.8c2.6,8.601,1.199,20,1.6,22c0.4,1.4,2.2,3.4,3.6,4.601c-0.6-6.4-1-13-1.199-17.2c-0.601-8.2-0.4-17,0-22.2
			c0.199-1.8,0.399-3.8,0.6-5.6c-1.8-1.801-7.2-7.2-10-9.4c-3.4-2.6-13.4-2.2-21-8c-7.4-5.6-19.2-21.4-17-35.6s9-24,9-24
			s14.4,3.4,23,10.4s18.2,22.6,16.8,34c-1.6,11.4-8.6,16-8.399,19.8c0.199,3.2,6.6,7.801,8.6,9c0.2-2,0.4-3.8,0.4-5.199
			C533,333.8,535.8,325.8,535.8,325.8s3-6.8,3.601-9c0.399-2.2-1-7-2.601-11.6c-1.6-4.6,0.8-14,0.2-19.4c-0.4-5.4,1.6-15.4,1.8-18
			c0.2-2.4,3.8-11,5-13s1.8-3.8,3.601-6.4c1.8-2.6,4.399-4,6.6-6s4.6-4.4,6-6.4c1.4-1.8,5.2-3,7-3.6s4.8-4.8,4.8-4.8s0.2,4.8,0.8,7
			c0.601,2.2,2.601,3.6,3.601,9c1,5.4,2,9.8,2,14.6c0.199,4.6-1.2,14.6-3.4,19.4c-2.2,4.8-5.4,10.8-11,18.6
			c-5.6,7.6-20.4,18.8-22,21S538,328.6,538,328.6s-1.601,7.4-2,16.4c0.2,0,0.399,0.2,0.8,0.2c1.4,0.2,4.8-2.4,6.6-4.2
			c1.801-1.8,1.2-4.2,3-9c1.801-4.8,7.4-16.601,14.2-24.2c6.8-7.6,15.8-10.2,24-11.2s23.4,5,23.4,5s-1.4,10.4-4.8,19.2
			c-3.2,8.8-19.801,18.8-28,22c-8.2,3-28,0.6-29.801,0.8c-1.8,0.2-5.6,4-7.199,4.2c-1,0.2-1.801-0.2-2.2-0.4v0.2
			c0,7.4-1.8,9.8-1.2,15.601c0.6,6-0.4,12,0.8,16.399c0.8,3,2.2,5.2,2.601,7c0.8-0.2,1.8-0.8,2.199-1.399c1-1.2,2.601-5,4.4-11.4
			c2-6.399,11.4-17,17.4-22.399c6-5.601,23.6-9.601,28.199-8.2c4.4,1.399,14.801,0.2,14.801,0.2S602.399,354.8,600.6,359.8
			s-0.8,7.2-3,11.601c-2.2,4.199-3.399,6-10,11.6c-6.6,5.6-16,7.8-23.6,7.2c-7.6-0.601-20.2-2.8-22.6-2.4c-2.4,0.4-3.2,1.4-3.2,1.4
			l-0.2-0.4c-0.8,2.2-1,6-0.8,9.8c0.2,4,1,14.4,2.8,22.4s4.2,20,5.8,21.6c1.6,1.601,2.8,1.601,3.2,2.801l0,0c0.6-0.4,1.2-1,2-2
			c1.4-2.601,0.2-8.2,2.6-19.601c2.4-11.6,16-24.8,25.8-29.8c9.801-4.8,29.2-5.2,29.2-5.2s-1.6,11-2.8,14s-0.2,5.2-3,13.601
			C600,424.8,591,432.6,580.8,439c-10.2,6.2-26.6,4.8-28,6.2c-1.2,1.2-2.6,2.8-3,3.399c0.4,2.601,1.2,6,2.2,7.801
			c1.8,2.8,5.6,15.199,12.2,23.8c3.2,4.2,5.399,7.399,7,9.6c0.8-0.8,4.6-4.399,6-6.399c1.399-2.2-3.4-11.4-2.4-22.601
			c0.8-11.399,7-16.8,14.8-23.8c8-6.8,25.601-6.2,25.601-6.2s1.6,7,2,15.8c0.399,8.601-5.2,18.8-12.801,25.8
			c-7.6,7-20.6,6.801-24.6,11.601c-2,2.399-7.2,7.6-7.4,7.8c0.601,1,1,1.6,1,1.6s2.601,5,6.2,8.601c2.601,2.6,12,11,20.2,17.2
			c0.8-1.4,2-3.601,2.6-5.2c0.801-2.4-3.399-5.2-2.6-21.8c0.8-14.601,17.6-23.8,22.2-26.8c4.6-3,11-8,11-8s11.2,19.8-0.6,40
			C625.8,508.6,605.8,513,604.6,515c-0.6,1.2-1.8,4-2.6,5.8c2.2,1.601,4.4,3,6.2,3.8c8.6,4.4,9.8,6,16.6,9.2s8.4,1.601,19.4,8.601
			c11,6.8,26.2,18.8,27.6,20.6c0,0-2,5.8-2.8,7c-1,1.2-1.8,0.6-2.6,0c-0.801-0.6,0.199-3-1.601-4.6C663,563.8,649.4,552,645,548.8
			c-4.4-3-11.4-7-16.6-8.8c-3.4-1.2-10.4-4.4-15.801-7.2c-0.6,0.4-1.199,0.8-1.6,0.8c-1.2,0.2-7-0.2-8.8,1.8s-8.4,14.601-12.8,17.2
			c-4.4,2.601-12.601,8.8-21.801,6.2c-9-2.6-14.8-2.2-19-5.2c-4.199-3-6.399-8.6-6.399-8.6s2.2-2.4,3.399-5.2
			c1.2-2.8,8.4-11.6,13.2-14c5-2.4,17.4-6.4,24.601-3.6c7.199,2.8,14,9,16.6,10.199c2.6,1,8.6-0.399,9.6-1c0,0,0.2,0,0.2-0.199
			c-1.8-0.801-3.2-1.801-4-2.2c-3.2-2.2-20.399-15.601-24.8-19.4c-2.4-2.2-5.6-5.8-8.8-9.6c-1.8,0.2-5.4,0.8-6.2,1.2
			c-1.2,0.6-10.4,9.8-16.2,12c-5.8,2.199-19.2,8.199-28.399,3.199C512.2,511.399,506,502,506,502s2.6-5.8,6.4-8.8
			c4-3,16-7.801,21-7.601c5,0,11,0,16.199,2c5.2,2,14.2,9.8,15.2,10.4c1,0.6,3.601-0.8,4.8-1.4c-1.6-2.2-3.199-4.2-4.399-6
			c-4.2-6.2-9.601-14.2-11-15.399c-0.4-0.4-0.8-1.2-1.2-2.2c-2.2-0.4-6-1-7.6-1.4c-2.4-0.399-7.801,4.4-13,5.4c-5.2,1-9.4,0-14.4,0
			s-11.2,3.8-22.8,1c-11.4-2.601-22.601-14.4-22.601-14.4s2-0.6,3.2-2c1.4-1.6,2.4-3,4.8-6.6c2.4-3.4,6-5.8,13.4-10.2
			s18.8-0.6,22,0.4c3,1.199,8,1.399,13.8,5.399s12.601,16.2,15.4,18c2.399,1.601,6.399,0.8,7,0.601c-0.4-1.801-1-3.801-1.8-5.4
			c-1.601-3.6-8.4-19.4-10.601-25c-2.399-1.4-7.399-4.4-8.6-5.2c-1.8-1.2-3.8-1.399-9.2,0.2c-5.6,1.6-18.4,2.6-26.6-1.4
			c-8.2-4.199-19.2-18-21.601-24.6c-2.6-6.6-4-17.6-4-17.6s5.601,0.199,8.2,0c2.6-0.2,9.4-2,18-0.801c8.6,1,19.4,4.601,26.4,13.2
			c6.8,8.601,7.399,25.8,9.6,28.4c1.6,1.8,5,3.2,6.6,4c-1.6-6.4-4.199-21-4.8-27.2C533.6,405.6,533.2,401,532.8,396z"/>
	</g>
</g>
</svg>
