<?xml version="1.0" encoding="utf-8"?>
<!-- Generator: Adobe Illustrator 16.0.0, SVG Export Plug-In . SVG Version: 6.00 Build 0)  -->
<!DOCTYPE svg PUBLIC "-//W3C//DTD SVG 1.1//EN" "http://www.w3.org/Graphics/SVG/1.1/DTD/svg11.dtd">
<svg version="1.1" id="Layer_1" xmlns="http://www.w3.org/2000/svg" xmlns:xlink="http://www.w3.org/1999/xlink" x="0px" y="0px"
	 width="60px" height="59.992px" viewBox="0 0 60 59.992" enable-background="new 0 0 60 59.992" xml:space="preserve">
<path d="M48.906,29.375c0.303-0.311,0.884-0.896,1.173-1.129c0.408-0.317,2.667,0.032,4.389-1.043
	c1.722-1.075,3.819-3.613,4.377-4.667c0.572-1.058,0.572-1.733,0.729-3.003l0.345-2.606c0,0-1.874,0.289-3.175,0.619
	c-1.302,0.326-2.224,0.914-2.988,1.56c-0.771,0.639-0.596,0.089-1.541,1.001c-0.957,0.912-1.888,2.489-2.34,4.003
	c-0.471,1.519-0.196,3.506-0.295,3.861c-0.062,0.233-0.392,0.589-0.619,0.807l0.228-3c0.091-1.423,0.056-2.965,0.006-3.881
	l-0.119-0.98c0.298-0.299,1.272-1.252,1.763-1.646c0.589-0.476,2.328-0.384,3.688-1.408c1.296-0.975,3.361-3.741,2.991-6.225
	c-0.374-2.483-1.579-4.192-1.579-4.192s-2.519,0.6-4.016,1.825s-3.187,3.961-2.924,5.965c0.257,2.005,1.5,2.817,1.465,3.471
	c-0.029,0.563-1.158,1.348-1.488,1.567l-0.063-0.906c0.075-0.804-0.427-2.196-0.427-2.196s-0.531-1.195-0.612-1.569
	c-0.079-0.374,0.187-1.217,0.455-2.032c0.269-0.822-0.129-2.45-0.053-3.401c0.082-0.944-0.257-2.698-0.315-3.131
	c-0.052-0.43-0.668-1.916-0.896-2.267l-0.615-1.131c-0.298-0.462-0.773-0.705-1.15-1.047c-0.379-0.339-0.8-0.778-1.063-1.104
	C43.974,1.16,43.32,0.966,43.01,0.85C42.71,0.733,42.188,0,42.188,0s-0.023,0.833-0.141,1.234c-0.122,0.397-0.446,0.633-0.618,1.566
	c-0.17,0.938-0.345,1.728-0.356,2.549c-0.029,0.816,0.204,2.546,0.584,3.394c0.391,0.855,0.937,1.898,1.911,3.242
	c0.972,1.348,3.581,3.29,3.863,3.68l0.681,1.984c0,0,0.286,1.304,0.335,2.88l-0.128,0.038c-0.239,0.048-0.838-0.4-1.155-0.725
	c-0.313-0.326-0.223-0.747-0.534-1.593c-0.31-0.848-1.287-2.898-2.492-4.231c-1.199-1.335-2.755-1.787-4.199-1.965
	c-1.436-0.18-4.098,0.881-4.098,0.881s0.26,1.805,0.838,3.34c0.572,1.536,3.467,3.299,4.899,3.837
	c1.421,0.535,4.891,0.092,5.209,0.15l1.267,0.723l0.379-0.057v0.037c0,1.284,0.321,1.711,0.216,2.746
	c-0.102,1.037,0.082,2.106-0.146,2.865l-0.438,1.231l-0.397-0.233c-0.169-0.2-0.443-0.873-0.775-1.999
	c-0.336-1.123-1.99-2.971-3.047-3.932c-1.045-0.963-4.146-1.676-4.932-1.419l-2.574,0.045c0,0,0.479,2.008,0.817,2.869
	c0.33,0.861,0.134,1.27,0.508,2.017s0.587,1.055,1.739,2.041c1.155,0.992,2.802,1.363,4.126,1.272
	c1.337-0.098,3.546-0.487,3.975-0.422c0.432,0.064,0.561,0.258,0.561,0.258l0.029-0.06c0.128,0.379,0.187,1.039,0.146,1.703
	c-0.053,0.708-0.16,2.511-0.484,3.917c-0.324,1.4-0.724,3.508-1.01,3.788l-0.563,0.473v0.003l-0.345-0.359
	c-0.257-0.446-0.056-1.43-0.452-3.449c-0.397-2.02-2.799-4.352-4.521-5.208c-1.713-0.852-5.121-0.906-5.121-0.906
	s0.292,1.93,0.505,2.45c0.225,0.53,0.044,0.91,0.528,2.364c0.496,1.459,2.068,2.851,3.837,3.937c1.777,1.088,4.666,0.831,4.917,1.1
	l0.534,0.575c-0.073,0.452-0.189,1.057-0.394,1.371c-0.31,0.505-0.992,2.673-2.143,4.164c-0.56,0.724-0.963,1.284-1.223,1.67
	c-0.137-0.132-0.819-0.771-1.054-1.121c-0.256-0.391,0.578-1.984,0.433-3.957c-0.158-1.99-1.217-2.959-2.601-4.158l-4.479-1.089
	c0,0-0.28,1.231-0.367,2.755c-0.076,1.512,0.922,3.289,2.244,4.512c1.321,1.208,3.592,1.185,4.298,2.049
	c0.356,0.42,1.281,1.342,1.293,1.356l-0.184,0.28c0,0-0.455,0.879-1.071,1.521c-0.446,0.467-2.086,1.932-3.528,2.994
	c-0.157-0.245-0.361-0.625-0.443-0.896c-0.143-0.426,0.607-0.925,0.455-3.819c-0.134-2.551-3.072-4.164-3.875-4.704
	c-0.794-0.543-1.917-1.406-1.917-1.406s-1.968,3.484,0.104,7.018c1.147,1.964,4.673,2.752,4.848,3.073l0.443,1.004
	c-0.402,0.283-0.785,0.525-1.098,0.683l-2.9,1.604c-1.196,0.561-1.474,0.289-3.399,1.497c-1.93,1.2-4.584,3.283-4.847,3.622
	c0,0,0.338,1.033,0.499,1.229c0.165,0.201,0.323,0.096,0.445-0.006c0.128-0.108-0.051-0.534,0.267-0.809
	c0.322-0.269,2.695-2.363,3.462-2.889c0.778-0.531,1.983-1.214,2.899-1.559c0.599-0.222,1.818-0.782,2.77-1.255l0.292,0.152
	c0.189,0.017,1.231-0.041,1.549,0.306c0.313,0.345,1.477,2.568,2.244,3.021c0.765,0.452,2.206,1.55,3.794,1.098
	c1.588-0.45,2.603-0.392,3.335-0.92c0.741-0.534,1.121-1.506,1.121-1.506s-0.374-0.411-0.593-0.896
	c-0.216-0.484-1.45-2.031-2.319-2.46c-0.873-0.435-3.056-1.114-4.319-0.63c-1.258,0.484-2.46,1.584-2.9,1.776
	c-0.449,0.188-1.509-0.069-1.678-0.172l-0.032-0.021l0.691-0.391c0.578-0.395,3.577-2.714,4.325-3.411
	c0.414-0.374,0.977-0.995,1.528-1.673c0.327,0.047,0.937,0.135,1.092,0.222c0.21,0.129,1.827,1.722,2.827,2.119
	c0.998,0.385,3.383,1.433,4.973,0.549c1.6-0.879,2.708-2.504,2.708-2.504s-0.44-1.021-1.129-1.535
	c-0.688-0.52-2.796-1.354-3.68-1.343c-0.885,0-1.923,0-2.846,0.368c-0.913,0.362-2.469,1.701-2.673,1.818
	c-0.157,0.09-0.642-0.144-0.828-0.242l0.775-1.057c0.719-1.095,1.667-2.48,1.932-2.705l0.199-0.4l1.342-0.23l2.276,0.938
	c0.907,0.192,1.64-0.006,2.51,0.017c0.869,0.018,1.967,0.657,3.98,0.185c1.999-0.47,3.969-2.536,3.969-2.536
	s-0.333-0.082-0.569-0.356c-0.242-0.268-0.435-0.536-0.844-1.144c-0.411-0.602-1.032-1.01-2.346-1.78
	c-1.296-0.773-3.304-0.116-3.834,0.082c-0.52,0.192-1.396,0.225-2.399,0.939c-1.021,0.712-2.229,2.843-2.69,3.148
	c-0.432,0.274-1.114,0.141-1.231,0.108l0.298-0.934c0.298-0.607,1.462-3.4,1.835-4.366c0.418-0.236,1.305-0.755,1.526-0.919
	c0.298-0.222,0.654-0.245,1.623,0.056c0.963,0.298,3.201,0.464,4.634-0.263c1.424-0.729,3.35-3.163,3.796-4.308
	C59.735,30.404,60,28.487,60,28.487l-1.436,0.006c-0.467-0.028-1.64-0.345-3.166-0.153c-1.518,0.186-3.411,0.81-4.604,2.318
	c-1.193,1.518-1.293,4.523-1.689,4.961c-0.289,0.31-0.864,0.572-1.171,0.7c0.277-1.132,0.744-3.674,0.826-4.757L48.906,29.375z
	 M11.072,29.375c-0.305-0.311-0.885-0.896-1.178-1.129c-0.401-0.317-2.666,0.029-4.388-1.046c-1.711-1.075-3.815-3.61-4.374-4.667
	c-0.567-1.055-0.57-1.733-0.729-3L0.06,16.923c0,0,1.873,0.292,3.176,0.618c1.303,0.329,2.229,0.914,2.994,1.56
	C7,19.74,6.82,19.19,7.772,20.102c0.947,0.912,1.879,2.489,2.342,4.003c0.47,1.519,0.199,3.506,0.291,3.858
	c0.063,0.233,0.398,0.589,0.619,0.807l-0.225-3c-0.098-1.426-0.056-2.968-0.009-3.878l0.12-0.98c-0.299-0.305-1.27-1.252-1.76-1.65
	c-0.592-0.472-2.327-0.379-3.684-1.404c-1.3-0.972-3.365-3.738-2.991-6.222S4.046,7.45,4.046,7.45s2.519,0.597,4.017,1.822
	c1.5,1.223,3.188,3.958,2.928,5.962c-0.273,2.005-1.504,2.817-1.468,3.471c0.029,0.563,1.16,1.348,1.491,1.567l0.065-0.906
	c-0.089-0.801,0.419-2.193,0.419-2.193s0.531-1.192,0.613-1.568c0.077-0.381-0.195-1.22-0.458-2.035
	c-0.269-0.822,0.125-2.45,0.045-3.401c-0.083-0.947,0.269-2.695,0.323-3.131c0.042-0.43,0.661-1.913,0.887-2.267l0.618-1.128
	c0.299-0.462,0.775-0.71,1.146-1.047c0.379-0.342,0.804-0.778,1.064-1.104c0.262-0.331,0.917-0.522,1.224-0.642
	C17.268,0.733,17.792,0,17.792,0s0.023,0.833,0.137,1.234c0.123,0.397,0.445,0.633,0.619,1.566c0.17,0.935,0.337,1.725,0.362,2.546
	c0.023,0.816-0.21,2.546-0.592,3.394c-0.388,0.855-0.936,1.901-1.909,3.245c-0.966,1.345-3.581,3.29-3.857,3.68l-0.676,1.984
	c0,0-0.291,1.304-0.335,2.88l0.125,0.035c0.239,0.048,0.84-0.4,1.154-0.725c0.311-0.326,0.225-0.747,0.536-1.593
	c0.307-0.845,1.287-2.895,2.488-4.229c1.205-1.335,2.765-1.787,4.199-1.965c1.434-0.18,4.091,0.878,4.091,0.878
	s-0.254,1.805-0.841,3.343c-0.576,1.536-3.467,3.299-4.894,3.837c-1.428,0.532-4.889,0.096-5.212,0.146l-1.268,0.727l-0.382-0.057
	v0.037c0,1.287-0.32,1.711-0.217,2.746c0.11,1.034-0.072,2.106,0.143,2.865l0.445,1.231l0.396-0.233
	c0.172-0.203,0.445-0.875,0.776-2.002c0.334-1.129,1.99-2.974,3.045-3.935c1.046-0.963,4.145-1.676,4.927-1.419l2.577,0.048
	c0,0-0.479,2.005-0.817,2.863c-0.331,0.865-0.131,1.272-0.508,2.022c-0.376,0.747-0.585,1.052-1.739,2.038
	c-1.155,0.995-2.806,1.369-4.132,1.272c-1.329-0.098-3.55-0.487-3.975-0.424c-0.424,0.063-0.553,0.262-0.553,0.262l-0.029-0.058
	c-0.128,0.379-0.186,1.036-0.145,1.703c0.051,0.713,0.159,2.52,0.481,3.917c0.325,1.4,0.729,3.511,1.013,3.785l0.569,0.479v0.003
	l0.331-0.368c0.266-0.44,0.057-1.424,0.457-3.446c0.401-2.02,2.803-4.349,4.522-5.206c1.711-0.855,5.121-0.906,5.121-0.906
	s-0.293,1.93-0.505,2.447c-0.222,0.53-0.04,0.91-0.525,2.367c-0.496,1.459-2.072,2.845-3.84,3.934
	c-1.772,1.088-4.659,0.825-4.913,1.094l-0.535,0.581c0.082,0.443,0.195,1.054,0.395,1.371c0.308,0.505,0.995,2.67,2.142,4.158
	c0.562,0.725,0.96,1.296,1.229,1.673c0.134-0.129,0.815-0.771,1.043-1.118c0.26-0.391-0.578-1.984-0.427-3.963
	c0.155-1.99,1.215-2.953,2.603-4.152l4.475-1.088c0,0,0.284,1.229,0.362,2.754c0.082,1.529-0.924,3.301-2.238,4.518
	c-1.323,1.211-3.597,1.188-4.303,2.049c-0.352,0.426-1.275,1.342-1.287,1.356l0.184,0.28c0,0,0.458,0.881,1.074,1.521
	c0.448,0.467,2.091,1.932,3.535,2.994c0.149-0.245,0.357-0.625,0.437-0.891c0.137-0.432-0.601-0.931-0.452-3.825
	c0.134-2.548,3.075-4.155,3.876-4.701c0.796-0.546,1.915-1.403,1.915-1.403s1.968,3.479-0.106,7.015
	c-1.148,1.961-4.675,2.752-4.85,3.07l-0.45,1.016c0.401,0.277,0.781,0.522,1.098,0.677l2.905,1.597
	c1.195,0.563,1.469,0.288,3.395,1.496c1.932,1.191,4.585,3.286,4.848,3.622c0,0-0.336,1.03-0.502,1.231
	c-0.158,0.195-0.318,0.09-0.441-0.009c-0.128-0.105,0.056-0.543-0.269-0.812c-0.317-0.263-2.693-2.357-3.461-2.889
	c-0.773-0.528-1.978-1.208-2.901-1.553c-0.591-0.228-1.814-0.788-2.767-1.261l-0.293,0.152c-0.185,0.022-1.224-0.035-1.541,0.309
	c-0.311,0.345-1.477,2.565-2.238,3.018c-0.769,0.455-2.209,1.553-3.798,1.098c-1.582-0.456-2.594-0.389-3.335-0.926
	c-0.738-0.533-1.121-1.497-1.121-1.497s0.371-0.42,0.592-0.904c0.22-0.479,1.455-2.028,2.321-2.454
	c0.87-0.435,3.06-1.111,4.314-0.639c1.258,0.484,2.46,1.587,2.902,1.785c0.448,0.188,1.505-0.075,1.679-0.175l0.029-0.023
	l-0.693-0.385c-0.576-0.392-3.576-2.714-4.329-3.408c-0.413-0.383-0.98-1.004-1.527-1.676c-0.328,0.05-0.944,0.135-1.1,0.228
	c-0.203,0.117-1.817,1.716-2.817,2.107c-0.998,0.391-3.379,1.436-4.976,0.555c-1.602-0.882-2.707-2.51-2.707-2.51
	s0.439-1.021,1.132-1.529c0.69-0.522,2.788-1.36,3.672-1.343c0.89,0,1.924,0,2.845,0.362c0.917,0.368,2.47,1.71,2.674,1.818
	c0.158,0.084,0.645-0.144,0.83-0.242l-0.767-1.057c-0.727-1.104-1.668-2.486-1.938-2.711l-0.197-0.399l-1.344-0.234l-2.281,0.94
	c-0.906,0.192-1.634-0.006-2.501,0.018c-0.866,0.011-1.976,0.653-3.98,0.184c-1.996-0.47-3.972-2.53-3.972-2.53
	s0.331-0.088,0.571-0.361c0.245-0.269,0.436-0.537,0.843-1.145c0.409-0.601,1.033-1.004,2.345-1.783
	c1.297-0.773,3.31-0.113,3.838,0.085c0.523,0.187,1.392,0.222,2.406,0.939c1.013,0.715,2.222,2.843,2.692,3.151
	c0.428,0.266,1.112,0.141,1.226,0.105c-0.076-0.318-0.167-0.665-0.302-0.934c-0.296-0.613-1.465-3.399-1.839-4.365
	c-0.414-0.237-1.297-0.756-1.52-0.917c-0.302-0.219-0.649-0.245-1.617,0.056c-0.978,0.289-3.219,0.47-4.65-0.263
	c-1.426-0.729-3.35-3.16-3.795-4.304C0.266,30.407,0,28.487,0,28.487l1.434,0.006c0.473-0.028,1.64-0.345,3.168-0.153
	c1.518,0.186,3.41,0.81,4.607,2.318c1.198,1.518,1.297,4.523,1.697,4.961c0.287,0.31,0.861,0.572,1.168,0.7
	c-0.285-1.132-0.75-3.674-0.83-4.757L11.072,29.375z"/>
</svg>
