<svg xmlns="http://www.w3.org/2000/svg" width="985" height="58">
    <path d="M9.676 27.389l-6.97-5.002 6.642-6.807-9.348-1.64 2.706-8.036 8.528 4.264-1.394-9.594h8.446l-1.476 9.594 8.691-4.264 2.625 7.954-9.431 1.722 6.642 6.807-6.888 5.002-4.428-8.61-4.345 8.61zM33.538 55.515v-54.695h27.88v9.758h-14.678v12.711h11.48v10.168h-11.48v22.058h-13.202zM62.155 28.045c0-17.057 6.314-28.045 18.04-28.045 12.218 0 18.45 10.004 18.45 28.127 0 18.695-7.216 28.126-18.368 28.126-12.136 0-18.122-10.824-18.122-28.208zm22.468-.164c0-14.925-.82-18.205-4.182-18.205-3.198 0-4.264 3.28-4.264 18.615 0 15.17.983 18.121 4.182 18.121 3.116 0 4.264-3.115 4.264-18.531zM102.09 55.515v-54.695h17.711c9.759 0 16.072 5.74 16.072 15.908 0 6.15-2.214 10.168-6.313 12.792l7.462 25.994h-13.858l-5.329-22.714h-2.625v22.714h-13.12zm13.037-31.489h2.707c3.033 0 4.346-1.968 4.346-6.97 0-5.084-1.312-7.053-3.937-7.053h-3.116v14.023zM158.34 55.515v-54.695h17.057c10.906 0 16.646 5.986 16.646 16.564 0 9.266-6.068 16.236-16.072 16.236h-4.347v21.894h-13.284zm13.284-31.325h2.788c2.706 0 4.018-1.394 4.018-6.888s-1.476-7.053-4.182-7.053h-2.624v13.941zM194.42 55.515v-54.695h27.962v9.758h-14.924v12.301h11.151v10.004h-11.151v12.873h15.416v9.759h-28.454zM225.743 28.045c0-17.057 6.313-28.045 18.04-28.045 12.218 0 18.45 10.004 18.45 28.127 0 18.695-7.216 28.126-18.368 28.126-12.136 0-18.122-10.824-18.122-28.208zm22.468-.164c0-14.925-.82-18.205-4.182-18.205-3.198 0-4.264 3.28-4.264 18.615 0 15.17.983 18.121 4.182 18.121 3.115 0 4.264-3.115 4.264-18.531zM265.678 55.515v-54.695h17.056c10.905 0 16.646 5.986 16.646 16.564 0 9.266-6.067 16.236-16.072 16.236h-4.346v21.894h-13.284zm13.283-31.325h2.788c2.706 0 4.019-1.394 4.019-6.888s-1.477-7.053-4.183-7.053h-2.624v13.941zM301.756 55.515v-54.695h13.284v45.018h14.351v9.677h-27.635zM333.162 55.515v-54.695h27.962v9.758h-14.924v12.301h11.151v10.004h-11.151v12.873h15.416v9.759h-28.454zM389.658 55.515l-9.512-54.695h12.874l4.347 29.766.491 5.248.492-5.166 3.772-29.848h11.89l4.347 29.93.409 5.084.492-5.084 4.019-29.93h10.496l-9.021 54.694h-12.546l-4.51-27.552-.492-4.101-.41 4.101-4.428 27.552h-12.71zM437.381 55.515v-54.695h13.284v21.977h6.806v-21.977h13.203v54.694h-13.203v-22.303h-6.806v22.304h-13.284zM474.197 28.045c0-17.057 6.314-28.045 18.04-28.045 12.219 0 18.45 10.004 18.45 28.127 0 18.695-7.216 28.126-18.368 28.126-12.135 0-18.122-10.824-18.122-28.208zm22.469-.164c0-14.925-.82-18.205-4.183-18.205-3.198 0-4.264 3.28-4.264 18.615 0 15.17.983 18.121 4.182 18.121 3.117 0 4.265-3.115 4.265-18.531zM532.745 55.515v-54.695h17.384l5.248 30.012 5.248-30.012h17.057v54.694h-12.383v-33.784l-6.724 33.784h-8.938l-6.724-33.784v33.784h-10.168zM580.878 55.515l10.824-54.695h15.744l11.234 54.694h-13.858l-1.968-13.284h-8.364l-1.968 13.284h-11.644zm15.088-22.14h5.166l-2.542-16.975-2.624 16.975zM621.878 55.515v-54.695h13.12v18.532l9.43-18.532h12.301l-10.989 19.926 12.628 34.769h-13.94l-7.052-20.746-2.378 4.019v16.728h-13.12zM660.991 55.515v-54.695h27.962v9.758h-14.924v12.301h11.152v10.004h-11.152v12.873h15.416v9.759h-28.454zM717.487 55.515l-9.511-54.695h12.874l4.346 29.766.492 5.248.492-5.166 3.771-29.848h11.891l4.346 29.93.41 5.084.492-5.084 4.018-29.93h10.496l-9.02 54.694h-12.546l-4.511-27.552-.491-4.101-.41 4.101-4.429 27.552h-12.71zM765.21 55.515v-54.695h27.962v9.758h-14.924v12.301h11.152v10.004h-11.152v12.873h15.416v9.759h-28.454zM798.091.82h17.712c9.512 0 14.187 5.658 14.187 13.529 0 6.889-3.362 11.07-8.446 12.301 5.248.984 9.758 5.412 9.758 13.366 0 9.267-4.756 15.498-15.662 15.498h-17.548v-54.694zm12.628 21.485h2.87c2.378 0 3.362-.984 3.362-6.314 0-4.674-1.23-5.904-3.444-5.904h-2.788v12.218zm0 23.697h3.526c2.952 0 3.689-1.967 3.689-7.297 0-5.166-.983-7.217-4.182-7.217h-3.034v14.514zM833.268 41.492l10.496-2.623c.656 5.657 2.706 7.707 6.149 7.707 3.116 0 4.511-1.64 4.511-4.756 0-3.607-2.378-5.904-8.282-9.594-6.561-3.854-11.891-8.2-11.891-17.221 0-8.199 5.822-14.924 16.154-14.924 9.595 0 14.187 5.904 15.416 13.776l-10.823 2.624c-.574-5.002-2.051-6.725-4.757-6.725-2.624 0-3.854 1.641-3.854 4.019 0 4.92 3.28 6.149 8.528 9.431 6.478 3.854 11.562 8.281 11.562 17.465 0 9.103-5.576 15.581-16.236 15.581-11.397.001-15.662-6.478-16.973-14.76zM870.987 55.515v-54.695h13.202v54.694h-13.202zM896.325 55.515v-45.019h-8.692v-9.676h30.34v9.676h-8.691v45.019h-12.957zM921.17 55.515v-54.695h27.962v9.758h-14.924v12.301h11.152v10.004h-11.152v12.873h15.416v9.759h-28.454zM951.427 41.492l10.496-2.623c.656 5.657 2.706 7.707 6.149 7.707 3.116 0 4.511-1.64 4.511-4.756 0-3.607-2.378-5.904-8.282-9.594-6.561-3.854-11.891-8.2-11.891-17.221 0-8.199 5.822-14.924 16.154-14.924 9.595 0 14.187 5.904 15.416 13.776l-10.824 2.624c-.573-5.002-2.05-6.725-4.756-6.725-2.624 0-3.854 1.641-3.854 4.019 0 4.92 3.28 6.149 8.528 9.431 6.478 3.854 11.562 8.281 11.562 17.465 0 9.103-5.576 15.581-16.236 15.581-11.397.001-15.662-6.478-16.973-14.76z"/>
</svg>
