<svg xmlns="http://www.w3.org/2000/svg" xmlns:xlink="http://www.w3.org/1999/xlink" width="29" height="24" viewBox="0 0 29 24">
    <defs>
        <path id="a" d="M0 0h29v23.566h-29z"/>
    </defs>
    <clipPath id="b">
        <use xlink:href="#a" overflow="visible"/>
    </clipPath>
    <path clip-path="url(#b)" fill="#2CAAE1" d="M29 2.791c-1.067.474-2.214.793-3.418.938 1.229-.737 2.172-1.903 2.617-3.293-1.15.682-2.424 1.177-3.779 1.444-1.087-1.157-2.633-1.88-4.345-1.88-3.287 0-5.952 2.665-5.952 5.951 0 .467.053.921.154 1.356-4.945-.247-9.331-2.617-12.266-6.218-.512.879-.806 1.902-.806 2.993 0 2.064 1.051 3.886 2.647 4.954-.975-.032-1.893-.3-2.695-.745l-.001.075c0 2.883 2.052 5.289 4.774 5.835-.5.136-1.025.209-1.568.209-.384 0-.757-.038-1.12-.107.757 2.364 2.955 4.085 5.56 4.133-2.037 1.597-4.603 2.548-7.391 2.548-.48 0-.954-.028-1.42-.083 2.634 1.688 5.762 2.674 9.123 2.674 10.947 0 16.933-9.069 16.933-16.933 0-.258-.006-.515-.017-.77 1.163-.84 2.172-1.888 2.97-3.081"/>
</svg>
