<?xml version="1.0" encoding="utf-8"?>
<!-- Generator: Adobe Illustrator 18.1.1, SVG Export Plug-In . SVG Version: 6.00 Build 0)  -->
<svg version="1.1" id="Layer_1" xmlns="http://www.w3.org/2000/svg" xmlns:xlink="http://www.w3.org/1999/xlink" x="0px" y="0px"
	 viewBox="-212.7 354.2 84 86" enable-background="new -212.7 354.2 84 86" xml:space="preserve">
<g>
	<g>
		<path fill="#FFFFFF" d="M-168.4,403.2l-4-3.1c-1.2-1-2.9-2.3-2.9-4.8c0-2.4,1.7-4,3.1-5.4c4.6-3.7,9.3-7.5,9.3-15.7
			c0-8.4-5.3-12.9-7.8-15h6.8l7.2-4.5h-21.8c-6,0-14.6,1.4-20.9,6.6c-4.8,4.1-7.1,9.8-7.1,14.8c0,8.6,6.6,17.4,18.3,17.4
			c1.1,0,2.3-0.1,3.5-0.2c-0.5,1.3-1.1,2.4-1.1,4.3c0,3.4,1.8,5.5,3.3,7.5c-5,0.3-14.3,0.9-21.1,5.1c-6.5,3.9-8.5,9.5-8.5,13.5
			c0,8.2,7.7,15.8,23.8,15.8c19,0,29.1-10.5,29.1-20.9C-159.1,411.1-163.5,407.3-168.4,403.2z M-182.9,390.5
			c-9.5,0-13.8-12.3-13.8-19.7c0-2.9,0.5-5.9,2.4-8.2c1.8-2.2,4.9-3.7,7.7-3.7c9.2,0,13.9,12.4,13.9,20.4c0,2-0.2,5.5-2.8,8.1
			C-177.2,389.1-180.1,390.5-182.9,390.5z M-182.8,435c-11.8,0-19.5-5.7-19.5-13.5c0-7.9,7.1-10.5,9.5-11.4
			c4.6-1.6,10.6-1.8,11.6-1.8c1.1,0,1.7,0,2.5,0.1c8.4,6,12.1,9,12.1,14.6C-166.5,429.9-172.2,435-182.8,435z"/>
		<polygon fill="#FFFFFF" points="-140.5,390.3 -140.5,379.2 -146,379.2 -146,390.3 -157,390.3 -157,395.8 -146,395.8 -146,407 
			-140.5,407 -140.5,395.8 -129.4,395.8 -129.4,390.3 		"/>
	</g>
</g>
</svg>
