<?xml version="1.0" encoding="utf-8"?>
<!-- Generator: Adobe Illustrator 15.1.0, SVG Export Plug-In . SVG Version: 6.00 Build 0)  -->
<!DOCTYPE svg PUBLIC "-//W3C//DTD SVG 1.1//EN" "http://www.w3.org/Graphics/SVG/1.1/DTD/svg11.dtd">
<svg version="1.1" id="Layer_1" xmlns="http://www.w3.org/2000/svg" xmlns:xlink="http://www.w3.org/1999/xlink" x="0px" y="0px"
	 width="56px" height="56px" viewBox="0 0 56 56" enable-background="new 0 0 56 56" xml:space="preserve">
<g>
	<path fill="#222222" d="M0.272,42.386c-0.593,0.921-0.185,1.672,0.907,1.672h14.746c1.095,0,1.503-0.751,0.909-1.672L9.634,31.264
		c-0.594-0.919-1.566-0.919-2.161,0L0.272,42.386z"/>
	<path fill="#222222" d="M10.878,29.346c-0.625-0.898-0.64-2.377-0.033-3.288l2.397-3.595c0.607-0.911,1.576-2.416,2.151-3.345
		c0,0,4.359-7.034,12.055-7.173c3.944-0.073,8.579,1.505,13.064,8.057l0.051,0.076c0.057,0.082,0.589,0.901,1.183,1.82
		l13.227,20.488c0.594,0.92,0.184,1.672-0.909,1.672H36.113c-1.095,0-2.479-0.751-3.076-1.667l-9.738-14.936
		c-0.598-0.917-1.576-0.917-2.173,0l-4.504,6.918c-0.597,0.916-1.597,0.932-2.221,0.034L10.878,29.346z"/>
	<path fill="#222222" d="M40.632,20.258c-0.002-0.017,0.004-0.019,0.013-0.004l15.351,23.777c0.01,0.015,0.004,0.026-0.014,0.026
		h-12.37c-0.017,0-0.032-0.014-0.034-0.031L40.632,20.258z"/>
</g>
</svg>
